<?xml version="1.0" standalone="no"?>
<!DOCTYPE svg PUBLIC "-//W3C//DTD SVG 1.1//EN" "http://www.w3.org/Graphics/SVG/1.1/DTD/svg11.dtd" >
<svg xmlns="http://www.w3.org/2000/svg" xmlns:xlink="http://www.w3.org/1999/xlink" version="1.1">
<metadata>
Created by FontForge 20170731 at Fri Sep  2 15:50:18 2022
 By Aleksey,,,
Created by Georg Duffner with FontForge 2.0 (http://fontforge.sf.net)
</metadata>
<defs>
<font id="EBGaramond12-Italic" horiz-adv-x="0" >
  <font-face 
    font-family="EB Garamond 12"
    font-weight="400"
    font-style="italic"
    font-stretch="normal"
    units-per-em="2048"
    panose-1="2 2 5 2 5 2 6 9 4 3"
    ascent="1638"
    descent="-410"
    x-height="848"
    cap-height="1337"
    bbox="-455 -887 3855.13 2349"
    underline-thickness="102"
    underline-position="-307"
    slope="-17"
    unicode-range="U+0020-FEFF"
  />
<missing-glyph horiz-adv-x="1024" 
d="M102 0v969h820v-969h-820zM205 102h614v764h-614v-764z" />
    <glyph glyph-name="f_f" unicode="ff" horiz-adv-x="976" 
d="M1010 1319q71 64 145 95.5t135 31.5q178 0 178 -113q0 -40 -27.5 -82.5t-58.5 -42.5q-11 0 -16.5 9.5t-6.5 20t-1 28.5q0 39 -31.5 65.5t-101.5 26.5q-54 -1 -103 -36t-83.5 -84.5t-65.5 -118t-49 -124t-33 -114.5q-2 -6 -2 -17q0 -28 33 -28q31 0 65.5 1t76.5 2.5
t66 2.5q3 0 9 -6t6 -9q0 -13 -21 -38t-32 -25l-164 -6q-17 0 -30 -1.5t-21.5 -5t-13.5 -5t-8.5 -8.5l-4.5 -9t-3 -11.5t-3 -12.5l-164 -705q-29 -124 -83.5 -220.5t-112.5 -149t-125 -86t-115.5 -44t-89.5 -10.5q-106 0 -148 45q-54 -63 -109.5 -94t-99.5 -31
q-186 0 -186 103q0 36 24.5 63t55.5 27q13 0 30 -17.5t33 -38t45 -38t64 -17.5q62 0 100.5 82.5t95.5 306.5q199 782 205 813q5 21 -1 29t-27 8l-136 -2q-26 0 -26 25q0 18 12 35t27 18l161 8q18 0 23 27q29 117 80 211.5t107.5 152t121 96t119.5 53.5t104 15q119 0 158 -49
q11 -14 23 -2zM897 1188q2 2 2 14q0 35 -43 59.5t-117 24.5q-47 -1 -92 -31.5t-78 -75.5t-62 -103.5t-47 -110t-30 -101.5q-2 -6 -2 -16q0 -29 33 -29l274 12q18 0 23 27q46 189 139 330zM467 741q-41 -1 -59 -14t-25 -39l-164 -688q-46 -193 -123 -334q-8 -17 0 -28
q57 -66 123 -66q224 0 301 309q199 799 205 830q5 21 -1.5 29t-27.5 8z" />
    <glyph glyph-name="uniFB01" unicode="fi" horiz-adv-x="1011" 
d="M762 748l-295 -7q-17 0 -30 -1.5t-21.5 -5t-13.5 -5t-8.5 -8.5l-4.5 -9t-3 -11.5t-3 -12.5l-164 -688q-30 -126 -73 -229t-87.5 -168.5t-93 -110.5t-90.5 -63.5t-78 -18.5q-186 0 -186 103q0 36 24.5 63t55.5 27q13 0 30 -17.5t33 -38t45 -38t64 -17.5q62 0 100.5 82.5
t95.5 306.5q199 782 205 813q5 21 -1 29t-27 8l-136 -2q-26 0 -26 25q0 18 12 35t27 18l161 8q18 0 23 27q32 131 86.5 238t114.5 172.5t127.5 110t124.5 62t106 17.5q65 0 121.5 -13.5t98.5 -50t42 -90.5q0 -40 -27.5 -70t-66.5 -30q-31 0 -46 21.5t-15 47.5q0 47 -37 79
t-109 32q-78 -2 -170.5 -92t-153.5 -212.5t-61 -215.5q0 -29 29 -29l325 2q84 0 148 35q9 6 22 1t13 -21q0 -28 -17 -78l-211 -582q-10 -29 -10 -59q0 -33 21 -33q30 0 86 38.5t88.5 68t54.5 51.5q4 4 8 4q12 0 12 -10q0 -55 -42 -107.5t-99 -85t-111 -52.5t-83 -20
q-86 0 -86 72q0 56 22 113l199 508q9 23 9.5 40t-4.5 25t-15 13t-16 5.5t-13 0.5z" />
    <glyph glyph-name="uniFB02" unicode="fl" horiz-adv-x="983" 
d="M705 748l-267 -7q-47 -1 -62.5 -12t-21.5 -41l-164 -688q-37 -156 -92.5 -275.5t-114.5 -185t-113.5 -97.5t-100.5 -32q-187 0 -187 103q0 36 24.5 63t55.5 27q13 0 30 -17.5t33 -38t45 -38t64 -17.5q62 0 101 83t96 306q199 782 205 813q5 21 -1.5 29t-27.5 8l-135 -2
q-27 0 -27 25q0 18 12 35t27 18l162 8q10 0 14.5 5.5t7.5 21.5q32 132 83.5 238.5t108 173t120 111.5t118 63t103.5 18q31 0 68.5 -9.5t54.5 -25.5q16 -12 30 -2q22 17 52 28t43 11q9 0 11.5 -3t2.5 -18q0 -23 -8 -47l-353 -1204q-10 -38 -10 -59q0 -33 21 -33
q42 0 104 43.5t94 75.5q6 6 15 17.5t15.5 18.5t10.5 7q11 0 11 -27q0 -56 -70 -117t-148.5 -96t-117.5 -35q-48 0 -75.5 20.5t-27.5 51.5q0 33 23 113l172 575q3 17 -14 17zM756 850l88 295q20 65 20 117q0 38 -41 69t-112 31q-51 -1 -98 -37.5t-76 -82t-52 -101.5
q-10 -26 -44 -138t-40 -139q-2 -6 -2 -16q0 -29 33 -29l297 6q20 0 27 25z" />
    <glyph glyph-name="uniFB03" unicode="ffi" horiz-adv-x="1435" 
d="M897 1188q2 2 2 14q0 35 -43 59.5t-117 24.5q-47 -1 -92 -31.5t-78 -75.5t-62 -103.5t-47 -110t-30 -101.5q-2 -6 -2 -16q0 -29 33 -29l274 12q18 0 23 27q46 189 139 330zM467 741q-41 -1 -59 -14t-25 -39l-164 -688q-46 -193 -123 -334q-8 -17 0 -28q57 -66 123 -66
q224 0 301 309q199 799 205 830q5 21 -1.5 29t-27.5 8zM1219 762l-291 -4q-17 0 -30 -1.5t-21.5 -5t-13.5 -5t-8.5 -8.5l-4.5 -9t-3 -11.5t-3 -12.5l-164 -705q-29 -124 -83.5 -220.5t-112.5 -149t-125 -86t-115.5 -44t-89.5 -10.5q-106 0 -148 45q-54 -63 -109.5 -94
t-99.5 -31q-186 0 -186 103q0 36 24.5 63t55.5 27q13 0 30 -17.5t33 -38t45 -38t64 -17.5q62 0 100.5 82.5t95.5 306.5q199 782 205 813q5 21 -1 29t-27 8l-136 -2q-26 0 -26 25q0 18 12 35t27 18l161 8q18 0 23 27q29 117 80 211.5t107.5 152t121 96t119.5 53.5t104 15
q119 0 158 -49q11 -14 23 -2q137 123 270 123q65 0 121.5 -13.5t98.5 -50t42 -90.5q0 -40 -27.5 -70t-66.5 -30q-31 0 -46.5 21.5t-15.5 47.5q0 42 -42.5 69.5t-100.5 27.5q-42 0 -79 -12t-66.5 -37t-54.5 -52.5t-45.5 -68t-35.5 -74t-29.5 -80.5t-22.5 -76t-19 -73
q-2 -6 -2 -17q0 -28 33 -28q206 0 299 8q43 1 93.5 7.5t55.5 6.5q9 0 12.5 -0.5t7 -5.5t3.5 -16q0 -28 -17 -78l-211 -582q-10 -29 -10 -59q0 -33 21 -33q30 0 86 38.5t88.5 68t54.5 51.5q4 4 8 4q12 0 12 -10q0 -55 -42 -107.5t-99 -85t-111 -52.5t-83 -20q-86 0 -86 72
q0 56 22 113l199 508q15 38 15.5 61.5t-6 30t-15.5 6.5z" />
    <glyph glyph-name="uniFB04" unicode="ffl" horiz-adv-x="1470" 
d="M897 1188q2 2 2 14q0 35 -43 59.5t-117 24.5q-47 -1 -92 -31.5t-78 -75.5t-62 -103.5t-47 -110t-30 -101.5q-2 -6 -2 -16q0 -29 33 -29l274 12q18 0 23 27q46 189 139 330zM467 741q-41 -1 -59 -14t-25 -39l-164 -688q-46 -193 -123 -334q-8 -17 0 -28q57 -66 123 -66
q224 0 301 309q199 799 205 830q5 21 -1.5 29t-27.5 8zM928 758q-17 0 -30 -1.5t-21.5 -5t-13.5 -5t-8.5 -8.5l-4.5 -9t-3 -11.5t-3 -12.5l-164 -705q-29 -124 -83.5 -220.5t-112.5 -149t-125 -86t-115.5 -44t-89.5 -10.5q-106 0 -148 45q-54 -63 -109.5 -94t-99.5 -31
q-186 0 -186 103q0 36 24.5 63t55.5 27q13 0 30 -17.5t33 -38t45 -38t64 -17.5q62 0 100.5 82.5t95.5 306.5q199 782 205 813q5 21 -1 29t-27 8l-136 -2q-26 0 -26 25q0 18 12 35t27 18l161 8q18 0 23 27q29 117 80 211.5t107.5 152t121 96t119.5 53.5t104 15q119 0 158 -49
q11 -14 23 -2q70 63 145 95t133 32q31 0 68.5 -9.5t54.5 -25.5q17 -13 31 -2q22 17 51.5 28t42.5 11q9 0 11.5 -3t2.5 -18q0 -23 -8 -47l-352 -1204q-10 -38 -10 -59q0 -33 20 -33q42 0 104.5 43.5t94.5 75.5q6 6 15 17.5t15.5 18.5t10.5 7q10 0 10 -27q0 -56 -70 -117
t-148.5 -96t-117.5 -35q-48 0 -75 20.5t-27 51.5q0 36 22 113l176 592q3 16 -14 16zM1223 850q19 0 26 24l82 271q21 68 21 117q0 37 -33 60.5t-105 23.5q-64 -1 -120 -48.5t-95.5 -124.5t-64.5 -147t-43 -145q-2 -6 -2 -17q0 -28 33 -28z" />
    <glyph glyph-name="uniFB05" unicode="&#x17f;t" horiz-adv-x="1118" 
d="M920 1266q0 20 -3.5 34.5t-13.5 30t-34 23.5t-60 8q-77 -1 -154.5 -80.5t-128.5 -191.5q-87 -190 -156.5 -395.5t-102.5 -335t-87 -359.5q-29 -127 -73 -230.5t-90 -168.5t-95.5 -109.5t-91 -63t-76.5 -18.5q-76 0 -136 28t-60 62q0 36 25.5 72.5t47.5 36.5
q21 0 48.5 -25t61.5 -50.5t71 -25.5q39 0 69 29t64.5 113t70.5 231q56 230 140 530.5t135 430.5q59 154 136.5 274.5t154 190t147 104.5t129.5 35q207 0 207 -150q0 -25 -17.5 -96t-35.5 -113l-117 -245q-6 -13 1 -18t26 -5q54 0 153 -16q30 -6 38.5 -12.5t8.5 -18.5
q0 -4 -3 -8.5t-12.5 -9.5t-23.5 -6q-70 -7 -176 -7q-21 0 -40 -7.5t-23 -20.5l-168 -510q-11 -29 -1 -55.5t38 -26.5q26 0 53.5 12.5t39 21t46.5 35.5q40 31 54 19q3 -3 3 -8q0 -30 -35 -62q-71 -67 -164 -117.5t-137 -50.5q-34 0 -50.5 17.5t-16.5 58.5q0 27 29 115
l184 547q4 12 -3 18t-18 6l-82 4q-36 2 -36 29q0 4 9 15.5t26 22.5t34 11h74q21 0 29.5 6.5t19.5 30.5l117 260q13 33 22 81.5t9 72.5z" />
    <glyph glyph-name="longs_longs_l" unicode="&#x17f;&#x17f;l" horiz-adv-x="1495" 
d="M987 1188q2 2 2 14q0 84 -131 84q-81 0 -145.5 -53t-106.5 -143q-132 -273 -211 -523.5t-153 -566.5q-13 -57 -24.5 -103.5t-20.5 -78.5t-15.5 -55t-12.5 -39.5t-9.5 -24.5t-7.5 -16.5t-5 -10.5q-6 -12 11 -34q57 -66 123 -66q34 0 74 20t79 57t71 98t46 134
q39 200 123 510.5t139 450.5q74 195 174 346zM1372 1442q62 0 96 -31q17 -13 31 -2q22 17 51.5 28t42.5 11q10 0 12.5 -3.5t2.5 -17.5q0 -20 -9 -47l-352 -1204q-10 -38 -10 -59q0 -33 20 -33q42 0 104.5 43.5t94.5 75.5q6 6 15 17.5t15.5 18.5t10.5 7q10 0 10 -27
q0 -56 -70 -117t-148.5 -96t-117.5 -35q-48 0 -75 20.5t-27 51.5q0 33 23 113l297 989q20 65 20 117v9q0 22 -1.5 33.5t-9.5 27.5t-28.5 23t-54.5 7q-51 -1 -109 -50t-98.5 -108.5t-63.5 -113.5q-117 -283 -185 -514t-148 -576q-29 -125 -80 -221t-105 -149t-116.5 -86.5
t-108 -43.5t-86.5 -10q-49 0 -96 18t-70 43q-122 -141 -201 -141t-154 28.5t-75 61.5q0 36 26 72.5t48 36.5q21 0 48.5 -25t61 -50.5t70.5 -25.5q77 0 107 55t83 260q10 38 15 58q63 243 150 535.5t139 425.5q48 124 105.5 219.5t112.5 152.5t114.5 93.5t109 49.5t98.5 13
q131 0 170 -49q11 -14 23 -2q78 70 134 96.5t138 26.5z" />
    <glyph glyph-name="longs_longs_i" unicode="&#x17f;&#x17f;i" horiz-adv-x="1531" 
d="M958 1188q3 3 3 14q0 40 -24.5 62t-94.5 22q-81 0 -146.5 -53.5t-107.5 -142.5q-54 -116 -101.5 -241t-76.5 -210t-66.5 -227.5t-50.5 -196.5t-51 -215q-58 -243 -95 -328q-6 -12 11 -34q57 -66 123 -66q23 0 36.5 1t34 7t33.5 18t31 34.5t32 55t30 81t32 112.5
q57 233 140.5 532t133.5 429q74 195 174 346zM1352 1442q65 0 121.5 -13.5t98.5 -50t42 -90.5q0 -40 -27.5 -70t-66.5 -30q-31 0 -46.5 21.5t-15.5 47.5q0 48 -34 80t-105 31q-53 -1 -98 -23.5t-81 -64.5t-62.5 -85.5t-55.5 -104.5q-68 -144 -120.5 -281t-96.5 -293
t-66 -244.5t-65 -271.5q-29 -126 -76 -222t-96 -149t-105.5 -86t-99 -43t-82.5 -10q-49 0 -96 18t-70 43q-122 -141 -201 -141t-154 28.5t-75 61.5q0 36 26 72.5t48 36.5q21 0 48.5 -25t61 -50.5t70.5 -25.5q81 0 112 59.5t87 290.5q4 15 6 23q57 233 140.5 532t133.5 429
q48 124 105.5 219.5t112 152.5t114 93.5t109 49.5t98.5 13q119 0 158 -49q6 -8 10 -8.5t12 6.5q78 70 136 96.5t145 26.5zM1096 156l147 397q33 98 0 98q-38 0 -137 -47q-6 -3 -18.5 0.5t-12.5 9.5q0 17 19 31q162 115 333 211q8 4 16 6t15.5 -0.5t7.5 -13.5q0 -32 -20 -90
l-211 -582q-10 -29 -10 -59q0 -33 20 -33q30 0 86 38.5t89 68t55 51.5q4 4 8 4q12 0 12 -10q0 -55 -42 -107.5t-99.5 -85t-111.5 -52.5t-83 -20q-86 0 -86 72q0 53 23 113z" />
    <glyph glyph-name="longs_i" unicode="&#x17f;i" horiz-adv-x="1099" 
d="M78 -119q184 725 276 961q60 156 132.5 274t146 188t145.5 104t142 34q65 0 121.5 -13.5t98.5 -50t42 -90.5q0 -40 -28 -70t-67 -30q-31 0 -46 21.5t-15 47.5q0 48 -34 80t-105 31q-53 -1 -98 -23.5t-81 -64.5t-62.5 -85.5t-55.5 -104.5q-84 -178 -151 -373t-99 -317.5
t-84 -340.5q-9 -39 -14 -59q-29 -127 -73 -230.5t-90 -168.5t-95.5 -109.5t-91 -63t-76.5 -18.5q-76 0 -136.5 28t-60.5 62q0 36 26 72.5t48 36.5q21 0 48.5 -25t61 -50.5t70.5 -25.5q39 0 69.5 29t65 113t70.5 231zM664 156l147 397q33 98 0 98q-38 0 -137 -47
q-6 -3 -18.5 0.5t-12.5 9.5q0 17 19 31q162 115 333 211q8 4 16 6t15.5 -0.5t7.5 -13.5q0 -32 -20 -90l-211 -582q-10 -29 -10 -59q0 -33 20 -33q30 0 86 38.5t88.5 68t54.5 51.5q4 4 9 4q12 0 12 -10q0 -55 -42 -107.5t-99.5 -85t-111.5 -52.5t-83 -20q-86 0 -86 72
q0 53 23 113z" />
    <glyph glyph-name="longs_longs" unicode="&#x17f;&#x17f;" horiz-adv-x="942" 
d="M958 1188q3 3 3 14q0 40 -24.5 62t-94.5 22q-81 0 -146.5 -53.5t-107.5 -142.5q-54 -116 -101.5 -241t-76.5 -210t-66.5 -227.5t-50.5 -196.5t-51 -215q-58 -243 -95 -328q-6 -12 11 -34q57 -66 123 -66q23 0 36.5 1t34 7t33.5 18t31 34.5t32 55t30 81t32 112.5
q57 233 140.5 532t133.5 429q74 195 174 346zM215 -510q-49 0 -96 18t-70 43q-122 -141 -201 -141t-154 28.5t-75 61.5q0 36 26 72.5t48 36.5q21 0 48.5 -25t61 -50.5t70.5 -25.5q81 0 112 59.5t87 290.5q4 15 6 23q57 233 140.5 532t133.5 429q48 124 105.5 219.5
t112 152.5t114 93.5t109 49.5t98.5 13q119 0 158 -49q6 -8 10 -8.5t12 6.5q71 64 145.5 95.5t135.5 31.5q78 0 128.5 -25t49.5 -88q0 -40 -27.5 -82.5t-58.5 -42.5q-17 0 -29 18t-12 40q0 40 -31.5 68t-101.5 28q-133 -2 -250 -272q-122 -279 -197.5 -527.5t-148.5 -562.5
q-29 -126 -76 -222t-96 -149t-105.5 -86t-99 -43t-82.5 -10z" />
    <glyph glyph-name="longs_l" unicode="&#x17f;l" horiz-adv-x="1013" 
d="M907 1145q21 68 21 117q0 41 -30 70.5t-99 29.5q-38 -1 -76 -28.5t-68.5 -73t-51.5 -85.5t-40 -85q-41 -99 -78.5 -205t-60 -175t-55.5 -193t-43 -162.5t-44.5 -186.5t-39.5 -168q-29 -127 -73 -230.5t-90 -168.5t-95.5 -109.5t-91 -63t-76.5 -18.5q-76 0 -136.5 28
t-60.5 62q0 36 26 72.5t48 36.5q21 0 48.5 -25t61 -50.5t70.5 -25.5q39 0 69.5 29t65 113t70.5 231q17 66 72.5 301.5t100 405t77.5 254.5q128 332 244.5 466t295.5 134q85 0 119 -31q17 -13 31 -2q22 17 51.5 28t42.5 11q9 0 11.5 -3t2.5 -18q0 -23 -8 -47l-352 -1204
q-10 -38 -10 -59q0 -33 20 -33q42 0 104.5 43.5t94.5 75.5q6 6 15 17.5t15.5 18.5t10.5 7q10 0 10 -27q0 -56 -70 -117t-148.5 -96t-117.5 -35q-48 0 -75 20.5t-27 51.5q0 36 22 113z" />
    <glyph glyph-name="longs_s" unicode="&#x17f;s" horiz-adv-x="995" 
d="M928 848q43 0 73.5 -27.5t30.5 -48.5t-19.5 -53.5t-37.5 -32.5q-12 0 -27 17t-38.5 34t-55.5 17q-34 0 -58 -28.5t-24 -72.5q0 -26 21.5 -86.5t46.5 -101.5t43 -104t18 -109q0 -77 -61.5 -143.5t-148.5 -102t-171 -35.5q-49 0 -79.5 28t-30.5 62q0 24 21 59.5t36 35.5
q10 0 27 -13.5t34.5 -29.5t51 -29.5t73.5 -13.5q51 0 83 36t34 87q3 102 -49 196q-66 122 -66 174q0 58 32 113t76.5 91.5t89.5 58.5t75 22zM588 1090q-122 -279 -197.5 -527.5t-148.5 -562.5q-29 -127 -73 -230.5t-90 -168.5t-95.5 -109.5t-91 -63t-76.5 -18.5
q-76 0 -136.5 28t-60.5 62q0 36 26 72.5t48 36.5q21 0 48.5 -25t61 -50.5t70.5 -25.5q39 0 69.5 29t65 113t70.5 231q57 233 140.5 532t133.5 429q60 155 132 274.5t142.5 189.5t136.5 105t124 35q37 0 71 -5t67 -16.5t53 -35t20 -56.5q0 -40 -27.5 -82.5t-58.5 -42.5
q-17 0 -29 18t-12 40q0 40 -31.5 68t-101.5 28q-133 -2 -250 -272z" />
    <glyph glyph-name="f_h" unicode="fh" horiz-adv-x="1527" 
d="M754 850l88 295q20 65 20 117q0 38 -40 69t-111 31q-51 -1 -98 -37.5t-76 -82t-52 -101.5q-10 -26 -44 -138t-40 -139q-2 -6 -2 -16q0 -29 33 -29l295 6q20 0 27 25zM545 154l172 577q3 17 -15 17l-264 -7q-47 -1 -62.5 -12t-21.5 -41l-164 -688q-37 -156 -92.5 -275.5
t-114.5 -185t-113.5 -97.5t-100.5 -32q-187 0 -187 103q0 36 24.5 63t55.5 27q13 0 30 -17.5t33 -38t45 -38t64 -17.5q62 0 101 83t96 306q199 782 205 813q5 21 -1.5 29t-27.5 8l-135 -2q-27 0 -27 25q0 18 12 35t27 18l162 8q10 0 14.5 5.5t7.5 21.5q32 132 83.5 238.5
t108 173t120 111.5t118 63t103.5 18q31 0 68.5 -9.5t54.5 -25.5q16 -12 30 -2q22 17 52 28t43 11q9 0 11.5 -3t2.5 -18q0 -20 -8 -47l-303 -946q-4 -14 3 -16t15 8q346 436 571 436q60 0 87.5 -43t27.5 -137q0 -62 -17 -138.5t-47 -155.5t-75.5 -154t-98 -133.5t-118 -94
t-133.5 -35.5q-36 0 -62 21.5t-26 54.5q0 20 18 39.5t37 19.5q25 0 59 -25.5t56 -25.5q49 0 100.5 75t88 178.5t60 207t23.5 164.5q0 38 -13.5 67t-33.5 29q-92 0 -270 -178q-59 -58 -162.5 -195.5t-161.5 -242.5q-17 -31 -37 -69.5t-30 -57.5t-21.5 -37.5t-20 -25.5
t-18.5 -7q-14 0 -24.5 24.5t-10.5 45.5q0 35 27 121z" />
    <glyph glyph-name="f_k" unicode="fk" horiz-adv-x="1421" 
d="M772 850l88 295q23 75 23 117q0 38 -42.5 69t-113.5 31q-75 -1 -140.5 -68.5t-101.5 -152.5q-10 -26 -44 -138t-40 -139q-2 -6 -2 -16q0 -29 33 -29l313 6q20 0 27 25zM1057 1378l-248 -833q-4 -21 2.5 -21t15.5 13q105 140 228.5 225.5t201.5 85.5q144 0 144 -88
q0 -55 -45 -117.5t-111 -113.5t-136 -90t-124 -54q-18 -5 -10 -23l94 -223q10 -24 28 -41.5t40 -17.5q36 0 76.5 33.5t70.5 81.5q17 30 33 30q3 0 6.5 -6.5t3.5 -13.5q0 -47 -27.5 -94.5t-66 -80t-77 -53t-62.5 -20.5q-85 0 -129 100l-78 217q-13 38 -38 64.5t-56 26.5
q-12 0 -30.5 -30.5t-25.5 -55.5q-50 -162 -80 -246q-17 -48 -26 -56t-27 -8q-15 0 -33 21.5t-18 40.5q0 27 27 121l155 579q3 17 -14 17l-283 -7q-47 -1 -62.5 -12t-21.5 -41l-164 -688q-37 -156 -92.5 -275.5t-114.5 -185t-113.5 -97.5t-100.5 -32q-187 0 -187 103
q0 36 24.5 63t55.5 27q13 0 30 -17.5t33 -38t45 -38t64 -17.5q62 0 101 83t96 306q199 782 205 813q5 21 -1.5 29t-27.5 8l-135 -2q-27 0 -27 25q0 18 12 35t27 18l162 8q10 0 14.5 5.5t7.5 21.5q32 132 83.5 238.5t108 173t120 111.5t118 63t103.5 18q31 0 68.5 -9.5
t54.5 -25.5q16 -12 30 -2q22 17 52 28t43 11q9 0 11.5 -3t2.5 -18q0 -30 -6 -49zM1260 709q0 53 -80 53q-53 0 -133 -66t-136.5 -141t-56.5 -104q0 -13 7 -24t18 -11q61 0 131 31.5t124 76.5t90 96t36 89z" />
    <glyph glyph-name="f_b" unicode="fb" horiz-adv-x="1527" 
d="M772 850l88 295q23 75 23 117q0 38 -42.5 69t-113.5 31q-75 -1 -140.5 -68.5t-101.5 -152.5q-10 -26 -44 -138t-40 -139q-2 -6 -2 -16q0 -29 33 -29l313 6q20 0 27 25zM1190 760q-99 0 -330 -281q-61 -74 -103 -160t-42 -133q0 -63 27 -91.5t81 -28.5q44 0 119 59
t139 145q74 97 126.5 207t52.5 154q0 49 -16.5 89t-53.5 40zM735 731q3 17 -14 17l-283 -7q-47 -1 -62.5 -12t-21.5 -41l-164 -688q-37 -156 -92.5 -275.5t-114.5 -185t-113.5 -97.5t-100.5 -32q-187 0 -187 103q0 36 24.5 63t55.5 27q13 0 30 -17.5t33 -38t45 -38t64 -17.5
q62 0 101 83t96 306q199 782 205 813q5 21 -1.5 29t-27.5 8l-135 -2q-27 0 -27 25q0 18 12 35t27 18l162 8q10 0 14.5 5.5t7.5 21.5q32 132 83.5 238.5t108 173t120 111.5t118 63t103.5 18q31 0 68.5 -9.5t54.5 -25.5q16 -12 30 -2q22 17 52 28t43 11q9 0 11.5 -3t2.5 -18
q0 -8 1.5 -15.5t1 -13.5t-4.5 -18q-154 -541 -256 -868q-13 -41 16 -13l13 15q271 332 434 332q56 0 91.5 -51t35.5 -138q0 -69 -34.5 -158.5t-98 -178.5t-143 -165t-179 -123.5t-195.5 -47.5q-71 0 -113 46.5t-42 121.5q0 18 1 35t2 30t4 30.5t4.5 27t7 29.5t7.5 27.5
t10 31t10.5 30.5t12.5 36t13 38z" />
    <glyph glyph-name="f_t" unicode="ft" horiz-adv-x="1077" 
d="M461 819q100 4 289 0q22 0 30.5 5t18.5 28l41 84q16 31 55 61.5t55 30.5q11 0 17 -8.5t5.5 -20.5t-2 -21.5t-3.5 -14.5l-45 -121q-4 -13 2 -18t24 -5q55 0 154 -16q30 -6 38.5 -12.5t8.5 -18.5q0 -4 -3 -8.5t-12.5 -9.5t-23.5 -6q-70 -7 -176 -7q-21 0 -40.5 -7.5
t-23.5 -20.5l-168 -510q-11 -29 -1 -55.5t38 -26.5q26 0 53.5 12t40 21.5t46.5 35.5q40 31 54 19q3 -3 3 -8q0 -30 -35 -62q-71 -67 -164 -117.5t-137 -50.5q-34 0 -51 17.5t-17 58.5q0 27 29 115l187 555q4 12 -3 18t-18 6q-105 7 -260 0q-17 0 -30 -1.5t-21.5 -5t-13.5 -5
t-8.5 -8.5l-4.5 -9t-3 -11.5t-3 -12.5l-164 -688q-30 -126 -73 -229t-87.5 -168.5t-93 -110.5t-90.5 -63.5t-78 -18.5q-186 0 -186 103q0 36 24.5 63t55.5 27q13 0 30 -17.5t33 -38t45 -38t64 -17.5q62 0 100.5 82.5t95.5 306.5q199 782 205 813q5 21 -1 29t-27 8l-136 -2
q-26 0 -26 25q0 18 12 35t27 18l161 8q18 0 23 27q32 132 83.5 238.5t108 173t119.5 111.5t117.5 63t103.5 18q179 0 179 -113q0 -40 -27.5 -82.5t-58.5 -42.5q-25 0 -25 58q0 37 -43 66.5t-115 29.5q-39 -1 -75 -21t-64 -54t-48.5 -69.5t-37.5 -76.5q-10 -26 -44 -138
t-40 -139q-2 -6 -2 -16q0 -29 33 -29z" />
    <glyph glyph-name="f_j" unicode="fj" horiz-adv-x="1011" 
d="M780 649q15 41 10.5 63t-12 29t-16.5 7l-295 -7q-17 0 -30 -1.5t-21.5 -5t-13.5 -5t-8.5 -8.5l-4.5 -9t-3 -11.5t-3 -12.5l-164 -688q-30 -126 -73 -229t-87.5 -168.5t-93 -110.5t-90.5 -63.5t-78 -18.5q-186 0 -186 103q0 36 24.5 63t55.5 27q13 0 30 -17.5t33 -38
t45 -38t64 -17.5q62 0 100.5 82.5t95.5 306.5q199 782 205 813q5 21 -1 29t-27 8l-136 -2q-26 0 -26 25q0 18 12 35t27 18l161 8q18 0 23 27q32 131 86.5 238t114.5 172.5t127.5 110t124.5 62t106 17.5q65 0 121.5 -13.5t98.5 -50t42 -90.5q0 -40 -27.5 -70t-66.5 -30
q-31 0 -46 21.5t-15 47.5q0 47 -37 79t-109 32q-78 -2 -170.5 -92t-153.5 -212.5t-61 -215.5q0 -29 29 -29l325 2q84 0 148 35q9 6 22 1t13 -21q0 -32 -15 -78l-288 -967q-46 -154 -167 -262.5t-233 -108.5q-69 0 -110 23.5t-41 54.5q0 22 26 56t47 34q16 0 32.5 -13t30 -29
t39 -29t56.5 -13q97 0 156 201z" />
    <glyph glyph-name="longs_j" unicode="&#x17f;j" horiz-adv-x="1011" 
d="M14 -119q182 717 277 961q60 156 132 274t146 188t145.5 104t141.5 34q65 0 121.5 -13.5t98.5 -50t42 -90.5q0 -40 -27.5 -70t-66.5 -30q-31 0 -46 21.5t-15 47.5q0 48 -34.5 80t-105.5 31q-53 -1 -98 -23.5t-81 -64.5t-62.5 -85.5t-55.5 -104.5q-84 -178 -151 -373
t-99 -317.5t-84 -340.5q-9 -39 -14 -59q-29 -127 -73 -230.5t-90 -168.5t-95.5 -109.5t-91 -63t-76.5 -18.5q-76 0 -136 28t-60 62q0 36 25.5 72.5t47.5 36.5q21 0 48.5 -25t61.5 -50.5t71 -25.5q39 0 69 29t64.5 113t70.5 231zM748 553q29 98 0 98q-39 0 -138 -47
q-6 -3 -18 0.5t-12 9.5q0 18 18 31q159 113 334 211q8 4 16 6t15.5 -0.5t7.5 -13.5q0 -10 -2 -22t-4.5 -20l-7.5 -24t-7 -24l-288 -967q-46 -154 -167 -262.5t-233 -108.5q-69 0 -110 23.5t-41 54.5q0 22 26 56t47 34q16 0 32.5 -13t30 -29t39 -29t56.5 -13q97 0 156 201z
" />
    <glyph glyph-name="longs_b" unicode="&#x17f;b" horiz-adv-x="1421" 
d="M1178 760q-42 0 -146 -86t-194 -195q-61 -74 -103.5 -160.5t-42.5 -132.5q0 -120 109 -120q44 0 119 59t139 145q74 97 126 206.5t52 154.5q0 129 -59 129zM1051 1380q-167 -541 -269 -868q-13 -41 16 -13l13 15q271 332 434 332q56 0 91.5 -51t35.5 -138q0 -57 -25 -130
t-68 -147.5t-105.5 -146t-132.5 -126.5t-153.5 -89t-164.5 -34q-71 0 -110.5 46.5t-39.5 121.5q0 22 1.5 43t2.5 36t6 37.5t7 33t9.5 38t10.5 36.5t14 44t15 47l213 678q12 41 12 117q0 41 -30 70.5t-99 29.5q-122 -2 -235 -272q-35 -85 -66 -167t-58.5 -171t-46 -148.5
t-44 -160t-35.5 -141.5t-37.5 -156.5t-34.5 -145.5q-29 -127 -73 -230.5t-90 -168.5t-95.5 -109.5t-91 -63t-76.5 -18.5q-76 0 -136 28t-60 62q0 36 25.5 72.5t47.5 36.5q21 0 48.5 -25t61.5 -50.5t71 -25.5q39 0 69 29t64.5 113t70.5 231q17 66 72.5 301.5t100 405
t77.5 254.5q65 167 121 276t120 184t136 107.5t164 32.5q85 0 119 -31q16 -12 30 -2q22 17 52 28t43 11q9 0 11.5 -3t2.5 -18q0 -10 -1.5 -17t-5 -15.5t-5.5 -14.5z" />
    <glyph glyph-name="longs_h" unicode="&#x17f;h" horiz-adv-x="1564" 
d="M1059 1380l-271 -946q-4 -14 3.5 -16t15.5 8q346 436 571 436q60 0 87.5 -43t27.5 -137q0 -62 -17 -138.5t-47 -155.5t-75.5 -154t-98 -133.5t-118 -94t-133.5 -35.5q-36 0 -62.5 21.5t-26.5 54.5q0 20 18.5 39.5t37.5 19.5q25 0 58.5 -25.5t55.5 -25.5q49 0 101 75
t88.5 178.5t60 207t23.5 164.5q0 38 -13.5 67t-33.5 29q-93 0 -271 -178q-59 -57 -162 -194.5t-161 -243.5q-17 -31 -37 -69.5t-30 -57.5t-21.5 -37.5t-20 -25.5t-18.5 -7q-14 0 -24.5 24.5t-10.5 45.5q0 27 27 121l288 989q21 75 21 119q0 41 -30 70.5t-99 29.5
q-39 -1 -81 -29t-76.5 -71.5t-61 -87.5t-43.5 -84q-35 -85 -66 -167t-58.5 -171t-46 -148.5t-44 -160t-35.5 -141.5t-37.5 -156.5t-34.5 -145.5q-29 -127 -73 -230.5t-90 -168.5t-95.5 -109.5t-91 -63t-76.5 -18.5q-76 0 -136 28t-60 62q0 36 25.5 72.5t47.5 36.5
q21 0 48.5 -25t61.5 -50.5t71 -25.5q39 0 69 29t64.5 113t70.5 231q17 66 72.5 301.5t100 405t77.5 254.5q125 323 257 461.5t315 138.5q34 0 51 -6.5t37 -24.5q16 -12 30 -2q22 17 52 28t43 11q9 0 11.5 -3t2.5 -18q0 -34 -4 -47z" />
    <glyph glyph-name="longs_k" unicode="&#x17f;k" horiz-adv-x="1417" 
d="M1053 1378l-248 -833q-4 -21 2.5 -21t15.5 13q105 140 228.5 225.5t201.5 85.5q144 0 144 -88q0 -55 -45 -117.5t-111 -113.5t-136 -90t-124 -54q-18 -5 -10 -23l94 -223q10 -24 28 -41.5t40 -17.5q36 0 76.5 33.5t70.5 81.5q17 30 33 30q3 0 6.5 -6.5t3.5 -13.5
q0 -47 -27.5 -94.5t-66 -80t-77 -53t-62.5 -20.5q-85 0 -129 100l-78 217q-13 38 -38.5 64.5t-56.5 26.5q-12 0 -30 -30.5t-25 -55.5q-50 -162 -80 -246q-17 -48 -26 -56t-27 -8q-15 0 -33 21.5t-18 40.5q0 31 26 121l289 989q23 86 23 121q0 41 -30 70.5t-99 29.5
q-39 -1 -80 -29t-75 -71.5t-60 -87.5t-43 -84q-35 -85 -66 -167t-58.5 -171t-46 -148.5t-44 -160t-35.5 -141.5t-37.5 -156.5t-34.5 -145.5q-29 -127 -73 -230.5t-90 -168.5t-95.5 -109.5t-91 -63t-76.5 -18.5q-76 0 -136 28t-60 62q0 36 25.5 72.5t47.5 36.5q21 0 48.5 -25
t61.5 -50.5t71 -25.5q39 0 69 29t64.5 113t70.5 231q17 66 72.5 301.5t100 405t77.5 254.5q125 325 253 462.5t310 137.5q63 0 97 -31q16 -12 30 -2q22 17 52 28t43 11q9 0 11.5 -3t2.5 -18q0 -11 -10 -49zM1255 709q0 53 -79 53q-53 0 -133 -66t-136.5 -141t-56.5 -104
q0 -13 6.5 -24t17.5 -11q61 0 131 31.5t124 76.5t90 96t36 89z" />
    <glyph glyph-name="f_f_b" unicode="ffb" horiz-adv-x="1904" 
d="M936 1188q2 2 2 14q0 35 -43 59.5t-117 24.5q-47 -1 -92 -31.5t-78 -75.5t-62 -103.5t-47 -110t-30 -101.5q-2 -6 -2 -16q0 -29 33 -29l274 12q18 0 23 27q46 189 139 330zM506 741q-41 -1 -59 -14t-25 -39l-164 -688q-46 -193 -123 -334q-8 -17 0 -28q57 -66 123 -66
q224 0 301 309q199 799 205 830q5 21 -1.5 29t-27.5 8zM1262 850q19 0 26 24l82 271q21 68 21 117q0 37 -33 60.5t-105 23.5q-64 -1 -120 -48.5t-95.5 -124.5t-64.5 -147t-43 -145q-2 -6 -2 -17q0 -28 33 -28zM1710 760q-42 0 -146 -86t-194 -195q-61 -74 -103 -160
t-42 -133q0 -63 27 -91.5t81 -28.5q44 0 119 59t139 145q74 97 126 206.5t52 154.5q0 129 -59 129zM1171 467l78 281q3 16 -14 16l-268 -6q-17 0 -30 -1.5t-21.5 -5t-13.5 -5t-8.5 -8.5l-4.5 -9t-3 -11.5t-3 -12.5l-164 -705q-29 -124 -83.5 -220.5t-112.5 -149t-125 -86
t-115.5 -44t-89.5 -10.5q-106 0 -148 45q-54 -63 -109.5 -94t-99.5 -31q-186 0 -186 103q0 36 24.5 63t55.5 27q13 0 30 -17.5t33 -38t45 -38t64 -17.5q62 0 100.5 82.5t95.5 306.5q199 782 205 813q5 21 -1.5 29t-27.5 8l-135 -2q-26 0 -26 25q0 18 12 35t27 18l161 8
q18 0 23 27q29 117 80 211.5t107.5 152t121 96t119.5 53.5t104 15q119 0 158 -49q11 -14 23 -2q70 63 145 95t133 32q31 0 68.5 -9.5t54.5 -25.5q17 -13 31 -2q22 17 51.5 28t42.5 11q9 0 11.5 -3t2.5 -18q0 -27 -6 -47q-166 -541 -268 -868q-8 -25 0 -24q7 1 28 26
q122 150 235.5 241t199.5 91q56 0 91.5 -51t35.5 -138q0 -69 -34.5 -158.5t-98 -178.5t-143 -165t-179 -123.5t-195.5 -47.5q-70 0 -109.5 46.5t-39.5 121.5q0 35 2.5 63.5t9.5 60.5t12.5 52.5t19 65.5t21.5 73z" />
    <glyph glyph-name="f_f_h" unicode="ffh" horiz-adv-x="2031" 
d="M936 1188q2 2 2 14q0 35 -43 59.5t-117 24.5q-47 -1 -92 -31.5t-78 -75.5t-62 -103.5t-47 -110t-30 -101.5q-2 -6 -2 -16q0 -29 33 -29l274 12q18 0 23 27q46 189 139 330zM506 741q-41 -1 -59 -14t-25 -39l-164 -688q-46 -193 -123 -334q-8 -17 0 -28q57 -66 123 -66
q224 0 301 309q199 799 205 830q5 21 -1.5 29t-27.5 8zM1272 850q19 0 26 24l88 271q21 82 21 117q0 37 -32.5 60.5t-104.5 23.5q-52 -1 -101 -34t-85.5 -82.5t-68.5 -114t-51.5 -122t-33.5 -112.5q-2 -6 -2 -17q0 -28 33 -28zM1585 1380l-280 -946q-4 -14 5 -16t17 8
q183 230 331.5 333t258.5 103q60 0 87.5 -43t27.5 -137q0 -74 -23.5 -168t-68.5 -189t-103.5 -174.5t-136 -129.5t-158.5 -50q-36 0 -62 21.5t-26 54.5q0 20 18 39.5t37 19.5q25 0 59 -25.5t56 -25.5q49 0 100.5 75t88 178.5t60 207t23.5 164.5q0 38 -13.5 67t-33.5 29
q-92 0 -270 -178q-69 -67 -179 -202t-165 -236q-17 -31 -37 -69.5t-30 -57.5t-21.5 -37.5t-20 -25.5t-18.5 -7q-14 0 -24.5 24.5t-10.5 45.5q0 27 27 121l160 594q3 16 -15 16l-278 -6q-17 0 -30 -1.5t-21.5 -5t-13.5 -5t-8.5 -8.5l-4.5 -9t-3 -11.5t-3 -12.5l-164 -705
q-29 -124 -83.5 -220.5t-112.5 -149t-125 -86t-115.5 -44t-89.5 -10.5q-106 0 -148 45q-54 -63 -109.5 -94t-99.5 -31q-186 0 -186 103q0 36 24.5 63t55.5 27q13 0 30 -17.5t33 -38t45 -38t64 -17.5q62 0 100.5 82.5t95.5 306.5q199 782 205 813q5 21 -1.5 29t-27.5 8
l-135 -2q-26 0 -26 25q0 18 12 35t27 18l161 8q18 0 23 27q29 117 80 211.5t107.5 152t121 96t119.5 53.5t104 15q119 0 158 -49q11 -14 23 -2q69 62 151.5 94.5t142.5 32.5q69 0 107 -35q17 -13 31 -2q22 17 51.5 28t42.5 11q9 0 11.5 -3t2.5 -18q0 -34 -4 -47z" />
    <glyph glyph-name="f_f_j" unicode="ffj" horiz-adv-x="1458" 
d="M936 1188q2 2 2 14q0 35 -43 59.5t-117 24.5q-47 -1 -92 -31.5t-78 -75.5t-62 -103.5t-47 -110t-30 -101.5q-2 -6 -2 -16q0 -29 33 -29l274 12q18 0 23 27q46 189 139 330zM506 741q-41 -1 -59 -14t-25 -39l-164 -688q-46 -193 -123 -334q-8 -17 0 -28q57 -66 123 -66
q224 0 301 309q199 799 205 830q5 21 -1.5 29t-27.5 8zM1214 553q19 67 27.5 100t12.5 61.5t-2 38t-21 9.5l-264 -4q-17 0 -30 -1.5t-21.5 -5t-13.5 -5t-8.5 -8.5l-4.5 -9t-3 -11.5t-3 -12.5l-164 -705q-29 -124 -83.5 -220.5t-112.5 -149t-125 -86t-115.5 -44t-89.5 -10.5
q-106 0 -148 45q-54 -63 -109.5 -94t-99.5 -31q-186 0 -186 103q0 36 24.5 63t55.5 27q13 0 30 -17.5t33 -38t45 -38t64 -17.5q62 0 100.5 82.5t95.5 306.5q199 782 205 813q5 21 -1.5 29t-27.5 8l-135 -2q-26 0 -26 25q0 18 12 35t27 18l161 8q18 0 23 27q29 117 80 211.5
t107.5 152t121 96t119.5 53.5t104 15q119 0 158 -49q11 -14 23 -2q137 123 270 123q65 0 121.5 -13.5t98.5 -50t42 -90.5q0 -40 -27.5 -70t-66.5 -30q-31 0 -46.5 21.5t-15.5 47.5q0 42 -42.5 69.5t-100.5 27.5q-42 0 -79 -12t-66.5 -37t-54.5 -52.5t-45.5 -68t-35.5 -74
t-29.5 -80.5t-22.5 -76t-19 -73q-2 -6 -2 -17q0 -28 33 -28q206 0 299 8q43 1 93.5 7.5t55.5 6.5q9 0 12.5 -0.5t7 -5.5t3.5 -16q0 -32 -15 -78l-289 -967q-46 -154 -166.5 -262.5t-232.5 -108.5q-69 0 -110 23.5t-41 54.5q0 22 26 56t47 34q16 0 32.5 -13t30 -29t39 -29
t56.5 -13q97 0 156 201z" />
    <glyph glyph-name="f_f_k" unicode="ffk" horiz-adv-x="1923" 
d="M936 1188q2 2 2 14q0 35 -43 59.5t-117 24.5q-47 -1 -92 -31.5t-78 -75.5t-62 -103.5t-47 -110t-30 -101.5q-2 -6 -2 -16q0 -29 33 -29l274 12q18 0 23 27q46 189 139 330zM506 741q-41 -1 -59 -14t-25 -39l-164 -688q-46 -193 -123 -334q-8 -17 0 -28q57 -66 123 -66
q224 0 301 309q199 799 205 830q5 21 -1.5 29t-27.5 8zM1268 762l-301 -4q-17 0 -30 -1.5t-21.5 -5t-13.5 -5t-8.5 -8.5l-4.5 -9t-3 -11.5t-3 -12.5l-164 -705q-29 -124 -83.5 -220.5t-112.5 -149t-125 -86t-115.5 -44t-89.5 -10.5q-106 0 -148 45q-54 -63 -109.5 -94
t-99.5 -31q-186 0 -186 103q0 36 24.5 63t55.5 27q13 0 30 -17.5t33 -38t45 -38t64 -17.5q62 0 100.5 82.5t95.5 306.5q199 782 205 813q5 21 -1.5 29t-27.5 8l-135 -2q-26 0 -26 25q0 18 12 35t27 18l161 8q18 0 23 27q29 117 80 211.5t107.5 152t121 96t119.5 53.5t104 15
q119 0 158 -49q11 -14 23 -2q70 63 145 95t133 32q31 0 68.5 -9.5t54.5 -25.5q17 -13 31 -2q22 17 51.5 28t42.5 11q9 0 11.5 -3t2.5 -18q0 -11 -10 -49l-248 -833q-4 -21 3 -21t16 13q105 140 228.5 225.5t201.5 85.5q143 0 143 -88q0 -55 -45 -117.5t-111 -113.5t-136 -90
t-124 -54q-18 -5 -10 -23l94 -223q10 -24 28 -41.5t40 -17.5q36 0 76.5 33.5t70.5 81.5q17 30 33 30q3 0 6.5 -6.5t3.5 -13.5q0 -47 -27.5 -94.5t-66 -80t-77 -53t-62.5 -20.5q-85 0 -129 100l-78 217q-13 38 -38 64.5t-56 26.5q-12 0 -30 -30.5t-25 -55.5
q-50 -162 -80 -246q-8 -23 -11 -30t-9.5 -18t-14 -13.5t-19.5 -2.5q-15 0 -33 21.5t-18 40.5q0 27 27 121l172 589q0 1 1 3q5 18 -7 18zM1309 862l82 279q20 75 20 121q0 37 -32.5 60.5t-104.5 23.5q-64 -1 -123.5 -49t-102 -123t-72 -148.5t-46.5 -144.5q-2 -6 -2 -17
q0 -28 33 -28l333 12q12 0 14 11q1 2 1 3zM1782 709q0 53 -80 53q-53 0 -133 -66t-136.5 -141t-56.5 -104q0 -13 7 -24t18 -11q61 0 131 31.5t124 76.5t90 96t36 89z" />
    <glyph glyph-name="f_f_t" unicode="fft" horiz-adv-x="1499" 
d="M936 1188q2 2 2 14q0 35 -43 59.5t-117 24.5q-47 -1 -92 -31.5t-78 -75.5t-62 -103.5t-47 -110t-30 -101.5q-2 -6 -2 -16q0 -29 33 -29l274 6q16 0 23 33q46 189 139 330zM506 741q-41 0 -59 -13.5t-25 -39.5l-164 -688q-46 -193 -123 -334q-8 -17 0 -28q57 -66 123 -66
q224 0 301 309q199 793 205 824q5 21 -1.5 28.5t-27.5 7.5h-229zM967 737q-75 0 -84 -35l-164 -702q-29 -124 -83.5 -220.5t-112.5 -149t-125 -86t-115.5 -44t-89.5 -10.5q-106 0 -148 45q-54 -63 -109.5 -94t-99.5 -31q-186 0 -186 103q0 36 24.5 63t55.5 27q13 0 30 -17.5
t33 -38t45 -38t64 -17.5q62 0 100.5 82.5t95.5 306.5q199 782 205 813q5 21 -1.5 29t-27.5 8l-135 -2q-26 0 -26 25q0 18 12 35t27 18l161 8q18 0 23 27q29 117 80 211.5t107.5 152t121 96t119.5 53.5t104 15q119 0 158 -49q11 -14 23 -2q71 64 145 95.5t135 31.5
q178 0 178 -113q0 -40 -27.5 -82.5t-58.5 -42.5q-11 0 -16.5 9.5t-6.5 20t-1 28.5q0 39 -31.5 65.5t-101.5 26.5q-54 -1 -103 -36t-83.5 -84.5t-65.5 -118t-49 -124t-33 -114.5q-2 -6 -2 -21q0 -18 10.5 -28.5t28.5 -10.5q58 2 266 -2q22 0 30.5 5t18.5 28l41 84
q16 31 55.5 61.5t55.5 30.5q15 0 19.5 -15t2 -28.5t-5.5 -21.5l-45 -121q-4 -13 2.5 -18t24.5 -5q54 0 153 -16q30 -6 38.5 -12.5t8.5 -18.5q0 -4 -3 -8.5t-12.5 -9.5t-23.5 -6q-70 -7 -176 -7q-21 0 -40 -7.5t-23 -20.5l-168 -510q-11 -29 -1 -55.5t38 -26.5
q26 0 53.5 12.5t39 21t46.5 35.5q40 31 54 19q3 -3 3 -8q0 -30 -35 -62q-71 -67 -164 -117.5t-137 -50.5q-34 0 -50.5 17.5t-16.5 58.5q0 30 28 115l187 551q4 12 -3 18t-18 6q-41 3 -75 3t-81 -1.5t-87 -1.5z" />
    <glyph glyph-name="longs_longs_b" unicode="&#x17f;&#x17f;b" horiz-adv-x="1927" 
d="M987 1188q2 2 2 14q0 84 -131 84q-81 0 -145.5 -53t-106.5 -143q-132 -273 -211 -523.5t-153 -566.5q-13 -57 -24.5 -103.5t-20.5 -78.5t-15.5 -55t-12.5 -39.5t-9.5 -24.5t-7.5 -16.5t-5 -10.5q-6 -12 11 -34q57 -66 123 -66q34 0 74 20t79 57t71 98t46 134
q39 200 123 510.5t139 450.5q74 195 174 346zM1733 760q-42 0 -146 -86t-194 -195q-61 -74 -103.5 -160.5t-42.5 -132.5q0 -120 109 -120q44 0 119 59t139 145q74 97 126 206.5t52 154.5q0 129 -59 129zM1606 1380q-167 -541 -269 -868q-13 -41 16 -13l13 15
q271 332 434 332q56 0 91.5 -51t35.5 -138q0 -57 -25 -130t-68 -147.5t-105.5 -146t-132.5 -126.5t-153.5 -89t-164.5 -34q-70 0 -110 46.5t-40 121.5q0 22 1.5 43t2.5 36t6 37.5t7 33t9.5 38t10.5 36.5t14 44t15 47l213 678q3 11 12.5 38t14 45t4.5 34q0 100 -123 100
q-51 -1 -109 -50t-98.5 -108.5t-63.5 -113.5q-117 -283 -185 -514t-148 -576q-29 -125 -80 -221t-105 -149t-116.5 -86.5t-108 -43.5t-86.5 -10q-49 0 -96 18t-70 43q-122 -141 -201 -141t-154 28.5t-75 61.5q0 36 26 72.5t48 36.5q21 0 48.5 -25t61 -50.5t70.5 -25.5
q77 0 107 55t83 260q10 38 15 58q63 243 150 535.5t139 425.5q48 124 105.5 219.5t112.5 152.5t114.5 93.5t109 49.5t98.5 13q131 0 170 -49q11 -14 23 -2q78 70 134 96.5t138 26.5q62 0 96 -31q17 -13 31 -2q22 17 51.5 28t42.5 11q10 0 12.5 -3.5t2.5 -17.5q0 -8 1 -17
t0.5 -15t-3.5 -15z" />
    <glyph glyph-name="longs_longs_h" unicode="&#x17f;&#x17f;h" horiz-adv-x="2039" 
d="M987 1188q2 2 2 14q0 84 -131 84q-81 0 -145.5 -53t-106.5 -143q-132 -273 -211 -523.5t-153 -566.5q-13 -57 -24.5 -103.5t-20.5 -78.5t-15.5 -55t-12.5 -39.5t-9.5 -24.5t-7.5 -16.5t-5 -10.5q-6 -12 11 -34q57 -66 123 -66q34 0 74 20t79 57t71 98t46 134
q39 200 123 510.5t139 450.5q74 195 174 346zM1606 1380l-271 -946q-4 -14 3.5 -16t15.5 8q346 436 571 436q60 0 87.5 -43t27.5 -137q0 -74 -23.5 -168t-68.5 -189t-103.5 -174.5t-136 -129.5t-158.5 -50q-36 0 -62 21.5t-26 54.5q0 20 18.5 39.5t37.5 19.5
q25 0 58.5 -25.5t55.5 -25.5q49 0 101 75t88.5 178.5t60 207t23.5 164.5q0 38 -13.5 67t-33.5 29q-93 0 -271 -178q-59 -57 -162 -194.5t-161 -243.5q-17 -31 -37 -69.5t-30 -57.5t-21.5 -37.5t-20 -25.5t-18.5 -7q-14 0 -24.5 24.5t-10.5 45.5q0 31 26 121l289 989
q2 9 8.5 31t9.5 32.5t6 27t3 28.5q0 41 -30 70.5t-99 29.5q-51 -1 -109 -50t-98.5 -108.5t-63.5 -113.5q-117 -283 -185 -514t-148 -576q-29 -125 -80 -221t-105 -149t-116.5 -86.5t-108 -43.5t-86.5 -10q-49 0 -96 18t-70 43q-122 -141 -201 -141t-154 28.5t-75 61.5
q0 36 26 72.5t48 36.5q21 0 48.5 -25t61 -50.5t70.5 -25.5q77 0 107 55t83 260q10 38 15 58q63 243 150 535.5t139 425.5q48 124 105.5 219.5t112.5 152.5t114.5 93.5t109 49.5t98.5 13q131 0 170 -49q11 -14 23 -2q78 70 134 96.5t138 26.5q62 0 96 -31q17 -13 31 -2
q22 17 51.5 28t42.5 11q10 0 12.5 -3.5t2.5 -17.5q0 -8 1 -17t0.5 -15t-3.5 -15z" />
    <glyph glyph-name="longs_longs_j" unicode="&#x17f;&#x17f;j" horiz-adv-x="1486" 
d="M958 1188q3 3 3 14q0 40 -24.5 62t-94.5 22q-81 0 -146.5 -53.5t-107.5 -142.5q-54 -116 -101.5 -241t-76.5 -210t-66.5 -227.5t-50.5 -196.5t-51 -215q-58 -243 -95 -328q-6 -12 11 -34q57 -66 123 -66q23 0 36.5 1t34 7t33.5 18t31 34.5t32 55t30 81t32 112.5
q57 233 140.5 532t133.5 429q74 195 174 346zM1352 1442q65 0 121.5 -13.5t98.5 -50t42 -90.5q0 -40 -27.5 -70t-66.5 -30q-31 0 -46.5 21.5t-15.5 47.5q0 48 -34 80t-105 31q-53 -1 -98 -23.5t-81 -64.5t-62.5 -85.5t-55.5 -104.5q-68 -144 -120.5 -281t-96.5 -293
t-66 -244.5t-65 -271.5q-29 -126 -76 -222t-96 -149t-105.5 -86t-99 -43t-82.5 -10q-49 0 -96 18t-70 43q-122 -141 -201 -141t-154 28.5t-75 61.5q0 36 26 72.5t48 36.5q21 0 48.5 -25t61 -50.5t70.5 -25.5q81 0 112 59.5t87 290.5q4 15 6 23q57 233 140.5 532t133.5 429
q48 124 105.5 219.5t112 152.5t114 93.5t109 49.5t98.5 13q119 0 158 -49q6 -8 10 -8.5t12 6.5q78 70 136 96.5t145 26.5zM1243 553q29 98 0 98q-38 0 -137 -47q-6 -3 -18.5 0.5t-12.5 9.5q0 17 19 31q162 115 333 211q8 4 16 6t15.5 -0.5t7.5 -13.5q0 -20 -20 -90
l-289 -967q-46 -154 -166.5 -262.5t-232.5 -108.5q-69 0 -110.5 23.5t-41.5 54.5q0 22 26.5 56t47.5 34q16 0 32.5 -13t30 -29t39 -29t56.5 -13q96 0 155 201z" />
    <glyph glyph-name="longs_longs_k" unicode="&#x17f;&#x17f;k" horiz-adv-x="1945" 
d="M987 1188q2 2 2 14q0 84 -131 84q-81 0 -145.5 -53t-106.5 -143q-132 -273 -211 -523.5t-153 -566.5q-13 -57 -24.5 -103.5t-20.5 -78.5t-15.5 -55t-12.5 -39.5t-9.5 -24.5t-7.5 -16.5t-5 -10.5q-6 -12 11 -34q57 -66 123 -66q34 0 74 20t79 57t71 98t46 134
q39 200 123 510.5t139 450.5q74 195 174 346zM1602 1378l-248 -833q-4 -21 2.5 -21t15.5 13q105 140 228.5 225.5t201.5 85.5q144 0 144 -88q0 -55 -45 -117.5t-111 -113.5t-136 -90t-124 -54q-18 -5 -10 -23l94 -223q10 -24 27.5 -41.5t39.5 -17.5q36 0 77 33.5t71 81.5
q17 30 33 30q3 0 6.5 -6.5t3.5 -13.5q0 -61 -46.5 -121.5t-100.5 -93.5t-87 -33q-85 0 -129 100l-77 217q-13 38 -38.5 64.5t-56.5 26.5q-12 0 -30 -30.5t-25 -55.5q-50 -162 -80 -246q-17 -48 -26 -56t-27 -8q-15 0 -33 21.5t-18 40.5q0 31 26 121l289 989q3 12 12 40.5
t13 46.5t4 34q0 41 -29 70.5t-98 29.5q-51 -1 -109 -50t-98.5 -108.5t-63.5 -113.5q-117 -283 -185 -514t-148 -576q-29 -125 -80 -221t-105 -149t-116.5 -86.5t-108 -43.5t-86.5 -10q-49 0 -96 18t-70 43q-122 -141 -201 -141t-154 28.5t-75 61.5q0 36 26 72.5t48 36.5
q21 0 48.5 -25t61 -50.5t70.5 -25.5q77 0 107 55t83 260q10 38 15 58q63 243 150 535.5t139 425.5q48 124 105.5 219.5t112.5 152.5t114.5 93.5t109 49.5t98.5 13q131 0 170 -49q11 -14 23 -2q78 70 134 96.5t138 26.5q62 0 96 -31q17 -13 31 -2q22 17 51.5 28t42.5 11
q10 0 12.5 -3.5t2.5 -17.5q0 -26 -6 -49zM1804 709q0 53 -80 53q-40 0 -98.5 -40.5t-107.5 -93.5t-84 -104.5t-35 -72.5q0 -13 6.5 -24t17.5 -11q61 0 131 31.5t124 76.5t90 96t36 89z" />
    <glyph glyph-name="longs_longs_t" unicode="&#x17f;&#x17f;t" horiz-adv-x="1476" 
d="M958 1188q3 3 3 14q0 40 -24.5 62t-94.5 22q-81 0 -146.5 -53.5t-107.5 -142.5q-54 -116 -101.5 -241t-76.5 -210t-66.5 -227.5t-50.5 -196.5t-51 -215q-58 -243 -95 -328q-6 -12 11 -34q57 -66 123 -66q23 0 36.5 1t34 7t33.5 18t31 34.5t32 55t30 81t32 112.5
q57 233 140.5 532t133.5 429q74 195 174 346zM1346 1446q206 0 206 -150q0 -25 -17.5 -96t-35.5 -113l-117 -245q-6 -13 1 -18t26 -5q55 0 154 -16q30 -6 38.5 -12.5t8.5 -18.5q0 -4 -3 -8.5t-12.5 -9.5t-23.5 -6q-70 -7 -176 -7q-21 0 -40.5 -7.5t-23.5 -20.5l-168 -510
q-11 -29 -1 -55.5t38 -26.5q26 0 53.5 12.5t39 21t46.5 35.5q40 30 54 19q4 -4 4 -8q0 -30 -35 -62q-71 -67 -164 -117.5t-137 -50.5q-34 0 -51 17.5t-17 58.5q0 27 29 115l184 547q4 12 -2.5 18t-17.5 6l-82 4q-37 2 -37 29q0 4 9.5 15.5t26.5 22.5t34 11h73q22 0 30.5 6.5
t19.5 30.5l116 260q13 33 22 81.5t9 72.5q0 20 -3.5 34.5t-13.5 30t-34 23.5t-60 8q-72 -1 -148.5 -81t-127.5 -191q-87 -190 -156.5 -395.5t-102.5 -335t-87 -359.5q-29 -126 -76 -222t-96 -149t-105.5 -86t-99 -43t-82.5 -10q-49 0 -96 18t-70 43q-122 -141 -201 -141
t-154 28.5t-75 61.5q0 36 26 72.5t48 36.5q21 0 48.5 -25t61 -50.5t70.5 -25.5q81 0 112 59.5t87 290.5q4 15 6 23q57 233 140.5 532t133.5 429q48 124 105.5 219.5t112 152.5t114 93.5t109 49.5t98.5 13q119 0 158 -49q6 -8 10 -8.5t12 6.5q71 64 144.5 95.5t130.5 31.5z
" />
    <glyph glyph-name="g_y" unicode="gy" horiz-adv-x="1576" 
d="M791 -465q30 0 63.5 32.5t75.5 92.5q87 123 143.5 275.5t56.5 302.5q0 267 -53.5 406.5t-130.5 139.5q-68 0 -113.5 -7.5t-62.5 -15t-59 -28.5q-2 -1 -14 -4t-16.5 -8.5t-0.5 -15.5q3 -20 3.5 -26.5t-2 -30t-3.5 -34.5q-3 -91 -72.5 -221.5t-165.5 -189.5
q-33 -21 -77.5 -33t-67.5 -12q-6 0 -11.5 -4t-9 -8t-9 -11.5t-7.5 -9.5q-3 -3 -10.5 -10t-9 -14t-0.5 -23q1 -40 30 -72.5t90 -73.5q7 -5 102.5 -67t145.5 -98t64 -107q5 -27 10 -43t17.5 -38t36 -33t57.5 -11zM561 -510q-114 -84 -387 -84q-90 0 -177 26t-147.5 79
t-60.5 120q0 30 34 63t81.5 58.5t83 41.5t53.5 22q45 14 145 49q7 3 8.5 13t-4.5 16q-73 64 -73 135q0 15 2.5 25.5t12 21.5t15.5 16t25 19t29 22q13 9 22.5 22t1.5 17q-39 22 -84 78.5t-45 118.5q-1 68 34 151.5t90 156t133 122t155 49.5q75 0 106 -31q19 -19 48 -16
q10 0 26 8q100 45 155 55.5t152 7.5q148 -6 195 -159q69 -223 55 -551q-1 -35 8 -34.5t23 28.5q176 336 176 665q0 20 11 32.5t28 12.5q19 0 47.5 -31.5t28.5 -68.5q0 -188 -131.5 -467t-350.5 -565q-122 -159 -209 -240.5t-165 -81.5q-28 0 -62 23.5t-43 52.5q-7 29 -45 2z
M494 780q-25 0 -56.5 -19.5t-54.5 -49.5q-59 -73 -107 -190t-47 -197q1 -45 12.5 -71.5t23 -33t24.5 -6.5q51 0 102.5 53.5t87 128t58 152.5t20.5 129q-2 40 -17 72t-46 32zM279 -176q-30 15 -82 0q-277 -86 -277 -197q0 -43 55 -80.5t137.5 -58t166.5 -20.5q132 0 183.5 41
t49.5 106q-1 25 -18.5 51t-37.5 45t-57 43t-55 34.5t-54 29.5q-8 4 -11 6z" />
    <glyph glyph-name="g_g" unicode="gg" horiz-adv-x="1509" 
d="M494 760q-24 0 -55.5 -20t-55.5 -50q-61 -75 -108 -181.5t-46 -184.5q1 -45 12.5 -71.5t23 -33t24.5 -6.5q51 0 102.5 50.5t87 121t58 145.5t20.5 125q-2 40 -17 72.5t-46 32.5zM279 -176q-30 15 -82 0q-277 -86 -277 -197q0 -43 55 -80.5t137.5 -58t166.5 -20.5
q132 0 183.5 41t49.5 106q-1 25 -18.5 51t-37.5 45t-57 43t-55 34.5t-54 29.5q-8 4 -11 6zM903 -113q-88 43 -88 123q0 36 23.5 56t85.5 45q8 3 25.5 16.5t30.5 27.5t7 17q-39 22 -84 78.5t-45 118.5q-1 68 34 151.5t90 156t133 122t155 49.5q75 0 106 -31q16 -16 47 -16
q33 2 89 14t94 12q13 0 22.5 -6.5t9.5 -17.5q0 -28 -3 -50t-7.5 -33t-9.5 -11q-30 0 -76 7t-76 7h-6.5h-7.5h-7.5t-6.5 -1t-5 -3t-2.5 -5.5t1.5 -8.5q11 -35 8 -91q-3 -91 -72.5 -221.5t-165.5 -189.5q-33 -21 -77.5 -33t-67.5 -12q-22 0 -55 -40.5t-33 -51.5q0 -21 4 -35
t20.5 -29t29 -23t48.5 -30q18 -11 86 -50.5t120.5 -72t90.5 -59.5q55 -39 55 -107q0 -62 -27 -108.5t-69 -74t-103.5 -44t-120.5 -22t-130 -5.5q-91 0 -180 27.5t-144 77.5q-16 14 -21 34q0 2 -5 -4q-5 -7 -11 -14q-109 -121 -438 -121q-90 0 -177 26t-147.5 79t-60.5 120
q0 30 34 63t81.5 58.5t83 41.5t53.5 22q45 14 145 49q7 3 8.5 13t-4.5 16q-73 64 -73 135q0 15 2.5 25.5t12 21.5t15.5 16t25 19t29 22q13 9 22.5 22t1.5 17q-39 22 -84 78.5t-45 118.5q-1 68 33.5 148.5t90.5 149t133.5 114.5t154.5 46q76 0 106 -30q17 -17 48 -17
q32 2 97.5 13.5t104.5 11.5q13 0 23 -7t10 -18q0 -28 -3 -50t-7.5 -33t-9.5 -11h-179h-6.5h-7.5h-7.5t-6.5 -1t-5 -3t-2.5 -5.5t1.5 -8.5q11 -34 8 -90q-3 -88 -69 -201.5t-163 -173.5q-33 -21 -77.5 -33t-67.5 -12q-6 0 -11.5 -4t-9 -8t-9 -11.5t-7.5 -9.5q-3 -3 -10.5 -10
t-9 -14t-0.5 -23q1 -40 30 -72.5t90 -73.5q7 -5 102.5 -67t145.5 -98q10 -7 24.5 -19t32 -33t19.5 -37q6 -52 65 -99.5t149 -76t181 -28.5q47 0 81.5 5t56 15.5t34 22t18 29.5t7 32.5t0.5 36.5q-1 31 -44.5 72.5t-111.5 82.5t-117 67.5t-98 49.5zM1255 780q-24 0 -55 -19.5
t-55 -49.5q-59 -73 -107 -190t-47 -197q1 -45 12.5 -71.5t23 -33t24.5 -6.5q51 0 102.5 53.5t87 128t58 152.5t20.5 129q-2 39 -17 71.5t-47 32.5z" />
    <glyph glyph-name="g_j" unicode="gj" horiz-adv-x="1337" 
d="M616 -496q60 0 133 58.5t99 142.5l280 926q29 98 0 98q-6 0 -84 -8.5t-178.5 -17.5t-160.5 -9h-7h-7.5h-7.5t-7 -1t-5 -3t-2.5 -5.5t1.5 -8.5q11 -34 8 -90q-3 -88 -72 -205.5t-166 -177.5q-33 -21 -77.5 -33t-67.5 -12q-6 0 -11.5 -4t-9 -8t-9 -11.5t-7.5 -9.5
q-3 -3 -10.5 -10t-9 -14t-0.5 -23q1 -40 30 -72.5t90 -73.5q7 -5 102.5 -67t145.5 -98q56 -40 56 -107q0 -76 -50 -133l-5.5 -5.5t-5 -5.5t-2.5 -5t0 -4t5 -2t12 -1zM432 -594q-136 0 -239 6.5t-173 20.5t-116 32t-71 45t-34.5 55t-9.5 66q0 30 34 63t81.5 58.5t83 41.5
t53.5 22q45 14 145 49q7 3 8.5 13t-4.5 16q-73 64 -73 135q0 15 2.5 25.5t12 21.5t15.5 16t25 19t29 22q13 9 22.5 22t1.5 17q-39 22 -84 78.5t-45 118.5q-1 68 33.5 147t90.5 146t133.5 112t154.5 45q75 0 106 -31q19 -19 48 -16l99 4.5t118.5 6t113 9t117 14t94.5 20.5
t78 30q8 4 16 6t15.5 -0.5t7.5 -13.5q0 -10 -2 -22t-4.5 -20l-7.5 -24t-7 -24l-288 -967q-48 -160 -215 -272.5t-365 -112.5zM494 752q-24 0 -55.5 -20t-55.5 -50q-62 -77 -108.5 -178.5t-45.5 -179.5q1 -45 12.5 -71.5t23 -33t24.5 -6.5q51 0 102.5 49t87 118t58 143
t20.5 124q-2 40 -17 72.5t-46 32.5zM279 -176q-30 15 -82 0q-277 -86 -277 -197q0 -43 63 -80.5t153 -58t175 -20.5q110 0 155.5 42t45.5 105q0 24 -16 49.5t-36.5 45t-55 42t-56 34.5t-54.5 30q-4 2 -5.5 3t-4.5 2.5zM1343 1255q31 0 50.5 -27t19.5 -61q0 -46 -34 -81
t-79 -35q-30 0 -50.5 23.5t-20.5 55.5q0 51 32.5 88t81.5 37z" />
    <glyph glyph-name="Q_y" unicode="Qy" horiz-adv-x="2160" 
d="M1223 -479q63 0 139.5 42.5t114.5 96.5q93 131 155 281.5t62 296.5q0 108 -8.5 195.5t-21 141t-28.5 89t-31 49.5t-28 14q-29 0 -66 -46.5t-49 -86.5q-5 -16 -17 -37.5t-22 -21.5q-7 0 -12.5 17t-5.5 40q0 92 70 174t141 82q37 0 76.5 -33.5t60.5 -101.5q69 -223 55 -551
q-1 -35 8 -34.5t23 28.5q176 336 176 665q0 20 11 32.5t28 12.5q19 0 47.5 -31.5t28.5 -68.5q0 -188 -139 -467.5t-369 -564.5q-259 -322 -473 -322q-97 0 -198 32t-188 78t-173 92t-183.5 78t-189.5 32q-45 0 -94.5 -9t-83 -17.5t-39.5 -8.5q-63 0 -63 35q0 33 67 49
q281 80 475 174q100 43 43 49q-68 8 -137 45.5t-125 95t-91.5 137.5t-35.5 164q0 86 31 191q48 156 122 285.5t174 229.5t231.5 156t281.5 56q178 0 276.5 -118t98.5 -335q0 -121 -42.5 -245.5t-114.5 -232.5t-160 -199t-185 -160q-141 -99 -230.5 -143t-224.5 -89
q-22 -8 -12 -18q7 -7 27 -9q57 -7 132.5 -39t151.5 -72.5t159 -80.5t181.5 -67t192.5 -27zM956 1290q-78 0 -168 -47.5t-172.5 -132t-150 -189.5t-108 -231t-40.5 -246q0 -172 71.5 -279.5t205.5 -107.5q83 0 188.5 85.5t194 211.5t150 281t61.5 283q0 67 -11 128t-36 118.5
t-72.5 91.5t-112.5 34z" />
    <glyph glyph-name=".notdef" horiz-adv-x="1024" 
d="M102 0v969h820v-969h-820zM205 102h614v764h-614v-764z" />
    <glyph glyph-name=".null" 
 />
    <glyph glyph-name="nonmarkingreturn" horiz-adv-x="682" 
 />
    <glyph glyph-name="space" unicode=" " horiz-adv-x="512" 
 />
    <glyph glyph-name="exclam" unicode="!" horiz-adv-x="507" 
d="M532 1174q20 66 59.5 110.5t88.5 44.5q47 0 59 -47t-8 -104q-16 -51 -37 -109.5t-57 -145.5t-53 -128t-68 -159t-59 -136q-36 -80 -60 -80q-26 0 -10 80q14 66 47.5 234t57 275t40.5 165zM317 199q36 0 59 -28.5t23 -66.5q0 -54 -37.5 -93.5t-91.5 -39.5
q-35 0 -58.5 29.5t-23.5 67.5q0 54 37.5 92.5t91.5 38.5z" />
    <glyph glyph-name="quotedbl" unicode="&#x22;" horiz-adv-x="583" 
d="M664 956q51 151 88 312q9 42 59 73q22 14 28 18t21.5 12t25.5 10.5t21 2.5q10 0 13 -10t-0.5 -27t-9 -33.5t-13.5 -35.5q-69 -159 -182 -317q-12 -19 -29 -35.5t-24 -16.5q-6 3 -5 16.5t7 30.5zM414 956q57 169 90 312q4 20 21 41t36 32q22 14 28 18t21.5 12t25.5 10.5
t21 2.5q10 0 13 -10t-0.5 -27t-9 -33.5t-13.5 -35.5q-69 -159 -182 -317q-12 -19 -29 -35.5t-24 -16.5q-6 3 -5 16.5t7 30.5z" />
    <glyph glyph-name="numbersign" unicode="#" horiz-adv-x="958" 
d="M305 545l234 12l67 283l-231 -13zM274 422l-90 -367q-7 -30 -61 -30q-10 0 -17 9.5t-4 20.5l91 363l-130 -6q-11 0 -19.5 7.5t-8.5 16.5q0 10 2 23.5t6.5 31.5t15 30.5t25.5 13.5l137 6l70 282l-131 -6q-10 0 -19.5 8t-9.5 17q0 10 2 23.5t6.5 31t15 30t25.5 13.5l142 6
l86 350q7 35 67 35q10 0 13.5 -11.5t0.5 -23.5l-83 -346l231 13l88 356q7 35 68 35q10 0 13.5 -11.5t0.5 -23.5l-86 -352l121 6q11 0 20 -9.5t6 -19.5q-1 -4 -5.5 -21t-6.5 -22.5t-7 -18t-10.5 -17.5t-14 -10t-19.5 -5l-115 -6l-69 -283l124 6q11 0 20.5 -9t6.5 -19
q-1 -5 -5.5 -21.5t-6.5 -22.5t-7 -18.5t-10.5 -17.5t-14 -10t-19.5 -5l-119 -6l-88 -360q-7 -31 -62 -31q-10 0 -16.5 10t-3.5 21l88 356z" />
    <glyph glyph-name="dollar" unicode="$" horiz-adv-x="868" 
d="M885 1284q-82 -7 -157 -75t-101 -150q-34 -105 67 -217l8 -4q7 0 11 8l180 422q6 16 -8 16zM784 752q4 -4 30 -29.5t36 -36t33.5 -38.5t33.5 -47t24.5 -51t17 -60t0.5 -65t-13 -75q-20 -65 -61.5 -130.5t-103.5 -125t-152.5 -96.5t-192.5 -37q-17 0 -22 -12l-64 -156
q-11 -31 -57 -31q-12 0 -18.5 9.5t-2.5 21.5l68 162q2 5 0 9.5t-6 4.5q-39 7 -87.5 26t-56.5 21q-7 2 -11.5 4t-6.5 5t-2.5 4.5t0 6t0.5 5.5q-4 35 5.5 131t23.5 152q3 12 17.5 22t29.5 10q4 0 7.5 -24t9.5 -61.5t16 -78.5t33 -79.5t55 -59.5q3 -2 9 -1t7 5l231 551
q5 16 -12 35q-90 88 -129 175.5t-6 199.5q15 47 51.5 100t91 104t133 86.5t164.5 41.5q20 3 23 12l24 53q16 35 66 35q10 0 14.5 -11.5t-0.5 -23.5l-24 -53q-4 -11 8 -14q33 -3 60.5 -8.5t51.5 -12.5t29 -8q25 -5 21 -45q-23 -164 -41 -219q-5 -15 -16.5 -33t-18.5 -18
q-10 0 -22 15t-11 36q8 160 -92 211q-5 3 -12 -11l-197 -464q-4 -11 -4.5 -16.5t1 -7.5t7 -6t10.5 -9zM670 553l-209 -500q-5 -13 -3 -16.5t11 -3.5q112 8 181 68.5t112 201.5q21 68 -11.5 146t-70.5 114q-3 2 -5 0t-5 -10z" />
    <glyph glyph-name="percent" unicode="%" horiz-adv-x="1394" 
d="M250 -23l1192 1330q32 34 84 34q11 0 16.5 -11.5t-2.5 -22.5l-1192 -1330q-26 -30 -78 -30q-13 0 -21 9.5t1 20.5zM762 1290q57 0 94 -30t50.5 -80t10 -111.5t-23.5 -128.5q-48 -157 -156 -274t-235 -117q-59 0 -97 31t-50.5 83.5t-8 117.5t26.5 137q43 143 154.5 257.5
t234.5 114.5zM725 1235q-53 0 -117.5 -96t-95.5 -199q-22 -78 -31.5 -153t3.5 -132t53 -57t84.5 53t77 122.5t53.5 141.5q20 71 27.5 143t-5.5 124.5t-49 52.5zM1284 713q57 0 94 -30t50.5 -80.5t10 -112t-23.5 -128.5q-48 -157 -156 -274t-235 -117q-59 0 -97 31
t-50.5 83.5t-8 117.5t26.5 137q43 143 154.5 258t234.5 115zM1247 657q-53 0 -117.5 -96t-95.5 -199q-22 -78 -31.5 -153t3.5 -132t53 -57q31 0 64 30.5t61.5 79t51.5 102t38 106.5q20 71 27.5 142.5t-5.5 124t-49 52.5z" />
    <glyph glyph-name="ampersand" unicode="&#x26;" horiz-adv-x="1794" 
d="M688 1208q92 0 156.5 -45t64.5 -110q0 -49 -16.5 -78t-65.5 -29q-12 0 -26 16t-31 39t-38.5 46t-56.5 39t-77 16q-72 0 -133.5 -53t-61.5 -119q0 -60 29.5 -101t65.5 -41q16 0 62.5 5.5t70.5 5.5q20 0 35.5 -16t15.5 -35q0 -47 -38.5 -86t-74.5 -39q-21 0 -72 8t-83 8
q-93 0 -157 -67.5t-64 -153.5q0 -125 56.5 -230t151.5 -174.5t218 -108t258 -38.5q93 0 188.5 23.5t182 71t154.5 111.5t108 151t40 184q0 151 -42 259t-150 171q-35 18 -86 18q-17 0 -51.5 -16t-73 -42.5t-66.5 -69.5t-28 -89q0 -67 27 -116.5t81 -49.5q24 0 36.5 20
t12.5 48v5q0 21 0.5 32.5t4 27.5t12 23.5t22.5 7.5q52 0 86.5 -35.5t34.5 -87.5q0 -57 -42.5 -99t-98.5 -42q-113 0 -194 69.5t-81 180.5q0 63 36.5 126.5t92 111.5t121 87.5t123 62.5t98.5 29q146 23 227 61t81 70q0 51 -27 89t-72 38q-17 0 -23.5 -1t-15.5 -8t-18 -23
q-14 -25 -45 -25q-15 0 -25 11t-10 26q0 53 39 90t94 37q87 0 156 -67.5t69 -153.5q0 -49 -31 -92t-76 -70.5t-98.5 -47.5t-95.5 -29.5t-69 -10.5q-86 -4 -86 -23q0 -14 33 -34q98 -61 153 -160t55 -223q0 -168 -69.5 -316t-186 -251t-273 -162.5t-327.5 -59.5
q-140 0 -270.5 43t-232 120.5t-163 195t-61.5 255.5q0 83 29 152t75 111.5t89 67.5t86 38q14 4 16 17t-8 20q-25 20 -44 54.5t-19 72.5q0 111 58.5 193.5t149.5 122.5t199 40z" />
    <glyph glyph-name="quotesingle" unicode="'" horiz-adv-x="364" 
d="M414 956q57 169 90 312q4 20 21 41t36 32q22 14 28 18t21.5 12t25.5 10.5t21 2.5q10 0 13 -10t-0.5 -27t-9 -33.5t-13.5 -35.5q-69 -159 -182 -317q-12 -19 -29 -35.5t-24 -16.5q-6 3 -5 16.5t7 30.5z" />
    <glyph glyph-name="parenleft" unicode="(" horiz-adv-x="595" 
d="M244 551q38 124 112.5 261t160.5 252t171 207.5t156 149.5q27 23 59 23q21 0 29 -14q3 -6 1 -16.5t-9 -16.5q-71 -57 -149.5 -142t-157 -191.5t-146.5 -235.5t-106 -253q-51 -166 -63 -366.5t11 -358.5t68 -231q8 -15 -14 -37q-20 -20 -52 -20q-18 0 -26 14
q-46 75 -75.5 236t-24.5 368t55 371z" />
    <glyph glyph-name="parenright" unicode=")" horiz-adv-x="598" 
d="M682 575q-50 -164 -174.5 -377t-256.5 -380.5t-224 -241.5q-15 -12 -35 -12q-29 0 -41.5 16.5t10.5 38.5q146 118 333.5 399.5t262.5 528.5q50 164 54.5 340.5t-23.5 304.5t-76 205q-12 21 8.5 33t46.5 12q27 0 39 -21q36 -58 65 -146t46.5 -199t10 -244t-45.5 -257z" />
    <glyph glyph-name="asterisk" unicode="*" horiz-adv-x="694" 
d="M317 1276q0 13 9 21t20 8q20 0 33 -13q26 -30 71 -77t60 -64q24 73 70 178q16 31 34 31q15 0 24 -12t9 -27q0 -13 -57 -197q42 7 115.5 17t85.5 10q13 0 24.5 -11t11.5 -24t-10.5 -22.5t-23.5 -12.5l-185 -43q74 -90 115 -149q10 -13 10 -31q0 -13 -8.5 -21t-19.5 -8
q-20 0 -33 13q-26 30 -71 77t-60 64q-24 -73 -70 -178q-15 -31 -35 -31q-16 0 -25 16.5t-5 36.5q2 12 16 58t26 85l13 40q-109 -19 -201 -27q-13 -1 -25 9.5t-12 23.5q0 24 35 35l184 45q-68 82 -114 149q-11 15 -11 31z" />
    <glyph glyph-name="plus" unicode="+" horiz-adv-x="1208" 
d="M676 569q0 -7 1 -9.5t1.5 -2.5h5.5h416q11 0 20.5 -9.5t5.5 -19.5q-8 -25 -13 -36.5t-18.5 -24t-31.5 -12.5h-379q-8 0 -8 -9v-413q0 -15 -12.5 -25.5t-30.5 -15t-31.5 -6.5t-23.5 -2q-9 0 -17 9t-8 19v432q0 11 -8 11h-414q-11 0 -20 7.5t-9 16.5q0 21 13 49.5t37 28.5
h387q9 0 11.5 3.5t2.5 12.5v351q0 29 37 46t57 17q11 0 20 -8t9 -18v-392z" />
    <glyph glyph-name="comma" unicode="," horiz-adv-x="512" 
d="M92 164q0 35 37.5 58.5t91.5 23.5q50 0 84.5 -44.5t34.5 -99.5q0 -73 -32.5 -143t-81.5 -117.5t-105 -76.5t-103 -29q-49 0 -49 16q0 3 1 5t3.5 4.5t5.5 4.5t8 4.5l9 4.5t11.5 5.5t12.5 6.5q91 48 144 118t53 146q0 27 -19.5 42t-43 19t-43 16.5t-19.5 35.5z" />
    <glyph glyph-name="hyphen" unicode="-" horiz-adv-x="561" 
d="M127 348q-25 -3 -25 6q0 31 26.5 73t41.5 44l375 51q9 2 12.5 -2t3.5 -14q0 -35 -28 -70t-46 -37z" />
    <glyph glyph-name="period" unicode="." horiz-adv-x="440" 
d="M184 207q39 0 65.5 -31t26.5 -72q0 -56 -39 -94.5t-94 -38.5q-39 0 -65.5 31t-26.5 72q0 56 38.5 94.5t94.5 38.5z" />
    <glyph glyph-name="slash" unicode="/" horiz-adv-x="757" 
d="M27 -96l823 1423q20 35 84 35q10 0 15 -13t-1 -22l-823 -1423q-11 -20 -29.5 -25.5t-48.5 -5.5q-11 0 -18.5 11t-1.5 20z" />
    <glyph glyph-name="zero" unicode="0" horiz-adv-x="901" 
d="M631 848q70 0 120 -50.5t50 -121.5q0 -129 -44.5 -257t-118 -227t-176 -161t-210.5 -62q-68 0 -114 51t-46 121q0 120 43 246t114.5 228t173 167.5t208.5 65.5zM610 786q-89 0 -182 -117.5t-150 -280t-57 -296.5q0 -26 18 -43.5t44 -17.5q83 0 174 108t152 272t61 314
q0 25 -17.5 43t-42.5 18z" />
    <glyph glyph-name="one" unicode="1" horiz-adv-x="692" 
d="M250 139l166 543q5 18 6 32t0 23.5t-8.5 17.5t-11.5 12t-17.5 8t-17.5 5t-20.5 3.5t-18.5 2.5q-5 0 -19 10.5t-14 14.5q0 9 16.5 14.5t28.5 5.5q63 0 109.5 -3t78.5 -3t80.5 3t108.5 3q6 0 17 -8t11 -12q0 -8 -15 -15.5t-28 -9.5q-7 -1 -28 -5t-29.5 -6t-25 -9.5t-26 -17
t-20.5 -26.5t-18 -40q-100 -309 -166 -543q-5 -19 -6 -32.5t4.5 -22.5t12.5 -15t21.5 -10t27 -6.5t33.5 -5.5q9 -1 14 -2q10 -2 26.5 -10.5t16.5 -14.5q0 -10 -22 -18t-38 -8q-58 0 -111.5 5t-88.5 5q-40 0 -100 -5t-113 -5q-8 0 -22.5 6.5t-14.5 13.5q0 10 18 19.5t35 11.5
q29 2 46.5 5t45.5 11.5t47 28t29 49.5z" />
    <glyph glyph-name="two" unicode="2" horiz-adv-x="868" 
d="M504 133q57 0 97 23.5t75 83.5q4 7 10 17t8.5 14.5t6 10t6.5 8t7 4t9 1.5q22 0 22 -25q0 -39 -108 -245q-17 -33 -35 -33q-61 0 -153.5 4t-151.5 4q-62 0 -162 -5t-110 -5q-3 0 -9 3.5t-11.5 13t-4.5 22.5q3 23 150 123q2 1 26 17.5t42.5 29t51.5 37.5t59.5 46t60.5 51
t60 57t52.5 60t44 63t28.5 63t11 63q0 46 -32.5 70t-78.5 24q-60 0 -108 -29.5t-105 -89.5q-16 -20 -31 -20q-20 0 -20 24q0 23 25 60t66.5 75t108.5 65.5t140 27.5q70 0 131 -55.5t61 -122.5q0 -32 -8.5 -61.5t-19.5 -50t-34 -47t-37 -39.5t-44.5 -40.5t-42.5 -38.5
q-53 -49 -169.5 -137.5t-141.5 -103.5q-14 -8 2 -15q5 -2 10 -2h246z" />
    <glyph glyph-name="three" unicode="3" horiz-adv-x="704" 
d="M479 846q76 0 130.5 -57.5t54.5 -131.5q0 -88 -66.5 -164t-208.5 -151q-12 -6 -7 -11q1 -1 5 -1q47 -1 84.5 -23t58 -55t31 -66.5t10.5 -64.5q0 -86 -43 -178.5t-114 -167.5t-171 -123.5t-204 -48.5q-37 0 -62.5 12t-36 29.5t-14.5 29.5t-4 21q0 17 8.5 30t24.5 13
q4 0 17.5 -8.5t30 -19t47.5 -19t67 -8.5q88 0 156 55t101.5 139t33.5 178q0 32 -13 70.5t-43 71t-69 32.5q-54 0 -131 -41q-11 -6 -21.5 2.5t-5.5 16.5q22 39 80 69q93 51 166 105q20 14 41.5 34.5t47.5 52t43 73.5t17 84q0 40 -30.5 76t-71.5 36q-67 0 -113.5 -23
t-89.5 -83q-11 -15 -22 -15q-6 0 -12.5 10t-6.5 17q0 16 23 48.5t60.5 67.5t97.5 61t124 26z" />
    <glyph glyph-name="four" unicode="4" horiz-adv-x="987" 
d="M88 125q188 180 393.5 368t313.5 277q33 28 82 63.5t59 36.5h2q8 0 11 -8t-1 -16q-33 -83 -64 -167t-46.5 -128.5t-52.5 -156.5t-52 -156q-2 -3 0 -8t6 -5q47 0 191 8q14 0 14 -30q0 -29 -25.5 -57.5t-39.5 -28.5q-23 0 -77 -1t-77 -1q-7 0 -18 -9.5t-11 -11.5l-127 -401
q-7 -23 -36.5 -39t-53 -20.5t-35.5 -4.5q-28 0 -20 27l131 428q3 8 -8.5 13t-16.5 5q-69 0 -176 -7.5t-186 -14.5l-78 -8q-6 0 -14 6t-8 14q0 13 20 33zM571 213q8 0 17 5t10 11l129 377q1 3 -4 4q-7 2 -14 -2q-177 -158 -424 -393q-12 -15 -6 -18z" />
    <glyph glyph-name="five" unicode="5" horiz-adv-x="708" 
d="M369 49q0 43 -16 88.5t-47.5 93t-55.5 78t-62 74.5q-34 41 -34 111q0 8 9.5 29t14.5 28q5 8 52 81t63 97q29 47 88 68q70 27 153 41t125 14q19 0 19 -29t-38 -82.5t-73 -54.5q-57 -1 -108 8t-76 8q-32 0 -61 -34q-9 -12 -34.5 -51t-25.5 -44q0 -16 23 -47
q122 -155 170.5 -235.5t48.5 -159.5q0 -234 -134.5 -381t-344.5 -147q-48 0 -80 10.5t-41.5 21t-9.5 19.5q0 18 15.5 51t31.5 33q4 0 23.5 -14t55.5 -27.5t82 -13.5q131 0 199 94t68 272z" />
    <glyph glyph-name="six" unicode="6" horiz-adv-x="796" 
d="M63 231q0 101 42 218.5t113 228.5t167 215t199 181.5t215 124t211 46.5q5 0 10.5 -6t5.5 -10q0 -17 -17 -26.5t-51 -18.5q-106 -30 -232.5 -131.5t-188.5 -188.5q-20 -26 -24 -53q0 -12 7 -12q30 6 55 6q61 0 106 -37t64 -86t19 -100q0 -156 -67.5 -296.5t-189 -228.5
t-265.5 -88q-179 0 -179 262zM530 743q-68 0 -131.5 -59t-105 -144t-66 -174.5t-24.5 -154.5q0 -44 7.5 -81.5t31 -68t59.5 -30.5q47 0 104.5 51t108 132t85 193.5t34.5 223.5q0 47 -26.5 79.5t-76.5 32.5z" />
    <glyph glyph-name="seven" unicode="7" horiz-adv-x="880" 
d="M735 668q8 13 6 15q-4 4 -18 5q-13 0 -68.5 1t-76.5 1q-41 0 -135 -1t-115 -1q-56 0 -123 -80q-10 -14 -30.5 -32.5t-31.5 -18.5q-16 0 -16 27q0 16 28 65t63.5 102.5t37.5 57.5q12 22 27 22q2 0 21.5 -1.5t48 -3.5t48.5 -3q55 -2 240 -2q75 0 124 3.5t71.5 6.5t31.5 3
q3 0 8 -8.5t5 -18.5q0 -27 -82 -145l-693 -1002q-11 -17 -34.5 -29t-38.5 -12q-17 0 -25 8.5t-8 18.5q0 3 3 8.5t10 15t13.5 19t18.5 25.5l21 28z" />
    <glyph glyph-name="eight" unicode="8" horiz-adv-x="860" 
d="M563 614q37 -69 57 -111.5t38 -99t18 -100.5q0 -79 -65 -157t-160.5 -125.5t-184.5 -47.5q-83 0 -144 55.5t-61 135.5q0 101 70 192.5t256 227.5q13 9 6 26q-22 50 -33 78.5t-21.5 76.5t-10.5 95q0 89 59.5 170t149.5 128.5t180 47.5q79 0 136.5 -52.5t57.5 -129.5
q0 -90 -74.5 -172t-267.5 -217q-12 -9 -6 -21zM545 686q150 109 196.5 166.5t46.5 130.5q0 154 -141 154q-70 0 -133 -58.5t-63 -136.5q0 -88 73 -250q7 -17 21 -6zM422 539q-127 -96 -172 -173t-45 -157q0 -65 37 -112.5t96 -47.5q194 0 194 176q0 158 -88 312q-7 13 -22 2
z" />
    <glyph glyph-name="nine" unicode="9" horiz-adv-x="751" 
d="M750 586q0 -101 -39.5 -218.5t-106 -228.5t-157.5 -215t-190 -181.5t-208.5 -124t-208.5 -46.5q-20 0 -20 16q0 17 16.5 26.5t50.5 18.5q133 37 301 182t226 261q6 13 -4.5 21t-26.5 5q-30 -6 -55 -6q-91 0 -148 72t-57 151q0 133 55.5 254t157 198t223.5 77
q76 0 133.5 -80.5t57.5 -181.5zM362 147q55 0 100 37.5t73 94t47 128t26.5 134.5t7.5 118q0 53 -19.5 92.5t-61.5 39.5q-35 0 -81 -39t-90 -104.5t-74 -167t-30 -210.5q0 -50 26.5 -86.5t75.5 -36.5z" />
    <glyph glyph-name="colon" unicode=":" horiz-adv-x="528" 
d="M195 207q39 0 65.5 -31t26.5 -72q0 -56 -38.5 -94.5t-94.5 -38.5q-39 0 -66 31t-27 72q0 55 39 94t95 39zM360 784q39 0 66 -30.5t27 -71.5q0 -55 -39 -94t-95 -39q-39 0 -65.5 30.5t-26.5 71.5q0 55 38.5 94t94.5 39z" />
    <glyph glyph-name="semicolon" unicode=";" horiz-adv-x="430" 
d="M186 59q-39 4 -56.5 28t-6.5 58q12 40 52 67.5t83 27.5q69 0 95.5 -56t0.5 -143q-18 -59 -53.5 -114t-77.5 -95t-87 -70t-85.5 -46t-70.5 -17h-5q-27 0 -27 17q-1 18 25 28q4 1 9 2q79 16 150.5 71t100.5 152q8 27 -5 57t-42 33zM434 764q43 0 64.5 -33.5t7.5 -79.5
q-13 -46 -54.5 -79t-84.5 -33t-64 33t-8 79t54.5 79.5t84.5 33.5z" />
    <glyph glyph-name="less" unicode="&#x3c;" horiz-adv-x="1208" 
d="M272 469l779 -356q25 -12 37 -44.5t12 -54.5q0 -8 -7 -17t-16 -9q-1 0 -3 1t-3 1l-878 409q-30 14 -57 31t-27 25q0 17 19.5 49.5t47.5 44.5l895 409q1 0 3 1.5t3 1.5q9 0 16.5 -11t4.5 -20q-7 -26 -13 -40.5t-19 -29.5t-32 -24l-764 -357q-4 -2 -3.5 -5t5.5 -5z" />
    <glyph glyph-name="equal" unicode="=" horiz-adv-x="1208" 
d="M152 745h927q11 0 21 -9t6 -19q-6 -18 -10 -27t-11.5 -22t-18 -19t-24.5 -6h-911q-10 0 -19.5 8t-9.5 17q0 21 13 49t37 28zM152 395h927q11 0 21 -9t6 -19q-6 -18 -10 -27t-11.5 -22t-18 -19t-24.5 -6h-911q-11 0 -20 7.5t-9 16.5q0 21 13 49.5t37 28.5z" />
    <glyph glyph-name="greater" unicode="&#x3e;" horiz-adv-x="1208" 
d="M936 479l-778 357q-25 12 -37 44t-12 54q0 8 7 17.5t15 9.5q1 0 3 -1.5t3 -1.5l879 -409q84 -38 84 -55t-20 -50t-48 -45l-895 -409q-1 0 -3 -1t-3 -1q-9 0 -16 10.5t-4 19.5q8 27 13 41t18 30t32 24l764 356q4 2 3.5 5t-5.5 5z" />
    <glyph glyph-name="question" unicode="?" horiz-adv-x="647" 
d="M494 1354q120 0 190 -96t70 -242q0 -201 -162 -285l-180 -92q-48 -27 -77.5 -71t-29.5 -85q0 -21 20.5 -51.5t20.5 -38.5q0 -11 -11.5 -19.5t-19.5 -8.5q-20 0 -55 50t-35 107q0 105 63 172t204 133q190 89 190 222q0 62 -47 111.5t-115 49.5q-45 0 -73.5 -14t-38.5 -14
q-23 0 -36.5 19t-13.5 48q0 42 47.5 73.5t88.5 31.5zM272 199q36 0 59 -28.5t23 -66.5q0 -54 -37.5 -93.5t-91.5 -39.5q-35 0 -58.5 29.5t-23.5 67.5q0 54 37.5 92.5t91.5 38.5z" />
    <glyph glyph-name="at" unicode="@" horiz-adv-x="1802" 
d="M1202 145q87 0 169.5 47.5t136 131t53.5 178.5q0 196 -129 326t-334 130q-158 0 -305 -56t-256.5 -152t-175.5 -234.5t-66 -294.5q0 -109 31 -192.5t79 -133t116 -81t133.5 -43t138.5 -11.5q182 0 364 69.5t277 170.5q15 18 36 18q11 0 18.5 -23t0.5 -32
q-98 -121 -306.5 -209t-420.5 -88q-98 0 -182.5 15.5t-163 53t-133.5 96t-88 151t-33 211.5q0 137 52 267.5t145 234.5t214 183.5t266 122.5t294 43q114 0 213 -39.5t167 -107.5t107 -161.5t39 -200.5q0 -95 -40.5 -181t-114.5 -152.5t-186.5 -105.5t-246.5 -39
q-28 0 -45.5 27t-17.5 63q0 56 15 98t62 120q11 18 4 23q-4 3 -11 -7l-1 -2q-43 -61 -88 -113t-103.5 -103.5t-125.5 -81.5t-133 -30q-48 0 -84.5 20t-36.5 68q0 101 62.5 209t153 188t192.5 131.5t180 51.5q22 0 53 -15t53 -34q21 -19 31 12q29 78 55 78q25 0 43.5 -12.5
t18.5 -28.5q0 -17 -15 -51l-188 -432q-6 -18 -6 -33q0 -25 18.5 -41.5t44.5 -16.5zM1055 623q-41 0 -93 -16.5t-107 -50.5t-100.5 -80t-74.5 -112t-29 -139q0 -32 18.5 -48.5t47.5 -16.5q68 0 165 81.5t164.5 175.5t67.5 136q0 70 -59 70z" />
    <glyph glyph-name="A" unicode="A" horiz-adv-x="1581" 
d="M1311 1036l-406 -401q-8 -8 -13 -14.5t-7.5 -13.5t2.5 -10.5t16.5 -6.5t34.5 0l274 16q23 2 37.5 14.5t24.5 43.5l119 348q9 27 13 48t2.5 32.5t-7.5 11.5q-22 0 -90 -68zM1376 -10q-22 0 -118.5 6t-143.5 6q-41 0 -105 -1t-83 -1q-49 0 -49 25q0 22 75 38q54 11 83 21
t50.5 30.5t32.5 43.5t27 71l84 252q6 17 -11 27t-47 10l-370 -18q-10 0 -33.5 -10t-38.5 -27l-237 -254q-26 -28 -37.5 -52.5t-9.5 -41t10.5 -29t19 -18.5t19.5 -7q31 -4 41 -12t10 -24q0 -13 -18.5 -20t-45.5 -7q-13 0 -73 2t-99 2q-45 0 -123.5 -6t-107.5 -6q-47 0 -47 26
q0 25 75 47q61 17 130.5 57t132.5 101l966 934q24 23 50 54.5t40 48t21 16.5q29 0 94 29q15 7 38 27.5t40.5 37t21.5 16.5q5 0 8 -8.5t2.5 -23.5t-5.5 -33l-318 -1057q-54 -182 62 -205q53 -10 53 -43q0 -24 -66 -24z" />
    <glyph glyph-name="B" unicode="B" horiz-adv-x="1212" 
d="M688 702q-39 0 -62 -15.5t-36 -57.5q-77 -244 -121 -408q-19 -71 0 -106q12 -20 46.5 -42t66.5 -22q102 0 191 46t143.5 128t54.5 181q0 132 -74 214t-209 82zM518 -8q-12 0 -73.5 4t-104.5 4q-47 0 -120 -5t-130 -5q-26 0 -37.5 4.5t-11.5 17.5q0 14 18 22.5t56 14.5
q79 14 126.5 49t69.5 105l281 921q22 74 4.5 104t-86.5 44q-32 6 -43.5 13t-11.5 22q0 24 67 24q35 0 80 1t72 1q33 0 110.5 6.5t96.5 6.5q87 1 155.5 -17t110.5 -46.5t69 -67.5t37.5 -77t10.5 -79q0 -63 -31.5 -118t-82 -91t-105.5 -59.5t-111 -34.5q-16 -4 -15.5 -10.5
t9.5 -10.5q16 -5 29 -11t37 -19.5t43 -30t41 -44t36.5 -59.5t24.5 -77.5t10 -98.5q0 -119 -89.5 -212.5t-232.5 -142t-309 -48.5zM707 760q96 0 183 33t147.5 102.5t60.5 161.5q0 102 -55 162.5t-171 60.5q-51 0 -75.5 -14t-34.5 -49q-103 -361 -109 -381q-14 -48 -0.5 -62
t54.5 -14z" />
    <glyph glyph-name="C" unicode="C" horiz-adv-x="1273" 
d="M786 -29q-114 0 -221 39t-188.5 106t-130.5 165.5t-49 210.5q0 190 70.5 353.5t191 275t282.5 174.5t342 63q73 0 141 -17.5t108 -35t44 -17.5q12 0 42 16.5t46 16.5q17 0 20 -12.5t-5 -20.5q-39 -52 -82.5 -139.5t-55.5 -151.5q-3 -15 -14.5 -28t-21.5 -13q-18 0 -26 17
t-5 37q28 142 -19 204q-26 34 -78 53t-114 19q-144 0 -274.5 -69.5t-221.5 -183t-144.5 -262.5t-53.5 -304q0 -117 67.5 -215t171.5 -151.5t215 -53.5q89 0 164 64t143 174q22 37 35 37q15 0 15 -39q0 -36 -57 -167t-74 -134q-8 -2 -33.5 19.5t-48.5 21.5q-15 0 -39 -13
t-60.5 -26t-81.5 -13z" />
    <glyph glyph-name="D" unicode="D" horiz-adv-x="1583" 
d="M1427 809q0 230 -134.5 343.5t-381.5 113.5q-26 0 -51.5 -6.5t-56 -32t-43.5 -66.5l-291 -913q-16 -52 -16 -86.5t13 -55.5t48.5 -32t76.5 -14t111 -3q100 0 195 29t174.5 80t146 122.5t112.5 154.5t71.5 177t25.5 189zM686 -14q-6 0 -150 7t-233 7q-35 0 -97.5 -5
t-115.5 -5q-49 0 -49 22q0 14 20 25t54 12q47 1 78 10.5t51.5 32t31 45.5t25.5 66l307 944q5 14 5 26.5t-2.5 22.5t-10.5 18.5t-15 14.5t-20.5 11.5t-23.5 9t-27 7.5t-27.5 6t-29 5.5t-27.5 5.5q-28 6 -38.5 16t-10.5 25q0 22 61 22q57 0 149 -2t132 -2q36 0 84.5 5t112.5 5
q112 0 212 -19t187 -60t150 -100.5t99 -144.5t36 -188q0 -193 -70.5 -353t-194 -267t-291.5 -166t-362 -59z" />
    <glyph glyph-name="E" unicode="E" horiz-adv-x="1271" 
d="M506 1337q9 0 91 -3t132 -3h522q22 0 47.5 2t43 4t20.5 2q10 0 13 -4.5t3 -15.5q0 -9 -10 -39t-24 -78.5t-21 -95.5q-2 -9 -14 -22t-21 -13t-15.5 17t-6.5 30v10q0 29 -0.5 43t-5.5 36t-15 32t-29.5 18.5t-48.5 8.5h-295q-82 0 -100 -62l-141 -438q-6 -15 -2 -33t16 -18
l297 6q79 3 145 76q13 15 31.5 27t26.5 12q9 0 14.5 -10t-0.5 -23q-38 -72 -55 -120t-39 -132q-12 -35 -27 -35t-22.5 16t-7.5 31q0 43 -24.5 66.5t-51.5 25.5q-47 4 -256 4q-28 0 -43.5 -3t-31 -17.5t-23.5 -42.5l-105 -365q-51 -170 70 -170h338q27 0 51 3.5t46.5 14
t37.5 16.5t36 25.5t29 25.5t28.5 31.5t23.5 29t24 31.5q15 20 33 20q16 0 16 -25q0 -27 -29 -96.5t-57 -113.5q-21 -33 -47 -33q-161 0 -418.5 6t-339.5 6q-50 0 -127.5 -6t-128.5 -6q-49 0 -49 22q0 24 74 37q183 33 221 154l281 921q22 71 0 103.5t-92 46.5q-52 10 -52 41
q0 22 64 22z" />
    <glyph glyph-name="F" unicode="F" horiz-adv-x="1097" 
d="M434 231q-12 -42 -14 -71.5t3.5 -48t22.5 -31t35 -19t49 -12.5q30 -6 41 -14t11 -23q0 -22 -62 -22q-54 0 -112 7t-95 7q-46 0 -118.5 -7t-124.5 -7q-50 0 -50 22q0 14 18 22.5t56 14.5q75 14 112 46.5t60 107.5l281 921q19 48 11 78.5t-32 46.5t-71 25q-52 10 -52 41
q0 22 64 22q9 0 91 -3t132 -3h522q22 0 47.5 2t43 4t20.5 2q10 0 13 -4.5t3 -15.5q0 -12 -9 -39.5t-23 -75t-23 -98.5q-2 -9 -14 -22t-21 -13t-15.5 17t-6.5 30v10q0 29 -0.5 43t-5.5 36t-15 32t-29.5 18.5t-48.5 8.5h-315q-34 0 -50.5 -15.5t-29.5 -46.5q-17 -39 -141 -438
q-5 -17 -2 -34t16 -17l297 6q80 3 146 76q13 15 31 27t26 12q9 0 14.5 -10t-0.5 -23q-38 -72 -55 -120t-39 -132q-12 -35 -27 -35t-22.5 16t-7.5 31q0 43 -24.5 66.5t-51.5 25.5q-47 4 -256 4q-28 0 -43.5 -3t-31 -17.5t-23.5 -42.5z" />
    <glyph glyph-name="G" unicode="G" horiz-adv-x="1406" 
d="M1466 1288q-38 -52 -81.5 -139.5t-55.5 -151.5q-3 -15 -14.5 -28t-22.5 -13q-18 0 -25.5 16.5t-4.5 37.5q28 142 -19 204q-26 34 -78 53t-114 19q-147 0 -276 -67.5t-216 -178.5t-136.5 -253t-49.5 -291q0 -97 44.5 -183.5t115 -143t155.5 -89.5t168 -33q43 0 80 16.5
t60 42.5t37 51t20 48l57 221q9 31 -3 52.5t-38.5 30.5t-46.5 12t-41 3t-34 11.5t-13 25.5t14 23.5t35 9.5q47 0 121 -3t121 -3q34 0 86 3t86 3q9 0 18.5 -8.5t9.5 -20.5q0 -13 -16 -25.5t-35 -15.5q-46 -8 -72 -27.5t-45 -60.5q-26 -56 -49.5 -143t-23.5 -113q0 -11 8 -23.5
t15 -21.5t5 -12q-6 -14 -36 -37q-40 -34 -144.5 -74.5t-202.5 -40.5q-182 0 -322.5 63t-223 188.5t-82.5 297.5q0 176 65.5 331t180 266.5t276.5 176t348 64.5q73 0 141 -17.5t108 -35t44 -17.5q12 0 42 16.5t46 16.5q17 0 19.5 -12.5t-5.5 -20.5z" />
    <glyph glyph-name="H" unicode="H" horiz-adv-x="1613" 
d="M1327 205q-27 -74 -17 -108.5t74 -47.5q30 -6 41 -14.5t11 -22.5q0 -22 -62 -22q-54 0 -106 5t-88 5q-37 0 -95 -5t-112 -5q-49 0 -49 22q0 25 73 37q139 26 177 150l118 389q1 3 3 8.5t2.5 8.5t1 6.5t-1.5 5t-5 1.5h-727q-11 0 -16 -22l-117 -379q-20 -63 8.5 -109.5
t91.5 -58.5q30 -6 41 -14.5t11 -22.5q0 -22 -62 -22q-53 0 -116.5 5t-104.5 5q-39 0 -99 -5t-114 -5q-47 0 -47 22q0 24 74 37q73 13 105 45.5t56 108.5l283 925q25 70 16 101.5t-73 44.5q-28 6 -38.5 16t-10.5 25q0 22 61 22q54 0 107 -3t88 -3q36 0 92 3t110 3
q50 0 50 -22q0 -28 -76 -41q-73 -13 -114 -48.5t-60 -97.5l-119 -393q-3 -11 3 -14.5t17 -3.5h707q12 0 20 24l119 389q20 55 1.5 93t-83.5 51q-28 6 -38.5 16t-10.5 25q0 22 62 22q53 0 115.5 -3t103.5 -3q30 0 74.5 3t99.5 3q49 0 49 -22q0 -28 -76 -41
q-68 -12 -94.5 -43.5t-48.5 -100.5z" />
    <glyph glyph-name="I" unicode="I" horiz-adv-x="759" 
d="M563 1126q21 72 2.5 103t-86.5 45q-28 6 -38.5 16t-10.5 25q0 22 62 22q53 0 116 -3t105 -3q39 0 97.5 3t111.5 3q49 0 49 -22q0 -28 -76 -41q-78 -14 -118.5 -46t-61.5 -102l-283 -925q-21 -69 6 -103.5t99 -48.5q29 -6 40 -14.5t11 -22.5q0 -22 -62 -22q-53 0 -116 5
t-105 5q-46 0 -120 -5t-126 -5q-49 0 -49 22q0 24 74 37q80 14 128 48.5t69 103.5z" />
    <glyph glyph-name="J" unicode="J" horiz-adv-x="686" 
d="M-20 -324q126 0 225 324l344 1128q23 71 5.5 101.5t-85.5 44.5q-51 10 -51 41q0 22 63 22q53 0 115 -3t104 -3q31 0 79.5 3t103.5 3q47 0 47 -22q0 -28 -74 -41q-72 -13 -100.5 -42.5t-53.5 -103.5l-256 -837q-38 -124 -73 -217.5t-56 -142t-54.5 -96.5t-43 -59
t-47.5 -50q-129 -136 -274 -136q-86 0 -128 24.5t-42 61.5q0 40 36.5 76.5t65.5 36.5q35 0 52 -12t26 -41q18 -60 72 -60z" />
    <glyph glyph-name="K" unicode="K" horiz-adv-x="1402" 
d="M1329 -10q-58 0 -160 5t-153 5q-19 0 -54 -1t-83 -1t-48 22t62 35q60 13 66.5 28t-23.5 64l-287 480q-9 16 -32 25.5t-35 9.5q-10 0 -21 -44l-110 -393q-23 -88 -4 -125t88 -51q29 -6 40 -14.5t11 -22.5q0 -22 -62 -22q-54 0 -108 7t-90 7q-46 0 -119 -7t-125 -7
q-49 0 -49 22q0 25 73 37q76 14 115 48t62 110l282 921q21 71 2.5 101.5t-86.5 44.5q-51 10 -51 41q0 22 64 22q54 0 113 -2t98 -2q32 0 81.5 2t104.5 2q49 0 49 -22q0 -28 -76 -41q-74 -13 -98 -38t-49 -108l-117 -383q-5 -11 -6.5 -22.5t4.5 -15.5q13 0 26.5 2t25.5 6.5
t22.5 9t21.5 11t19 12t17 13t13.5 11t11 9.5t7.5 7l440 373q27 22 41.5 35.5t27 32t1.5 28.5t-45 13q-29 3 -38 13.5t-9 27.5q0 22 63 22h103q59 0 168.5 4t142.5 4q35 0 35 -22q0 -28 -76 -41q-187 -34 -330 -135q-32 -23 -65.5 -48.5t-57 -43.5t-61.5 -51t-53.5 -46.5
t-61 -55t-55.5 -50.5t-65 -61t-64 -60q-15 -15 -2 -37l321 -495q90 -139 217 -146q52 -2 52 -37q0 -22 -62 -22z" />
    <glyph glyph-name="L" unicode="L" horiz-adv-x="1267" 
d="M311 203l289 944q12 38 14.5 59t-8 34.5t-27.5 19.5t-55 14q-51 10 -51 41q0 22 62 22q53 0 113 -3t100 -3q46 0 117.5 3t123.5 3q47 0 47 -22q0 -29 -73 -41q-39 -7 -58.5 -11t-48.5 -13t-45 -20t-31 -28.5t-22 -40.5l-277 -930q-51 -170 70 -170h371q27 0 51 3.5
t46.5 14t37.5 16.5t36 25.5t29 25.5t28.5 31.5t23.5 29t24 31.5q15 20 33 20q16 0 16 -25q0 -27 -29 -96.5t-57 -113.5q-21 -33 -47 -33q-169 0 -439.5 6t-350.5 6q-50 0 -127.5 -6t-128.5 -6q-50 0 -50 22q0 24 74 37q182 33 219 154z" />
    <glyph glyph-name="M" unicode="M" horiz-adv-x="2056" 
d="M2083 1194l-303 -977q-20 -63 9 -108t97 -56q53 -8 53 -35q0 -9 -18.5 -16.5t-42.5 -7.5q-50 0 -139.5 11t-147.5 11q-46 0 -116.5 -11t-122.5 -11q-47 0 -47 24q0 12 19 23.5t52 15.5q90 10 140 47t73 109l264 752q8 24 14.5 47.5t2.5 23.5q-3 0 -34.5 -30t-43.5 -45
l-911 -941q-35 -49 -52 -49q-11 0 -8 52l82 972q7 105 -12 105q-13 0 -70 -96l-479 -820q-12 -20 -17 -39.5t-3 -39t19.5 -33.5t49.5 -19q29 -4 40 -12.5t11 -22.5q0 -24 -59 -24q-52 0 -113.5 3t-107.5 3q-31 0 -76 -6t-100 -6q-49 0 -49 20q0 27 71 39q93 17 136.5 53
t109.5 144l520 846q15 24 23.5 40t17 35.5t9 32t-3.5 26t-17.5 21.5t-35 15.5t-55 10.5t-77.5 3q-18 0 -31.5 13t-13.5 28t30.5 24t47.5 9q38 0 210.5 -5.5t194.5 -5.5q10 0 13 -11.5t0.5 -33.5t-7 -46t-9.5 -56.5t-7 -56.5l-47 -781q-3 -30 14 -30q6 0 24 8.5t27 17.5
l789 826q32 34 64 76.5t48 61.5t29 19q85 0 174.5 8.5t106.5 8.5q12 0 25.5 -7.5t13.5 -19.5q0 -17 -20 -29.5t-52 -15.5q-87 -9 -126 -28t-50 -54z" />
    <glyph glyph-name="N" unicode="N" horiz-adv-x="1677" 
d="M1638 1331q43 0 122 3t141 3q47 0 47 -22q0 -14 -21 -26t-55 -15q-81 -8 -122 -41.5t-75 -95.5q-18 -33 -138.5 -426.5t-139.5 -481.5q-2 -2 -0.5 -23t8.5 -38q9 -20 29.5 -56.5t34.5 -63.5t14 -36q0 -12 -17 -12h-149q-19 0 -36.5 16.5t-49.5 71.5l-500 846
q-10 19 -26 39t-23 20q-9 0 -21.5 -21.5t-19.5 -39.5l-238 -692q-13 -39 -18 -67.5t1 -48t14 -31.5t31 -21t41 -13t54 -10q30 -6 41 -14.5t11 -22.5q0 -22 -62 -22q-53 0 -115 5t-102 5t-100 -5t-113 -5q-49 0 -49 22q0 11 2.5 19t14.5 16.5t34 13.5q21 5 47.5 9.5t36.5 6
t25.5 8.5t21.5 14t17.5 24.5t20 39t22.5 58.5l305 803q11 30 15.5 66.5t-3.5 50.5l-68 80q-23 29 -182 49q-11 2 -27 16.5t-16 32.5q0 29 51 29q53 -1 151.5 -6t176.5 -5q8 0 14 -3.5t8 -6t6.5 -12t6.5 -12.5l569 -918q26 -39 41 -39q7 0 12 8t15 33q28 81 117.5 389
t103.5 379q5 25 -13.5 46.5t-52 35t-56.5 20t-46 11.5q-51 10 -51 41q0 22 63 22h219z" />
    <glyph glyph-name="O" unicode="O" horiz-adv-x="1458" 
d="M991 1360q97 0 186.5 -34.5t157 -93.5t108 -143.5t40.5 -179.5q0 -144 -37 -282.5t-109 -256.5t-169 -207.5t-225 -140.5t-269 -51q-99 0 -190.5 39t-157.5 105t-105 157.5t-39 190.5q0 140 38.5 274t111 246t170.5 197t224.5 132.5t264.5 47.5zM981 1286
q-119 0 -222.5 -54.5t-177 -146t-127 -209t-79 -244t-25.5 -251.5q0 -139 99 -238.5t239 -99.5q99 0 188.5 41.5t156.5 113t121.5 165.5t89 200t53 215t18.5 213q0 127 -99.5 211t-234.5 84z" />
    <glyph glyph-name="P" unicode="P" horiz-adv-x="1167" 
d="M322 4q-48 0 -124.5 -7t-127.5 -7q-50 0 -50 22q0 24 74 37q78 14 122.5 48.5t66.5 107.5l264 864q34 114 10.5 155t-125.5 50q-49 5 -49 41q0 22 61 22q10 0 91.5 -1t91.5 -1q41 0 122 5.5t105 5.5q112 0 209.5 -40.5t161 -123t63.5 -191.5q0 -105 -48.5 -195
t-128.5 -149.5t-182.5 -93t-211.5 -33.5q-86 0 -86 27q0 21 37 26q206 23 328 123t122 269q0 131 -79 228t-201 97q-50 0 -67 -17.5t-32 -68.5l-299 -977q-25 -73 -8 -119t82 -59q29 -6 40 -14.5t11 -22.5q0 -22 -61 -22q-55 0 -102.5 7t-79.5 7z" />
    <glyph glyph-name="Q" unicode="Q" horiz-adv-x="1361" 
d="M553 -4q-68 8 -137 45.5t-125 95t-91.5 137.5t-35.5 164q0 86 31 191q48 156 122 285.5t174 229.5t231.5 156t281.5 56q178 0 276 -118t98 -335q0 -121 -42.5 -245.5t-114 -232.5t-159.5 -199t-185 -160q-141 -99 -230.5 -143t-224.5 -89q-22 -8 -13 -18q7 -7 27 -9
q57 -7 107.5 -35.5t92 -64t89 -70t121.5 -58t168 -23.5q54 0 107.5 19t84 39t68.5 50q25 19 45 19q8 0 9.5 -14.5t-3.5 -18.5q-24 -33 -60 -66t-84.5 -65t-112 -52t-128.5 -20q-71 0 -131 15.5t-102.5 39.5t-81 53.5t-76.5 59.5t-79 54t-97.5 39.5t-124.5 15.5
q-45 0 -94.5 -9t-83 -17.5t-39.5 -8.5q-64 0 -64 35q0 33 68 49q281 80 475 174q100 43 43 49zM987 1290q-78 0 -168 -47.5t-172.5 -132t-150 -189.5t-108 -231t-40.5 -246q0 -172 71.5 -279.5t205.5 -107.5q83 0 188.5 85.5t194 211.5t150 281t61.5 283q0 67 -11 128
t-36 118.5t-72.5 91.5t-112.5 34z" />
    <glyph glyph-name="R" unicode="R" horiz-adv-x="1308" 
d="M451 227q-26 -73 -9 -119t82 -59q29 -6 40 -14.5t11 -22.5q0 -22 -61 -22q-55 0 -102.5 7t-79.5 7q-48 0 -124 -7t-128 -7q-49 0 -49 22q0 25 73 37q78 14 122.5 48.5t66.5 107.5l264 864q34 114 10.5 155t-125.5 50q-29 3 -45 14.5t-16 26.5q0 22 74 22q10 0 91 -1
t91 -1q41 0 122 5.5t105 5.5q81 0 151.5 -16t128 -48t91 -85.5t33.5 -123.5q0 -75 -20.5 -136.5t-49.5 -102.5t-81 -80t-94 -61.5t-110 -53.5q-28 -12 -18 -35q23 -59 93 -211t112 -233q28 -51 66 -78t73 -27q28 0 49 -7.5t21 -20.5q0 -35 -86 -35q-98 0 -159 15.5t-87 58.5
q-116 200 -207 428q-29 69 -53.5 84.5t-102.5 15.5q-46 0 -57 -33zM623 729q1 -14 -1.5 -25t2.5 -19t7 -14t10.5 -9.5t14 -5.5t17.5 -3.5t20.5 -1.5h23.5q38 0 84 10.5t99.5 38.5t96.5 68.5t72 107t29 148.5q0 116 -71 191t-179 75q-42 0 -64 -19.5t-34 -66.5
q-123 -438 -127 -475z" />
    <glyph glyph-name="S" unicode="S" horiz-adv-x="950" 
d="M438 33q97 0 176.5 66t79.5 147q0 82 -52 165t-165 210q-94 106 -144 191.5t-50 168.5q0 164 112 266.5t301 102.5q50 0 125.5 -31.5t91.5 -32.5q22 -1 43.5 10t36.5 11q13 0 19 -11t6 -22q0 -1 -5 -9.5t-13 -27.5t-18 -47t-21.5 -76.5t-20.5 -107.5q-4 -28 -15 -47
t-18 -19q-22 0 -22 70q0 137 -55 208.5t-158 71.5q-106 0 -171 -69t-65 -170q0 -136 185 -326q33 -35 43 -45t43.5 -47.5t47.5 -57.5t39.5 -58t36.5 -66.5t21 -65t10 -70.5q0 -80 -41 -146.5t-107.5 -109t-148.5 -65.5t-168 -23q-60 0 -120 14t-97.5 28t-42.5 14
q-9 0 -41.5 -13.5t-48.5 -13.5q-20 0 -20 47q0 8 17 52t39 117t32 144q3 22 10 31.5t22 9.5q16 0 20.5 -17t4.5 -62q0 -118 76.5 -203.5t189.5 -85.5z" />
    <glyph glyph-name="T" unicode="T" horiz-adv-x="1300" 
d="M670 209q-40 -136 102 -164q31 -6 41 -12.5t10 -20.5q0 -22 -61 -22q-53 0 -115.5 5t-103.5 5q-47 0 -121.5 -5t-126.5 -5q-49 0 -49 22q0 12 18 19t58 14q156 28 196 164l266 932q7 21 10 43t-1 40.5t-17 18.5h-264q-131 0 -221 -170q-19 -37 -39 -37q-12 0 -14 3t-2 20
q0 5 94 264q14 41 26 41q7 0 16 -12t29.5 -24.5t55.5 -12.5h958q26 0 48 12.5t37 24.5t22 12q4 0 8 -10.5t4 -22.5q0 -19 -16 -47q-52 -101 -72 -237q-5 -29 -23 -29q-28 0 -28 47l1 10q1 10 2 22t0 28.5t-4 32t-10.5 31.5t-19 27.5t-30.5 19t-44 7.5h-291q-30 0 -63 -102z
" />
    <glyph glyph-name="U" unicode="U" horiz-adv-x="1509" 
d="M1540 1120q-39 -106 -72.5 -205.5t-73.5 -221t-57 -173.5q-34 -101 -71.5 -179.5t-91.5 -150t-119 -118t-153.5 -74t-196.5 -27.5q-76 0 -144.5 17.5t-128 54.5t-95.5 94t-46 136.5t20 181.5l193 665q37 125 -43 150q-66 19 -66 45q0 22 78 22q27 0 85.5 -3t96.5 -3
q32 0 84 2t70 2q47 0 47 -22q0 -12 -16.5 -20.5t-57.5 -20.5q-30 -9 -69 -50.5t-56 -97.5l-178 -637q-29 -114 -20 -196t52.5 -135t106 -78t140.5 -25q87 0 160 28.5t126 76t98.5 122t77.5 152.5t64 182q33 110 125 433q25 77 25 144.5t-35 78.5q-51 16 -51 41q0 22 63 22
q29 0 71.5 -1t69.5 -1q33 0 85 3t71 3q49 0 49 -22q0 -25 -76 -41q-93 -18 -141 -154z" />
    <glyph glyph-name="V" unicode="V" horiz-adv-x="1318" 
d="M1149 1124q30 36 35.5 66t-8.5 46t-29.5 25t-28.5 11q-29 4 -39 14.5t-10 26.5q0 22 61 22q13 0 87.5 -2t113.5 -2q45 0 101.5 6t85.5 6q47 0 47 -26q0 -24 -76 -47q-144 -40 -240 -158l-757 -919q-39 -48 -84 -140q-5 -9 -75.5 -56.5t-92.5 -47.5q-11 0 -11 61q0 4 7 35
t18 81.5t18 90.5l142 854q16 100 -10.5 145t-118.5 60q-49 7 -49 47q0 20 61 20q22 0 103 -6t128 -6q41 0 107.5 1t85.5 1q49 0 49 -22q0 -25 -76 -41q-57 -11 -90 -50t-45 -116l-110 -760q-5 -21 -6.5 -35t-1 -21.5t2.5 -10.5t7 -3q21 0 73 66z" />
    <glyph glyph-name="W" unicode="W" horiz-adv-x="1998" 
d="M1841 1124q30 36 35.5 66t-8.5 46t-29.5 25t-28.5 11q-29 4 -39 14.5t-10 26.5q0 22 62 22q13 0 87 -2t113 -2q45 0 101.5 6t85.5 6q47 0 47 -26q0 -24 -76 -47q-142 -40 -239 -158l-758 -919q-154 -188 -197 -226q-21 -18 -29 -18q-16 0 -28 63q-1 4 3 33.5t12.5 78
t19.5 93.5l131 787l-670 -811q-6 -8 -25 -31t-29.5 -35.5t-29 -35.5t-30.5 -36.5t-28.5 -32.5t-27.5 -30t-22.5 -22t-19.5 -16t-13 -5q-17 0 -29 63q-1 4 3 33.5t12.5 78t19.5 93.5l141 854q16 100 -10.5 145t-118.5 60q-49 7 -49 47q0 20 61 20q22 0 103.5 -6t128.5 -6
q41 0 107 1t85 1q50 0 50 -22q0 -25 -76 -41q-57 -11 -90 -50t-45 -116l-111 -760q-5 -21 -6.5 -35t-1 -21.5t2.5 -10.5t7 -3q22 0 74 66l624 784q22 30 29 43q-6 47 -37.5 73t-97.5 36q-49 7 -49 47q0 20 61 20q28 0 122 -6t136 -6q41 0 107 6t98 6q47 0 47 -26
q0 -24 -76 -47q-79 -23 -137 -64q-27 -42 -35 -102l-110 -760q-5 -21 -6.5 -35t-1 -21.5t2.5 -10.5t7 -3q22 0 74 66z" />
    <glyph glyph-name="X" unicode="X" horiz-adv-x="1447" 
d="M1380 1331q40 0 119.5 6t102.5 6q49 0 49 -22t-76 -41q-57 -15 -147.5 -82.5t-172.5 -153.5l-276 -286q-28 -31 -35 -46t-2 -34l117 -451q31 -118 215 -174q30 -9 40.5 -18t10.5 -23q0 -22 -61 -22q-22 0 -148 6t-176 6q-43 0 -101.5 -1t-76.5 -1q-49 0 -49 23
q0 12 26.5 24.5t51.5 15.5q34 4 50.5 8t33.5 13.5t20.5 26.5t0.5 45t-15 71l-88 310q-11 38 -39 10l-316 -357q-39 -48 -27 -81.5t64 -47.5q29 -9 39 -18t10 -23q0 -22 -61 -22q-13 0 -75.5 2t-100.5 2q-46 0 -130.5 -6t-113.5 -6q-49 0 -49 22q0 14 21.5 27.5t56.5 17.5
q78 10 151 52t170 145l312 328q66 69 59 92l-121 409q-17 59 -37 96.5t-46.5 56.5t-47.5 25.5t-57 12.5q-29 4 -47.5 16.5t-18.5 26.5q0 11 25 17.5t53 6.5t132 -5t155 -5q43 0 99.5 2t68.5 2q49 0 49 -22q0 -14 -20.5 -26t-55.5 -15q-78 -6 -92 -42t20 -149l76 -256
q9 -30 23 -30q13 0 32 24l246 283q33 38 48 68.5t12 50t-14.5 31.5t-31.5 18q-49 16 -49 41q0 22 62 22q21 0 72 -1t81 -1z" />
    <glyph glyph-name="Y" unicode="Y" horiz-adv-x="1218" 
d="M455 221l92 303q11 48 9.5 75.5t-11.5 76.5l-86 393q-18 81 -40.5 124.5t-46.5 58t-65 18.5q-27 3 -42 16.5t-15 28.5q0 22 72 22q24 0 103 -3t128 -3q32 0 84 2t70 2q47 0 47 -22q0 -14 -20.5 -26t-55.5 -15q-23 -2 -35 -4.5t-24 -10t-15 -20.5t-2 -35t8 -55l74 -338
q18 -78 39 -78q10 0 27.5 16.5t58.5 61.5q138 150 246 285q45 57 59 93.5t-2 56.5t-63 26q-20 3 -35 15t-15 26q0 22 62 22q28 0 78.5 -1t81.5 -1q43 0 113 3t87 3q47 0 47 -22q0 -25 -73 -41q-49 -10 -124 -66.5t-128 -113.5q-59 -62 -190 -207t-150 -166
q-42 -45 -62.5 -86.5t-42.5 -110.5l-92 -303q-22 -69 4.5 -113.5t94.5 -58.5q29 -6 40 -14.5t11 -22.5q0 -22 -62 -22q-53 0 -116.5 5t-104.5 5q-47 0 -120.5 -5t-125.5 -5q-49 0 -49 22q0 24 74 37q158 28 203 172z" />
    <glyph glyph-name="Z" unicode="Z" horiz-adv-x="1302" 
d="M387 -4q-39 0 -115 -1t-112 -1h-148q-5 0 -6 7t0 15l2 7q4 14 59 75t109 115q55 56 172 174.5t165 167.5t141 144.5t154.5 160.5t147.5 156.5t174 187.5q31 31 -18 33q-136 4 -276 4q-193 0 -242 -4q-99 -7 -199 -172q-31 -55 -55 -55q-23 0 -23 39q0 13 19.5 56t49 104
t42.5 94q12 32 53 32q16 0 76 -4.5t96 -5.5q98 -2 324 -2q231 0 442 6q9 0 12 -14.5t-4 -22.5l-165 -166q-235 -236 -345 -348t-269.5 -279.5t-330.5 -355.5q-13 -13 -15.5 -35t11.5 -24q88 -10 213 -10q251 0 404 10q79 7 156.5 57t134.5 150q37 59 57 59q14 0 14 -43
q0 -17 -63 -130t-92 -152q-26 -35 -45 -35q-114 0 -370 3t-335 3z" />
    <glyph glyph-name="bracketleft" unicode="[" horiz-adv-x="702" 
d="M612 1311q2 7 7.5 30t10 35.5t13 29t21.5 24.5t30 8h27l313 -2q14 0 23 -9t2 -22q-7 -11 -18 -16.5t-16.5 -6t-23.5 -2.5q-37 -4 -92 -4q-19 0 -60.5 1t-68.5 1q-21 0 -38 -17t-25 -42q-93 -274 -250 -782q-22 -72 -105 -337t-133 -442q-18 -70 -13 -85t38 -15
q112 0 219 -10q20 -2 31.5 -11t5.5 -26q-7 -27 -57 -27l-310 6q-36 0 -44 12t5 50l453 1458q12 36 26.5 98t28.5 103z" />
    <glyph glyph-name="backslash" unicode="\" horiz-adv-x="614" 
d="M547 -96q3 -14 -10.5 -22.5t-30.5 -8.5q-53 0 -60 31l-313 1423q-3 13 9 24t26 11q55 0 63 -35z" />
    <glyph glyph-name="bracketright" unicode="]" horiz-adv-x="698" 
d="M889 1438q17 0 25.5 -7.5t7 -23.5t-5 -29t-11 -35.5l-10.5 -31.5q-12 -39 -34.5 -100.5t-35.5 -100.5l-438 -1458q-12 -38 -26.5 -50t-49.5 -12l-313 -6q-12 0 -21.5 1.5t-17 8t-4.5 17.5q10 33 61 37q112 10 224 10q33 0 48.5 16.5t37.5 83.5q44 137 79 249t85 280.5
t75 249.5q138 446 230 782q6 25 -1 42t-28 17q-27 0 -69.5 -1t-61.5 -1q-55 0 -88 4q-1 0 -6.5 0.5t-7.5 1t-6.5 1t-6.5 1t-5.5 2t-5 3t-3 4t-2 5.5t-0.5 7q0 13 14.5 22t28.5 9l315 2h27z" />
    <glyph glyph-name="asciicircum" unicode="^" horiz-adv-x="1024" 
d="M512 1235q315 -452 408 -610q9 -15 4 -29t-17 -14h-4q-57 14 -76 36q-26 28 -73 92.5t-83 117.5t-90 134t-61 91q-8 9 -11 9t-9 -9q-8 -11 -63 -94t-93 -138t-83 -118.5t-64 -84.5q-23 -23 -76 -36h-4q-12 0 -17 14t4 29q52 87 200 306t208 304z" />
    <glyph glyph-name="underscore" unicode="_" horiz-adv-x="952" 
d="M-37 -270h883q11 0 15.5 -9t-1.5 -20q-1 -2 -7.5 -11.5t-8 -12.5t-7.5 -10.5t-8.5 -11t-8 -9t-9.5 -8t-9.5 -6t-10.5 -4.5t-11 -1h-868q-10 0 -15.5 8t-2.5 17q7 22 27.5 50t41.5 28z" />
    <glyph glyph-name="grave" unicode="`" horiz-adv-x="526" 
d="M473 1303q6 22 32.5 39.5t51.5 17.5q63 0 78 -55q21 -82 47.5 -210.5t19.5 -148.5q-9 -26 -32 -26q-18 0 -37 45q-35 96 -79 175t-65 113t-16 50z" />
    <glyph glyph-name="a" unicode="a" horiz-adv-x="923" 
d="M614 -29q-28 0 -45.5 27t-17.5 63q0 77 86 252q18 36 6 37q-4 1 -10 -6q-190 -212 -301 -292.5t-215 -80.5q-28 0 -58 23.5t-30 48.5q0 105 80 243t190.5 255t224.5 200q44 31 103 60.5t80 29.5q16 0 36.5 -11t30.5 -27q13 -21 25 2q19 44 30 60.5t25 16.5q26 0 48 -13
t22 -28q0 -8 -15 -51l-211 -581q-13 -40 -0.5 -69.5t39.5 -29.5q15 0 64 29.5t67 50.5q12 15 30 22q20 8 20 -18q0 -13 -21 -41q-39 -59 -121 -115.5t-162 -56.5zM674 723q-47 0 -130.5 -66t-161 -155.5t-135 -187.5t-57.5 -156q0 -41 9 -52.5t39 -11.5q67 0 194.5 124
t225.5 260.5t98 178.5q0 26 -27 46t-55 20z" />
    <glyph glyph-name="b" unicode="b" horiz-adv-x="925" 
d="M731 760q-42 0 -146 -86t-194 -195q-61 -74 -103 -160t-42 -133q0 -63 27 -91.5t81 -28.5q44 0 119 59t139 145q74 97 126.5 207t52.5 154q0 129 -60 129zM406 1145q37 123 26 151q-4 13 -59.5 30.5t-55.5 25.5q0 16 13 22q44 22 133 48t115 26q32 0 32 -21q0 -29 -6 -47
q-166 -541 -268 -868q-13 -41 16 -13q5 6 13 15q271 332 434 332q56 0 91.5 -51t35.5 -138q0 -69 -34.5 -158.5t-98 -178.5t-143 -165t-179 -123.5t-195.5 -47.5q-71 0 -111 46.5t-40 121.5q0 29 2.5 57t5 45.5t11 50t12 45t18 57t19.5 60.5z" />
    <glyph glyph-name="c" unicode="c" horiz-adv-x="651" 
d="M711 768q0 -22 -21 -54t-41 -32q-15 0 -27 15t-20.5 33t-30.5 33t-55 15q-63 0 -130.5 -97t-110 -233t-42.5 -247q0 -60 19.5 -104t64.5 -44q66 0 110.5 32t98.5 97q14 19 35 19q3 0 5 -1.5t3 -5t1 -6.5t-0.5 -8.5t-0.5 -7.5q0 -11 -23 -42.5t-61.5 -68t-102.5 -64.5
t-132 -28q-70 0 -117.5 48t-46.5 155q0 63 14 135.5t41 149t71 146t98.5 124.5t129 88t158.5 33q51 0 82 -29t31 -51z" />
    <glyph glyph-name="d" unicode="d" horiz-adv-x="1050" 
d="M197 125q0 -88 51 -88q76 0 196 101t211 220q117 152 117 332q0 42 -26 74.5t-64 32.5q-47 0 -129.5 -72.5t-161.5 -174t-137 -221.5t-57 -204zM788 219q-12 -41 -5 -79t26 -38q42 0 111 51.5t106 88.5q2 2 6 2q6 0 12.5 -6t6.5 -13q0 -12 -11 -28q-92 -112 -168 -169
t-165 -57q-28 0 -41 31.5t-13 71.5q0 102 29 205q6 24 -5 24q-4 -1 -7 -4q-253 -328 -494 -328q-49 0 -86 36t-37 89q0 128 85.5 292.5t215.5 289.5q84 82 178.5 132t169.5 50q21 0 46.5 -15.5t37.5 -37.5q9 -18 16.5 -17.5t12.5 13.5l146 448q14 41 1 65t-34 33t-40.5 16.5
t-19.5 16.5q0 10 5 17t16 10.5t18.5 5t22.5 3.5q5 1 8 1q154 25 182 25q10 0 10.5 -20.5t-4.5 -37.5z" />
    <glyph glyph-name="e" unicode="e" horiz-adv-x="747" 
d="M260 -31q-67 0 -120.5 61.5t-53.5 170.5q0 75 23.5 161.5t70.5 172.5t109.5 156t148 113.5t178.5 43.5q81 0 116.5 -32t35.5 -97q0 -58 -53 -111.5t-128.5 -88t-153.5 -55t-134 -20.5q-21 0 -31 -20q-21 -44 -28 -85.5t-7 -109.5q0 -157 103 -157q66 0 124 39t97 90
q17 22 37 22t20 -20q0 -11 -4 -17q-63 -102 -154 -159.5t-196 -57.5zM586 788q-52 0 -121 -55.5t-114.5 -120.5t-45.5 -96q0 -8 2.5 -10t11.5 -2q28 0 77 12t107 35.5t99 69t41 102.5q0 65 -57 65z" />
    <glyph glyph-name="f" unicode="f" horiz-adv-x="608" 
d="M-98 -508q62 0 100.5 82.5t95.5 306.5q199 782 205 813q5 21 -1.5 29t-27.5 8l-135 -2q-26 0 -26 25q0 18 12 35t27 18l161 8q18 0 23 27q32 132 83.5 238.5t108 173t119.5 111.5t117.5 63t103.5 18q179 0 179 -113q0 -40 -27.5 -82.5t-58.5 -42.5q-25 0 -25 58
q0 37 -43 66.5t-115 29.5q-39 -1 -75 -21t-64 -54t-48.5 -69.5t-37.5 -76.5q-10 -26 -44 -138t-40 -139q-2 -6 -2 -16q0 -29 33 -29q31 0 66 1t77.5 2.5t65.5 2.5q3 0 8.5 -5.5t5.5 -8.5q0 -13 -21 -38t-32 -25l-164 -7q-17 0 -30 -1.5t-21.5 -5t-13.5 -5t-8.5 -8.5l-4.5 -9
t-3 -11.5t-3 -12.5l-164 -688q-30 -126 -73 -229t-87.5 -168.5t-93 -110.5t-90.5 -63.5t-78 -18.5q-186 0 -186 103q0 36 24.5 63t55.5 27q13 0 30 -17.5t33 -38t45 -38t64 -17.5z" />
    <glyph glyph-name="g" unicode="g" horiz-adv-x="747" 
d="M186 -135q7 3 8.5 13t-4.5 16q-73 64 -73 135q0 15 2.5 25.5t12 21.5t15.5 16t25 19t29 22q13 9 22.5 22t1.5 17q-39 22 -84 78.5t-45 118.5q-1 68 34 151.5t90 156t133 122t155 49.5q75 0 106 -31q16 -16 48 -16q33 2 88.5 14t93.5 12q13 0 23 -6.5t10 -17.5
q0 -28 -3 -50t-8 -33t-10 -11q-30 0 -76 7t-75 7h-7h-7.5h-7.5t-7 -1t-5 -3t-2.5 -5.5t1.5 -8.5q11 -35 8 -91q-3 -91 -72.5 -221.5t-165.5 -189.5q-33 -21 -77.5 -33t-67.5 -12q-6 0 -11.5 -4t-9 -8t-9 -11.5t-7.5 -9.5q-3 -3 -10.5 -10t-9 -14t-0.5 -23q1 -40 30 -72.5
t90 -73.5q7 -5 102.5 -67t145.5 -98q56 -40 56 -107q0 -62 -31 -109t-78.5 -74t-115 -43.5t-129.5 -22t-134 -5.5q-90 0 -177 26t-147.5 79t-60.5 120q0 30 34 63t81.5 58.5t83 41.5t53.5 22q45 14 145 49zM494 780q-25 0 -56.5 -19.5t-54.5 -49.5q-59 -73 -107 -190
t-47 -197q1 -45 12.5 -71.5t23 -33t24.5 -6.5q51 0 102.5 53.5t87 128t58 152.5t20.5 129q-2 40 -17 72t-46 32zM279 -176q-30 15 -82 0q-277 -86 -277 -197q0 -43 55 -80.5t137.5 -58t166.5 -20.5q132 0 183.5 41t49.5 106q-1 25 -18.5 51t-37.5 45t-57 43t-55 34.5
t-54 29.5q-8 4 -11 6z" />
    <glyph glyph-name="h" unicode="h" horiz-adv-x="1032" 
d="M455 47q0 20 18 39.5t37 19.5q25 0 59 -25.5t56 -25.5q49 0 100.5 75t88 178.5t60 207t23.5 164.5q0 38 -13.5 67t-33.5 29q-92 0 -270 -178q-59 -58 -162.5 -195.5t-161.5 -242.5q-17 -31 -37 -69.5t-30 -57.5t-21.5 -37.5t-20 -25.5t-18.5 -7q-14 0 -24.5 24.5
t-10.5 45.5q0 27 27 121l289 989q37 123 26 151q-4 13 -56 30.5t-52 25.5q0 16 12 22q46 23 126 49.5t105 26.5q35 0 35 -21q0 -11 -8 -47l-270 -946q-4 -14 3 -16t15 8q346 436 572 436q60 0 87 -43t27 -137q0 -62 -17 -138.5t-47 -155.5t-75.5 -154t-98 -133.5t-118 -94
t-133.5 -35.5q-36 0 -62 21.5t-26 54.5z" />
    <glyph glyph-name="i" unicode="i" horiz-adv-x="561" 
d="M532 1255q31 0 50.5 -27t19.5 -61q0 -46 -34 -81t-79 -35q-30 0 -50.5 23.5t-20.5 55.5q0 51 32.5 88t81.5 37zM125 156l147 397q33 98 0 98q-38 0 -137 -47q-6 -3 -18.5 0.5t-12.5 9.5q0 17 19 31q159 113 334 211q8 4 16 6t15.5 -0.5t7.5 -13.5q0 -29 -21 -90
l-211 -582q-14 -40 -14 -59q0 -15 6.5 -24t17.5 -9q30 0 86 38.5t89 68t55 51.5q4 4 8 4q12 0 12 -10q0 -55 -42 -107.5t-99.5 -85t-111.5 -52.5t-83 -20q-88 0 -88 72q0 48 25 113z" />
    <glyph glyph-name="j" unicode="j" horiz-adv-x="522" 
d="M524 1255q31 0 50.5 -27t19.5 -61q0 -46 -34 -81t-79 -35q-30 0 -50.5 23.5t-20.5 55.5q0 51 32.5 88t81.5 37zM279 553q29 98 0 98q-39 0 -138 -47q-6 -3 -18 0.5t-12 9.5q0 18 18 31q159 113 334 211q8 4 16 6t15.5 -0.5t7.5 -13.5q0 -10 -2 -22t-4.5 -20l-7.5 -24
t-7 -24l-288 -967q-46 -154 -167 -262.5t-233 -108.5q-69 0 -110 23.5t-41 54.5q0 22 26 56t47 34q16 0 32.5 -13t30 -29t39 -29t56.5 -13q97 0 156 201z" />
    <glyph glyph-name="k" unicode="k" horiz-adv-x="960" 
d="M217 33q-17 -48 -26 -56t-27 -8q-15 0 -33 21.5t-18 40.5q0 31 26 121l289 989q37 124 27 151q-4 13 -56.5 30.5t-52.5 25.5q0 16 12 22q46 23 126.5 49.5t105.5 26.5q33 0 33 -21q0 -26 -7 -47l-247 -833q-4 -21 2.5 -21t15.5 13q105 140 228.5 225.5t201.5 85.5
q144 0 144 -88q0 -55 -45 -117.5t-111 -113.5t-136 -90t-124 -54q-18 -5 -10 -23l94 -223q10 -24 27.5 -41.5t39.5 -17.5q36 0 77 33.5t71 81.5q17 30 33 30q3 0 6.5 -6.5t3.5 -13.5q0 -61 -46.5 -121.5t-100.5 -93.5t-87 -33q-85 0 -129 100l-78 217q-13 38 -38 64.5
t-56 26.5q-12 0 -30 -30.5t-25 -55.5q-50 -162 -80 -246zM819 709q0 53 -80 53q-40 0 -98.5 -40.5t-107.5 -93.5t-84 -104.5t-35 -72.5q0 -13 6.5 -24t17.5 -11q61 0 131 31.5t124 76.5t90 96t36 89z" />
    <glyph glyph-name="l" unicode="l" horiz-adv-x="516" 
d="M477 203q6 6 15 17.5t15.5 18.5t10.5 7q10 0 10 -27q0 -43 -42 -90t-98.5 -80.5t-111.5 -55.5t-83 -22q-47 0 -69 20t-22 52q0 33 23 113l297 989q29 94 29 133q0 19 -25.5 32.5t-51.5 22.5t-26 19q0 16 12 22q45 23 127 48.5t107 25.5q35 0 35 -21q0 -23 -8 -47
l-353 -1204q-10 -38 -10 -59q0 -33 21 -33q42 0 104 43.5t94 75.5z" />
    <glyph glyph-name="m" unicode="m" horiz-adv-x="1546" 
d="M811 633q13 34 17.5 58.5t3 37.5t-9.5 20.5t-16 9.5t-20 3q-36 2 -91.5 -36.5t-119.5 -117.5q-50 -63 -141.5 -202t-150.5 -246q-79 -143 -96 -166q-22 -29 -40 -29q-14 0 -24 24t-10 46q0 16 45 137l178 467q9 24 14 39t6.5 27.5t-2.5 18t-14 5.5q-37 0 -69.5 -17.5
t-77.5 -76.5q-7 -10 -17.5 -8t-13.5 16q-1 19 10 52t25 50q79 101 190 103q49 0 75 -26t3 -85l-111 -303q-6 -14 3.5 -16.5t15.5 8.5q120 208 244.5 315t228.5 107q32 0 55 -14.5t36.5 -44.5t8 -84.5t-32.5 -126.5l-53 -144q-6 -14 3.5 -16.5t15.5 8.5q120 208 244.5 315
t228.5 107q43 0 70 -26t32 -86t-35 -158l-153 -402q-32 -74 10 -74t111 51.5t106 88.5q2 2 6 2q6 0 11.5 -6t5.5 -13q0 -15 -9 -28q-186 -226 -352 -226q-31 0 -48.5 33.5t-4.5 69.5l215 559q13 34 17.5 58.5t3 37.5t-9.5 20.5t-16 9.5t-20 3q-36 2 -91.5 -36.5
t-119.5 -117.5q-51 -63 -143 -202.5t-150 -245.5q-107 -195 -161 -195q-14 0 -24.5 24.5t-10.5 45.5q0 16 45 137z" />
    <glyph glyph-name="n" unicode="n" horiz-adv-x="1040" 
d="M596 74l215 559q13 34 17.5 58.5t3 37.5t-9.5 20.5t-16 9.5t-20 3q-36 2 -91.5 -36.5t-119.5 -117.5q-50 -63 -141.5 -202t-150.5 -246q-79 -143 -96 -166q-22 -29 -40 -29q-14 0 -24 24t-10 46q0 16 45 137l178 467q9 24 14 39t6.5 27.5t-2.5 18t-14 5.5
q-37 0 -69.5 -17.5t-77.5 -76.5q-7 -10 -17.5 -8t-13.5 16q-1 19 10 52t25 50q79 101 190 103q49 0 75 -26t3 -85l-111 -303q-6 -14 3.5 -16.5t15.5 8.5q120 208 244.5 315t228.5 107q43 0 69.5 -26t31.5 -86t-34 -158l-153 -402q-32 -74 10 -74t111 51.5t106 88.5q2 2 6 2
q6 0 11.5 -6t5.5 -13q0 -15 -9 -28q-186 -226 -352 -226q-31 0 -48.5 33.5t-4.5 69.5z" />
    <glyph glyph-name="o" unicode="o" horiz-adv-x="819" 
d="M799 606q0 -62 -17 -132.5t-47.5 -141.5t-77 -136t-101.5 -115t-125 -80t-144 -30q-70 0 -132.5 67t-62.5 175q0 62 17 132.5t47.5 141.5t77 136t101.5 115t125 80t144 30q70 0 132.5 -67t62.5 -175zM668 623q0 82 -19 122.5t-69 40.5q-77 0 -163 -108t-140 -246.5
t-54 -234.5q0 -82 19 -123t69 -41q77 0 163 108t140 247t54 235z" />
    <glyph glyph-name="p" unicode="p" horiz-adv-x="911" 
d="M731 578q0 80 -35 141t-96 61q-76 0 -113 -18q-12 -5 -23 -25.5t-15 -38.5l-125 -458q-23 -87 -23 -123q0 -30 28 -53t64 -23q25 0 66 26.5t88 77.5t88 115t68.5 149t27.5 169zM-164 -586q-13 -2 -27 3t-14 16q0 14 20.5 26t41.5 15q46 7 70.5 22t35.5 53l316 1053
q32 108 13 111l-13 -2q-77 -24 -183 -82q-7 -5 -19.5 -3.5t-15.5 11.5q-3 9 9 23t22 20q88 59 215 108q12 5 17 7.5t11 9.5t9 16q42 133 72.5 180.5t75.5 47.5q18 0 20.5 -13t-4.5 -32l-31 -136q-9 -45 6 -45q2 0 25.5 6.5t64 12.5t82.5 6q91 0 158.5 -72.5t67.5 -197.5
q0 -85 -35 -175.5t-93 -166t-126.5 -136.5t-141 -95t-131.5 -34q-22 0 -41 8t-29.5 16.5t-13.5 8.5q-21 0 -39 -53l-118 -377q-22 -69 65 -78q62 -5 62 -31q0 -22 -60 -22q-179 0 -344 -29z" />
    <glyph glyph-name="q" unicode="q" horiz-adv-x="952" 
d="M193 125q0 -43 11.5 -61.5t39.5 -18.5q76 0 197.5 98.5t209.5 214.5q117 152 117 332q0 42 -19 68t-57 26q-47 0 -132 -70.5t-166 -169.5t-141.5 -217t-59.5 -202zM858 762q12 0 17.5 5t13.5 21l26 46q25 43 56 43q7 0 12.5 -16.5t5.5 -26.5q0 -5 -0.5 -7t-4 -9t-7.5 -19
l-399 -1207q-28 -88 53 -96q61 -5 61 -31q0 -22 -59 -22q-91 0 -199 -10t-162 -19q-13 -2 -27 3t-14 16q0 14 20.5 26t41.5 15q44 6 79 31t50 63l260 690q8 22 8 32.5t-5 11t-13 -4.5t-13.5 -9.5t-9.5 -8.5q-238 -308 -477 -308q-49 0 -86 36t-37 89q0 124 86 284.5
t215 297.5q78 83 174.5 132.5t173.5 49.5q41 0 71 -15.5t43 -33.5t25 -33.5t21 -15.5z" />
    <glyph glyph-name="r" unicode="r" horiz-adv-x="784" 
d="M551 610q-50 -65 -139.5 -204.5t-147.5 -245.5q-58 -105 -90.5 -150t-56.5 -45q-14 0 -24.5 24.5t-10.5 45.5q0 16 45 137l178 467q9 24 14 39t6.5 27.5t-2.5 18t-14 5.5q-37 0 -69.5 -17.5t-77.5 -76.5q-7 -10 -17.5 -8t-13.5 16q-1 19 10 52t25 50q39 49 83 76t107 27
q43 0 68 -24.5t25 -67.5q0 -52 -29 -127.5t-86 -194.5q-7 -14 -2.5 -16.5t10.5 8.5q286 432 412 432q44 0 73 -32.5t29 -75.5q0 -30 -9 -66t-30 -65t-47 -29q-37 0 -41 72q-4 83 -39 83t-139 -135z" />
    <glyph glyph-name="s" unicode="s" horiz-adv-x="565" 
d="M498 848q43 0 73.5 -27.5t30.5 -48.5t-19.5 -53.5t-37.5 -32.5q-12 0 -27 17t-38.5 34t-55.5 17q-34 0 -58 -28.5t-24 -72.5q0 -26 21.5 -86.5t46.5 -101.5t43 -104t18 -109q0 -77 -61.5 -143.5t-148.5 -102t-171 -35.5q-49 0 -79.5 28t-30.5 62q0 24 21 59.5t36 35.5
q10 0 27 -13.5t34.5 -29.5t51 -29.5t73.5 -13.5q51 0 83 36t34 87q3 102 -49 196q-66 122 -66 174q0 58 32 113t76.5 91.5t89.5 58.5t75 22z" />
    <glyph glyph-name="t" unicode="t" horiz-adv-x="583" 
d="M469 139q-71 -67 -164 -117.5t-137 -50.5q-34 0 -51 17.5t-17 58.5q0 27 29 115l184 547q4 12 -2.5 18t-17.5 6l-82 4q-37 2 -37 29q0 4 9.5 15.5t26.5 22.5t34 11h73q22 0 30.5 6.5t19.5 30.5l41 84q16 31 55 61.5t55 30.5q11 0 17 -8.5t5.5 -20.5t-2 -21.5t-3.5 -14.5
l-46 -121q-4 -13 2.5 -18t24.5 -5q55 0 154 -16q30 -6 38.5 -12.5t8.5 -18.5q0 -4 -3 -8.5t-12.5 -9.5t-23.5 -6q-70 -7 -176 -7q-21 0 -40.5 -7.5t-23.5 -20.5l-168 -510q-11 -29 -1 -55.5t38 -26.5q26 0 53.5 12.5t39 21t46.5 35.5q40 30 54 19q4 -3 4 -8q0 -30 -35 -62z
" />
    <glyph glyph-name="u" unicode="u" horiz-adv-x="1019" 
d="M586 74q128 275 151 342q8 23 -2.5 26.5t-21.5 -10.5q-233 -255 -352.5 -358t-200.5 -103q-26 0 -36 25.5t-5.5 57.5t16.5 59l184 440q56 141 37 141q-24 0 -159 -121q-5 -5 -16 -2t-11 9q0 27 25 61q70 94 167.5 154.5t149.5 60.5q33 0 43 -22.5t-12 -69.5l-248 -551
q-20 -44 -23 -76t17 -35q21 0 67 38.5t142 138.5q119 122 254 299t166 233q19 37 45 37q21 0 32 -13.5t11 -33.5q0 -21 -27 -84l-236 -541q-35 -80 7 -80q30 0 83 34.5t86 63.5t52 48q2 2 6 2q6 0 12 -6t6 -13q0 -13 -10 -28q-89 -108 -172.5 -167t-173.5 -59
q-30 0 -48.5 36t-4.5 67z" />
    <glyph glyph-name="v" unicode="v" horiz-adv-x="808" 
d="M281 272q-28 -91 -12.5 -137.5t63.5 -46.5q88 0 183 78.5t156.5 196.5t61.5 227q0 32 -18 62t-58 71q-12 12 -12 41q0 16 44 54t81 38q24 0 41.5 -37.5t17.5 -103.5q0 -301 -211 -549q-82 -95 -171.5 -145t-174.5 -50q-68 0 -101.5 55t-30.5 131t32 152l90 244
q8 25 13.5 41.5t11 40.5t4 36.5t-11.5 12.5q-25 0 -140 -111q-5 -5 -15.5 -2t-10.5 9q0 29 24 61q72 97 153.5 156t129.5 59q32 0 39.5 -20.5t-8.5 -71.5z" />
    <glyph glyph-name="w" unicode="w" horiz-adv-x="1236" 
d="M725 293q-33 -209 61 -209q74 0 157 79t138.5 199t55.5 228q0 31 -13.5 58.5t-46.5 74.5q-15 21 -6 43q11 33 49.5 63.5t77.5 30.5q23 0 41 -39t18 -106q0 -277 -233 -551q-90 -104 -154 -148.5t-143 -44.5q-75 0 -108 85t-9 190q4 20 -0.5 19.5t-15.5 -19.5
q-72 -115 -167 -195t-155 -80q-54 0 -92 36.5t-47.5 107t31.5 174.5l98 264q8 20 14 40.5t11 42t3.5 35t-11.5 13.5q-25 0 -140 -111q-5 -5 -15.5 -2t-10.5 9q0 29 24 61q72 97 153.5 156t129.5 59q32 0 39.5 -20.5t-8.5 -71.5l-179 -518q-25 -70 -8 -114t68 -44
q44 0 117.5 74t127 150.5t60.5 101.5q29 105 57 270q2 15 13.5 39.5t27.5 38.5q55 51 117 51q14 0 17.5 -27.5t-2 -63.5t-15.5 -63q-14 -37 -31.5 -85t-30 -81t-22.5 -55q-34 -80 -43 -145z" />
    <glyph glyph-name="x" unicode="x" horiz-adv-x="897" 
d="M49 -29q-31 0 -50 23.5t-19 62.5q0 37 24 77t49 40q13 0 19 -8.5t14 -32.5q5 -16 20.5 -27.5t22.5 -11.5q34 0 57 29q121 123 215 262q3 3 0 21l-69 264q-10 37 -41 37q-45 0 -105 -76q-7 -9 -21 -20t-26 -11q-14 0 -14 35q0 57 73.5 135t147.5 78q32 0 52.5 -24
t29.5 -58l59 -229q8 -28 33 4l139 186q91 121 185 121q37 0 69.5 -30.5t34.5 -57.5q2 -26 -23.5 -69.5t-60.5 -43.5q-13 0 -20 6.5t-17 28.5q-10 27 -20.5 37t-24.5 10q-32 1 -94.5 -66.5t-109.5 -135.5l-46 -68q-17 -19 -2 -72l56 -203q8 -33 22.5 -53.5t25 -25.5t19.5 -5
q37 0 64.5 31.5t56.5 106.5q11 28 33 28q20 0 20 -45q0 -82 -70 -166t-155 -84q-86 0 -125 138l-43 172q-6 24 -13.5 26t-19.5 -14l-200 -238q-70 -84 -152 -84z" />
    <glyph glyph-name="y" unicode="y" horiz-adv-x="860" 
d="M297 727q-29 0 -66 -46.5t-49 -86.5q-5 -16 -17 -37.5t-22 -21.5q-7 0 -12.5 17t-5.5 40q0 92 70 174t141 82q37 0 76.5 -33.5t60.5 -101.5q69 -223 55 -551q-1 -35 8 -34.5t23 28.5q176 336 176 665q0 20 11 32.5t28 12.5q19 0 47.5 -31.5t28.5 -68.5
q0 -188 -139 -467.5t-369 -564.5q-116 -145 -225 -233.5t-189 -88.5q-34 0 -63 23t-29 63q0 33 29.5 68t56.5 35q14 0 28.5 -16.5t36.5 -33t54 -16.5q33 0 84.5 37t87.5 88q87 124 144 276t57 302q0 108 -8.5 195.5t-21 141t-28.5 89t-31 49.5t-28 14z" />
    <glyph glyph-name="z" unicode="z" horiz-adv-x="780" 
d="M864 877q6 0 12.5 -8t6.5 -17q0 -16 -19 -45.5t-47 -56.5l-541 -517q-20 -20 -15 -33q1 -3 5 -3q34 0 79 -25t82 -55t80.5 -55t74.5 -25q32 0 55 16.5t33.5 44t15 52.5t4.5 51q0 17 -2 33.5t-2 29.5q0 20 4 24.5t23 4.5q24 0 45.5 -29.5t21.5 -75.5q0 -58 -50 -120.5
t-113 -100t-105 -37.5q-54 0 -106 27.5t-84.5 60.5t-66.5 60.5t-56 27.5q-59 0 -94 -34.5t-35 -83.5q0 -29 -31 -29q-7 0 -17.5 17t-11.5 36q-4 59 49 109l572 534q11 11 -2 22.5t-45 22.5q-179 70 -285 70q-36 0 -68 -29.5t-30 -60.5q0 -43 20 -74q13 -21 0 -37
q-13 -14 -43.5 -29.5t-40.5 -15.5q-13 0 -28 20t-15 50q0 52 24 90.5t79 89.5q35 34 97.5 64t96.5 30q61 0 178 -35.5t142 -35.5q29 0 48 9.5t44 33.5q37 37 61 37z" />
    <glyph glyph-name="braceleft" unicode="{" horiz-adv-x="706" 
d="M344 571q23 -7 49 -30.5t48.5 -60.5t30 -82.5t-6.5 -96.5q-18 -57 -64.5 -169.5t-68.5 -184.5q-31 -105 24 -156t158 -51q13 0 21.5 -1t15.5 -7t4 -17q-4 -13 -17 -21.5t-26 -8.5q-70 0 -131 15.5t-109 48.5t-64 84.5t3 123.5q22 74 69 189.5t66 175.5q26 85 -5 144.5
t-103 92.5q-1 1 -3 2q-14 8 -12 17q2 5 5.5 7t10 3t9.5 2q92 33 160 92.5t94 144.5q19 63 41.5 177.5t44.5 187.5q21 69 72 123.5t117.5 85.5t138 47t141.5 16q13 0 20.5 -8.5t3.5 -21.5q-7 -25 -57 -25q-66 0 -125 -19.5t-111 -68t-73 -119.5q-22 -72 -44 -184.5
t-40 -169.5q-28 -91 -115 -163t-172 -105q-9 -4 0 -9z" />
    <glyph glyph-name="bar" unicode="|" horiz-adv-x="532" 
d="M205 1384q0 29 37.5 46.5t56.5 17.5q11 0 20 -8.5t9 -18.5v-1964q0 -15 -12.5 -25.5t-31 -15t-32 -6.5t-23.5 -2q-9 0 -16.5 9t-7.5 20v1947z" />
    <glyph glyph-name="braceright" unicode="}" horiz-adv-x="706" 
d="M713 571q10 5 6 9q-40 20 -72.5 55t-53.5 91t1 122q18 57 64.5 169.5t68.5 184.5q31 105 -24 156t-158 51q-13 0 -21.5 1t-15.5 7t-4 17q4 13 17 21.5t26 8.5q70 0 130.5 -15.5t109 -48.5t64.5 -84.5t-3 -123.5q-22 -74 -69 -189.5t-66 -175.5q-26 -85 4.5 -144.5
t103.5 -92.5q2 -1 6 -2t6.5 -1t4 -2.5t0.5 -6.5q-3 -9 -27 -19q-202 -71 -254 -237q-19 -63 -41.5 -177.5t-44.5 -187.5q-21 -69 -72 -123.5t-117.5 -85.5t-137 -47t-140.5 -16q-13 0 -22 8.5t-5 21.5q7 25 58 25q66 0 125 19.5t111 68t73 119.5q22 72 44 184.5t40 169.5
q28 91 124.5 172t160.5 98z" />
    <glyph glyph-name="asciitilde" unicode="~" horiz-adv-x="1024" 
d="M102 571q38 70 115.5 139.5t140.5 69.5q38 0 93 -24.5t118.5 -49t120.5 -24.5q42 0 110.5 31.5t94.5 64.5q4 4 6 4q8 0 16.5 -17t4.5 -24q-31 -58 -110.5 -133.5t-145.5 -75.5q-47 0 -166 49.5t-176 49.5q-34 0 -99.5 -33.5t-91.5 -62.5q-5 -5 -13.5 2t-14.5 17.5
t-3 16.5z" />
    <glyph glyph-name="uni00A0" unicode="&#xa0;" horiz-adv-x="372" 
 />
    <glyph glyph-name="exclamdown" unicode="&#xa1;" horiz-adv-x="530" 
d="M176 -369q-50 0 -62.5 46t9.5 106q14 45 42.5 124.5t54.5 147.5t71.5 186t68.5 179q19 48 44.5 83.5t46.5 35.5q13 0 14.5 -36.5t-6.5 -70.5q-8 -39 -28 -138t-30.5 -148t-27 -124.5t-31.5 -133.5t-31 -109q-19 -61 -55 -104.5t-80 -43.5zM520 766q-47 0 -70 36t-8 87
t60.5 87t93.5 36q47 0 69 -36t7 -87t-60 -87t-92 -36z" />
    <glyph glyph-name="cent" unicode="&#xa2;" horiz-adv-x="780" 
d="M414 109l272 677h-4q-108 0 -210 -103.5t-140 -227.5q-39 -135 -15.5 -223t97.5 -123zM360 -25q-116 24 -169.5 142t-8.5 268q55 176 206 309t323 150l41 102q6 16 20.5 25.5t30.5 9.5q10 0 14.5 -11.5t-0.5 -23.5l-41 -100q133 -7 174 -98q17 -40 -63 -86q-18 -9 -29 -9
q-12 0 -22 6t-11 15q-16 84 -77 102l-273 -682q8 -2 29 -2q165 0 246 88q10 10 18 10q12 0 17.5 -11t-3.5 -21q-81 -95 -167 -139.5t-191 -47.5l-41 -104q-6 -13 -19.5 -22t-25.5 -9q-13 0 -21 9t-2 22z" />
    <glyph glyph-name="sterling" unicode="&#xa3;" horiz-adv-x="1003" 
d="M266 698q0 85 17 167.5t53 159.5t87 135t125.5 93t162.5 35q207 0 207 -168q0 -38 -32 -76t-55 -38q-10 0 -15.5 3.5t-7 11t-1.5 14.5t1 21t1 23q-2 52 -46 101t-95 49q-101 0 -161 -141t-61 -388l273 19q11 0 20.5 -9.5t5.5 -19.5q-25 -49 -63 -49l-240 -16
q-14 -125 -68.5 -252.5t-97.5 -163.5q-5 -3 -3 -11t12 -8q82 0 151.5 -19.5t110 -42.5t100 -42.5t125.5 -19.5q46 0 81.5 33.5t35.5 78.5q0 20 -13 52.5t-14 52.5q0 9 0.5 15t2 13t6 10.5t10.5 2.5q44 -4 70 -35t26 -74q0 -118 -94 -203.5t-219 -85.5q-94 0 -161 29t-167 98
q-32 23 -73.5 41.5t-57.5 18.5q-10 0 -40 -32t-50 -69q-21 -41 -74 -41q-26 0 -43.5 18.5t-17.5 45.5q0 34 61.5 85.5t134.5 65.5q11 2 23 25q25 46 42.5 158.5t22.5 242.5l-172 -12q-10 0 -19.5 8t-9.5 17q0 15 15.5 33.5t34.5 19.5l153 10v10z" />
    <glyph glyph-name="currency" unicode="&#xa4;" horiz-adv-x="915" 
d="M717 850q-112 0 -218 -87.5t-143 -209.5t16 -209.5t165 -87.5t217.5 87.5t142.5 209.5t-15.5 209.5t-164.5 87.5zM348 889q-10 17 22 47.5t56 30.5q9 0 12 -6l58 -93q128 84 254 84q127 0 198 -84l117 95q9 6 16 6q25 0 37 -30t-12 -52l-115 -92q41 -104 0 -242
q-41 -136 -147 -242l59 -96q10 -17 -21 -47.5t-55 -30.5q-11 0 -14 6l-57 95q-124 -84 -252 -84t-199 84l-119 -95q-9 -6 -16 -6q-24 0 -37 30.5t8 47.5l121 96q-42 107 -2 242q41 136 148 240z" />
    <glyph glyph-name="yen" unicode="&#xa5;" horiz-adv-x="1177" 
d="M569 1069q-54 183 -108 201q-29 11 -41 21.5t-8 23.5q6 22 61 22q25 0 99 -3t122 -3q32 0 84 2t70 2q26 0 39 -5t10 -17q-4 -13 -21 -21.5t-55 -19.5q-35 -11 -60 -41t-13 -84l73 -338q10 -45 16.5 -62.5t16.5 -17.5q2 0 5 1t6 3.5l6 5t8 7.5l9 9t10 11t11 12.5t13 14.5
t14 16q158 168 246 285q40 54 43.5 109t-33.5 67q-58 19 -51 41q5 22 63 22q29 0 72 -1t70 -1q38 0 102 3t82 3q26 0 39 -5t10 -17q-9 -27 -76 -41q-80 -16 -250 -197q-68 -75 -149.5 -167t-128.5 -146l-47 -55q-50 -54 -56 -64h234q11 0 17 -9.5t-1 -19.5q-32 -43 -73 -43
h-207l-31 -98h242q11 0 16 -9.5t-2 -19.5q-32 -43 -72 -43h-204l-58 -182q-22 -69 3 -113.5t93 -58.5q31 -6 43.5 -15t8.5 -22q-5 -22 -62 -22q-53 0 -115 5t-104 5q-46 0 -121 -5t-127 -5q-26 0 -38 5t-9 17q9 26 74 37q155 28 201 172l57 182h-240q-10 0 -15.5 8t-2.5 17
q5 15 23.5 31t35.5 16h221l15 49q9 26 12 49h-237q-10 0 -16 8t-3 17q5 15 23.5 31t35.5 16h203q-2 5 -4 16t-4 15z" />
    <glyph glyph-name="brokenbar" unicode="&#xa6;" horiz-adv-x="532" 
d="M299 367q10 0 19.5 -15t9.5 -30v-867q0 -15 -12.5 -25.5t-31 -15t-32 -6.5t-23.5 -2q-9 0 -16.5 9t-7.5 20v884q0 13 40.5 30.5t53.5 17.5zM229 565q-9 0 -16.5 15.5t-7.5 31.5v768q0 29 37.5 46.5t56.5 17.5q11 0 20 -8.5t9 -18.5v-809q0 -13 -40.5 -28t-58.5 -15z" />
    <glyph glyph-name="section" unicode="&#xa7;" horiz-adv-x="757" 
d="M836 1311q35 0 72.5 -12t47.5 -27q17 -21 13 -37q-3 -13 -40.5 -54.5t-62.5 -41.5q-11 0 -20 12q-51 70 -96 70q-54 0 -97 -38t-59 -91q-17 -55 12.5 -137t91.5 -167q81 -111 93 -221.5t-33 -240.5q-31 -105 -74 -175.5t-129 -173.5q-146 -173 -305 -258
q-43 -22 -109 -22q-51 0 -79 18.5t-19 46.5q22 66 86 107q19 12 37 -12q17 -23 50.5 -36.5t66.5 -13.5q49 0 87.5 43.5t63.5 124.5q6 21 7.5 43t-6 49t-12.5 44.5t-23 50.5t-24.5 45.5t-30 51t-28.5 46.5q-119 198 -67 369q38 125 96.5 210t145.5 167q55 100 152.5 180
t191.5 80zM604 625q-1 2 -18 30t-21 35t-19.5 33.5t-21 38t-17.5 35.5t-17 38.5t-12 34.5t-10 36.5t-3 31.5q0 7 -8 6.5t-11 -6.5q-48 -86 -67 -150q-30 -110 -16 -190.5t73 -179.5q87 -144 112 -207q26 -63 27 -107q0 -7 8 -6.5t11 6.5q50 89 68 150q30 110 15.5 191
t-73.5 180z" />
    <glyph glyph-name="dieresis" unicode="&#xa8;" horiz-adv-x="555" 
d="M494 1217q31 0 50 -27t19 -62q0 -46 -33.5 -81t-78.5 -35q-30 0 -51 24t-21 56q0 51 33 88t82 37zM803 1217q31 0 50 -27t19 -62q0 -46 -33.5 -81t-78.5 -35q-30 0 -51 24t-21 56q0 51 33 88t82 37z" />
    <glyph glyph-name="copyright" unicode="&#xa9;" horiz-adv-x="1361" 
d="M946 461q7 14 17.5 22.5t17.5 8.5q10 0 10 -27q0 -19 -15 -55.5t-26 -49.5q-45 -45 -215 -45q-143 0 -246.5 109t-103.5 248q0 98 56 177t145.5 121t191.5 42q51 0 109 -13q8 -3 39 -10t39 -10t12 -29q7 -57 2 -112q0 -7 -7 -15.5t-14 -7.5q-12 0 -24 31
q-16 45 -61.5 74.5t-112.5 29.5q-102 0 -167 -78.5t-65 -193.5q0 -122 64.5 -211.5t177.5 -89.5q134 0 176 84zM709 1290q126 0 241 -49t198 -132t132 -198t49 -241q0 -168 -83.5 -311t-227 -226.5t-311.5 -83.5t-310.5 83.5t-225.5 226.5t-83 311t83.5 311t226.5 226
t311 83zM709 1208q-146 0 -270 -72t-196.5 -196t-72.5 -270q0 -110 42 -212t114 -176t171.5 -118.5t209.5 -44.5q148 0 272.5 74.5t196 201.5t71.5 275q0 146 -72 270t-196 196t-270 72z" />
    <glyph glyph-name="ordfeminine" unicode="&#xaa;" horiz-adv-x="483" 
d="M559 549q-29 0 -47 15.5t-24.5 31.5t-8.5 16q-5 0 -19.5 -10t-32 -21.5t-48 -21.5t-62.5 -10q-35 0 -56.5 42t-10.5 79q13 42 34 66t68 42l156 58q25 9 32.5 16.5t14.5 32.5l14 47q9 32 -1.5 53t-41.5 21q-23 0 -47.5 -7.5t-34.5 -19.5q-16 -24 -20 -51q-4 -16 -94 -39
q-7 -2 -7 5q1 6 7 15l8 12t8 12.5t7 10.5t8.5 11t9.5 10t12 11t14 11q41 30 103 58t104 28t66.5 -33t11.5 -75l-84 -254q-23 -80 12 -80q30 0 43 16q9 10 14 -7q4 -15 -1 -24q-8 -12 -44 -39.5t-63 -27.5zM358 700q-10 -32 2.5 -50.5t32.5 -18.5q7 0 15.5 2t14 4t15 7.5
t12.5 8t13.5 9.5t11.5 8q15 10 27 47l20 59q6 18 0.5 23t-20.5 0q-66 -20 -101.5 -47t-42.5 -52zM209 401h369q10 0 15.5 -8.5t-1.5 -19.5q-32 -43 -70 -43h-352q-9 0 -14 7.5t-2 16.5q5 15 22 31t33 16z" />
    <glyph glyph-name="guillemotleft" unicode="&#xab;" horiz-adv-x="1345" 
d="M850 410q-20 -13 0 -33q186 -196 240 -291q8 -14 5.5 -30.5t-12.5 -16.5q-26 0 -63 37q-67 66 -190.5 160.5t-194.5 134.5q-23 11 -23 30q0 15 23 27q429 219 602 332q28 20 57 20q11 0 4 -22q-6 -16 -18 -27q-96 -83 -219.5 -174.5t-210.5 -146.5zM444 410
q-20 -13 0 -33q186 -196 240 -291q8 -14 6 -30.5t-12 -16.5q-27 0 -64 37q-67 66 -190.5 160.5t-194.5 134.5q-22 11 -22 30q0 16 22 27q429 219 602 332q28 20 58 20q12 0 3 -23q-6 -16 -18 -26q-96 -83 -219.5 -174.5t-210.5 -146.5z" />
    <glyph glyph-name="logicalnot" unicode="&#xac;" horiz-adv-x="1228" 
d="M131 659q-10 0 -19.5 8t-9.5 17q0 10 2 23.5t6.5 31.5t15.5 30.5t26 12.5h948q10 0 18 -8.5t8 -19.5v-617q0 -15 -12.5 -25.5t-30.5 -15t-31.5 -6.5t-23.5 -2q-9 0 -16.5 9t-7.5 20v506q0 36 -29 36h-844z" />
    <glyph glyph-name="uni00AD" unicode="&#xad;" horiz-adv-x="518" 
d="M180 348h-8q-11 0 -8 12q44 109 65 111q286 40 381 51q14 0 11 -12q-13 -33 -21.5 -52t-23.5 -38t-29 -21q-274 -41 -367 -51z" />
    <glyph glyph-name="registered" unicode="&#xae;" horiz-adv-x="1361" 
d="M709 1290q126 0 241 -49t198 -132t132 -198t49 -241q0 -168 -83.5 -311t-227 -226.5t-311.5 -83.5t-310.5 83.5t-225.5 226.5t-83 311t83.5 311t226.5 226t311 83zM709 1208q-146 0 -270 -72t-196.5 -196t-72.5 -270q0 -110 42 -212t114 -176t171.5 -118.5t209.5 -44.5
q148 0 272.5 74.5t196 201.5t71.5 275q0 146 -72 270t-196 196t-270 72zM750 1016q87 0 150 -42.5t63 -119.5q0 -59 -30 -101t-71 -59q-3 -1 -5 -2.5t-3 -3.5t-1.5 -3.5t-0.5 -4t0.5 -4t2 -4t2 -4t2.5 -5t3 -4.5l135 -227q19 -35 64 -35q2 0 8.5 1t11 1t9 -2t4.5 -8
q0 -26 -28.5 -40.5t-61.5 -14.5q-82 0 -119 61l-119 199q-38 61 -111 61q-13 0 -22.5 -6t-9.5 -16l2 -156q0 -21 12 -35t23 -18.5t34 -11.5q15 -5 27 -15.5t12 -21.5q0 -8 -11.5 -15.5t-21.5 -7.5q-34 0 -70 4t-63 4t-59 -4t-66 -4q-10 0 -21 7.5t-11 15.5q0 11 12 21.5
t27 15.5q28 8 39.5 21t11.5 44v387q0 17 -0.5 28t-0.5 19.5t-3.5 14t-3.5 9t-6.5 6t-7.5 3.5t-11.5 3t-13.5 3q-39 11 -39 37q0 13 11 21t30 8h295zM831 846q0 49 -38 79.5t-93 30.5q-43 0 -60 -15.5t-17 -45.5v-133q0 -18 8.5 -27.5t18.5 -11.5t28 -2q63 0 108 33.5
t45 91.5z" />
    <glyph glyph-name="macron" unicode="&#xaf;" horiz-adv-x="532" 
d="M420 1184h424q7 0 12.5 -6.5t5.5 -14.5q0 -25 -26 -47t-48 -22h-409q-8 0 -13.5 5.5t-5.5 12.5q0 20 18.5 46t41.5 26z" />
    <glyph glyph-name="degree" unicode="&#xb0;" horiz-adv-x="593" 
d="M147 1071q0 -62 44.5 -106.5t105.5 -44.5t105 44.5t44 106.5q0 63 -43.5 107.5t-105.5 44.5t-106 -44.5t-44 -107.5zM297 1321q98 0 172 -71.5t74 -168.5q0 -99 -75 -178.5t-171 -79.5t-171 79.5t-75 178.5q0 97 74 168.5t172 71.5z" />
    <glyph glyph-name="plusminus" unicode="&#xb1;" horiz-adv-x="1208" 
d="M655 834q0 -10 1.5 -11.5t7.5 -1.5h415q11 0 21 -9t6 -19q-6 -18 -10 -27t-11.5 -22t-18 -19t-24.5 -6h-378q-9 0 -9 -8v-414q0 -24 -27.5 -36.5t-49.5 -12.5q-9 0 -17 9t-8 19v433q0 10 -8 10h-414q-11 0 -20 7.5t-9 16.5q0 21 13 49.5t37 28.5h387q14 0 14 17v350
q0 25 29.5 44t44.5 19q11 0 19.5 -8t8.5 -18v-391zM131 78q-11 0 -20 7.5t-9 16.5q0 21 13 49.5t37 28.5h927q11 0 21 -9t6 -19q-6 -18 -10 -27t-11.5 -22t-18 -19t-24.5 -6h-911z" />
    <glyph glyph-name="uni00B2" unicode="&#xb2;" horiz-adv-x="569" 
d="M504 1389q-12 -15 -22 -11t-5 21q7 23 46 64t104.5 77.5t126.5 36.5q72 0 105.5 -56.5t8.5 -134.5q-6 -20 -14 -37.5t-22 -36t-22 -28t-29 -31t-27 -28.5q-28 -30 -85.5 -77t-109 -86t-55.5 -42q-10 -8 11 -11q4 -1 7 -1h35h96q43 0 90 28t82 74q4 7 15.5 12.5t19.5 3.5
q12 0 0 -18q-73 -115 -108 -186q-12 -27 -27 -27h-4q-96 6 -160 6q-137 0 -235 -4q-6 -1 -6 5q-1 15 16 28l100 82q3 3 33.5 26t56.5 43.5t64 54.5t66.5 64t53.5 66t35 67q20 57 -0.5 95t-66.5 38q-51 0 -85.5 -15.5t-88.5 -61.5z" />
    <glyph glyph-name="uni00B3" unicode="&#xb3;" horiz-adv-x="567" 
d="M483 889q-52 0 -84 14.5t-20 52.5q3 14 21.5 36t29.5 22q16 0 21 -10q52 -46 110 -46q14 0 30 3.5t40.5 14.5t46.5 39.5t35 69.5q17 56 -7.5 95t-78.5 39q-19 0 -76 -15q-6 -2 -13.5 2t-10 10t2.5 11q22 18 61.5 31.5t49.5 19.5t32.5 18.5t32 18t25.5 17t23.5 20.5t16 23
t13.5 30q10 30 -14 53t-53 23q-67 0 -156 -62q-18 -13 -22 -12q-14 9 -4 23q45 58 109 102.5t132 44.5q77 -2 111.5 -36.5t11.5 -108.5q-24 -77 -156 -138q-12 -6 -6 -9q2 -1 4 -1q54 -3 80.5 -41t9.5 -94q-18 -59 -61.5 -110t-94.5 -82.5t-102 -49.5t-90 -18z" />
    <glyph glyph-name="acute" unicode="&#xb4;" horiz-adv-x="272" 
d="M397 979q-31 -31 -47 -31q-7 0 -11.5 5.5t-4.5 11.5q0 16 4 24q75 153 154 295q26 51 51 51q17 0 48.5 -26.5t31.5 -48.5q0 -7 -91.5 -120t-134.5 -161z" />
    <glyph glyph-name="mu" unicode="&#xb5;" horiz-adv-x="1202" 
d="M813 184q-3 19 -19 40q-7 10 -10 5q-56 -115 -135 -186.5t-155 -71.5q-147 0 -230 103q-4 5 -16.5 22t-20.5 24.5t-12 2.5q-42 -53 -74 -128.5t-32 -158.5q0 -89 28 -192.5t33 -155.5q3 -29 -17 -51.5t-49 -22.5q-47 0 -78.5 27t-31.5 76q0 357 127 618q4 9 18.5 37
t19 38.5t10 28t5.5 31.5q0 172 64 406q9 34 14.5 51t18 45t25 42.5t33.5 26t46 11.5q28 0 45.5 -20.5t22.5 -48t3 -58.5q-2 -35 -40.5 -127t-75.5 -188.5t-37 -143.5q0 -67 23 -116t75 -52q91 -4 159 33t132 115q40 49 69.5 107t43 100t33.5 112.5t34 110.5q22 65 61 118.5
t74 53.5q32 0 47 -30.5t15 -72.5q0 -35 -26 -92t-51.5 -97.5t-78.5 -121.5q-29 -45 -29 -94q0 -47 14.5 -94.5t46.5 -83t73 -35.5q88 0 151 90q9 13 15 16t24 3q10 0 11 -35t-7 -49q-96 -177 -225 -177q-39 0 -68.5 18t-47.5 51t-28.5 65t-19.5 75z" />
    <glyph glyph-name="paragraph" unicode="&#xb6;" horiz-adv-x="1112" 
d="M367 -461q0 -31 26 -51t60 -20q66 0 112.5 45t69.5 118l172 562q15 51 -8 51q-132 0 -247 50.5t-186 145.5t-71 213q0 139 54.5 253t145 189.5t212 127.5t252 75t268.5 23q70 0 147.5 -6.5t77.5 -22.5q0 -21 -17.5 -42t-33.5 -21q-6 0 -67 7t-66 7q-34 0 -45 -37
l-473 -1546q-36 -115 -120.5 -181.5t-201.5 -66.5q-52 0 -88.5 33.5t-36.5 83.5q0 74 48 129t118 55q36 0 64 -24t28 -58q0 -40 -27 -68t-67 -28q-22 0 -45.5 21.5t-28.5 21.5q-9 0 -17.5 -13t-8.5 -26zM829 346l269 850q3 9 -7.5 13.5t-23.5 4.5q-53 0 -123 -49.5
t-132.5 -126t-106 -182t-43.5 -205.5q0 -141 43 -236.5t98 -95.5q17 0 26 27z" />
    <glyph glyph-name="periodcentered" unicode="&#xb7;" horiz-adv-x="376" 
d="M352 532q43 0 63.5 -33t6.5 -79q-13 -46 -54.5 -79.5t-84.5 -33.5t-63.5 33.5t-6.5 79.5q13 46 54.5 79t84.5 33z" />
    <glyph glyph-name="cedilla" unicode="&#xb8;" horiz-adv-x="360" 
d="M-10 -236q0 51 72 131t161 125h62q-88 -69 -131 -126t-43 -89q0 -17 26.5 -53.5t53 -78t26.5 -70.5q0 -68 -74.5 -130.5t-138.5 -62.5q-28 0 -51.5 12t-38 28.5t-24 35.5t-13.5 32.5t-4 20.5q0 41 25 41q18 0 32 -18q27 -32 59.5 -53t57.5 -21q23 0 36 16.5t13 40.5
q0 27 -26.5 60.5t-53 74t-26.5 84.5z" />
    <glyph glyph-name="uni00B9" unicode="&#xb9;" horiz-adv-x="565" 
d="M812 1602q12 4 14 4q9 0 11.5 -8.5t-2.5 -20.5q-22 -49 -41 -111q-10 -32 -29 -91.5t-32.5 -102t-20.5 -66.5q-23 -76 -47 -162q-14 -60 -5 -72.5t70 -21.5q10 -1 15 -9t2 -17q-3 -10 -12 -17.5t-19 -7.5q-61 0 -95 5t-59 5t-64.5 -5t-95.5 -5q-15 0 -14 20q2 24 24 30
l7 1q25 2 39.5 5t34 12t33.5 28t24 49l96 314q17 58 -74 96q-21 9 -11 31t26 24q45 4 92.5 23.5t89 44t43.5 25.5z" />
    <glyph glyph-name="ordmasculine" unicode="&#xba;" horiz-adv-x="552" 
d="M612 1073q88 0 133.5 -73.5t14.5 -172.5q-34 -114 -124 -196t-204 -82q-92 0 -135 69t-10 177q35 114 131 196t194 82zM573 1006q-56 0 -98.5 -52t-66.5 -131q-28 -85 -10 -148t75 -63q55 0 97.5 52t68.5 133q27 79 9.5 144t-75.5 65zM209 401h397q10 0 16 -8.5t-1 -19.5
q-32 -43 -68 -43h-383q-9 0 -14 7.5t-2 16.5q5 15 22 31t33 16z" />
    <glyph glyph-name="guillemotright" unicode="&#xbb;" horiz-adv-x="1333" 
d="M950 410q12 10 11 16t-11 16q-183 194 -239 291q-8 13 -6 30t12 17q26 0 63 -37q67 -66 190.5 -160t194.5 -134q23 -11 23 -31q0 -16 -23 -27q-429 -219 -602 -332q-28 -20 -57 -20q-11 0 -4 22q6 16 18 27q97 84 221 176t209 146zM547 410q12 10 11 16t-11 16
q-186 196 -240 291q-8 13 -6 30t12 17q27 0 64 -37q67 -66 190.5 -160t194.5 -134q22 -11 22 -31q0 -16 -22 -27q-429 -219 -602 -332q-28 -20 -58 -20q-12 0 -3 23q7 16 18 26q97 84 221 176t209 146z" />
    <glyph glyph-name="onequarter" unicode="&#xbc;" horiz-adv-x="1218" 
d="M684 1282q12 4 14 4q9 0 11.5 -8.5t-2.5 -20.5q-32 -78 -52 -143q-48 -148 -71 -227q-22 -76 -47 -162q-9 -32 -11.5 -47t6.5 -25.5t22 -13.5t48 -8q21 -3 17 -25q-5 -21 -25 -25q-3 -1 -6 -1q-60 0 -95 5t-59 5q-25 0 -64.5 -5t-95.5 -5q-15 0 -13 20q2 24 23 30l7 1
q25 2 40 5t34.5 12t33 28t23.5 49l96 313q17 59 -74 97q-21 9 -11 31t26 24q45 4 92 23.5t89.5 43.5t43.5 25zM1178 221q-42 0 -45 -10l-52 -172q-6 -20 -47 -39.5t-53 -19.5q-17 0 -12 16l63 209q1 4 -2.5 6.5t-6.5 3t-5 0.5q-50 0 -137.5 -3.5t-143.5 -4.5q-6 0 -7.5 6.5
t1.5 9.5q153 150 352 336q21 20 152 133q28 23 35 25q6 1 9 -5.5t1 -11.5q-102 -336 -117 -391q-4 -8 4 -8h33q49 0 80 2q14 0 8 -12q-10 -23 -24.5 -47.5t-20.5 -24.5q-10 0 -32.5 1t-32.5 1zM1047 303q15 0 18 10l70 228q2 3 -4 4q-4 1 -7 -2q-110 -97 -247 -230
q-10 -10 -3 -10h173zM221 -23l1192 1330q32 34 84 34q11 0 16.5 -11.5t-2.5 -22.5l-1189 -1330q-26 -30 -78 -30q-13 0 -23 10t0 20z" />
    <glyph glyph-name="onehalf" unicode="&#xbd;" horiz-adv-x="1327" 
d="M684 1282q12 4 14 4q9 0 11.5 -8.5t-2.5 -20.5q-32 -78 -52 -143q-48 -148 -71 -227q-22 -76 -47 -162q-9 -32 -11.5 -47t6.5 -25.5t22 -13.5t48 -8q21 -3 17 -25q-5 -21 -25 -25q-3 -1 -6 -1q-60 0 -95 5t-59 5q-25 0 -64.5 -5t-95.5 -5q-15 0 -13 20q2 24 23 30l7 1
q25 2 40 5t34.5 12t33 28t23.5 49l96 313q17 59 -74 97q-21 9 -11 31t26 24q45 4 92 23.5t89.5 43.5t43.5 25zM221 -23l1192 1330q32 34 84 34q11 0 16.5 -11.5t-2.5 -22.5l-1189 -1330q-26 -30 -78 -30q-13 0 -23 10t0 20zM987 475q-12 -15 -21.5 -11t-4.5 21t30 45.5
t62 59t87 52.5t97 22q72 0 106 -56.5t9 -134.5q-5 -17 -12.5 -33.5t-14.5 -28t-20 -27.5t-19.5 -23.5t-23.5 -25.5t-23 -24q-28 -30 -86 -77t-110 -86l-56 -42q-9 -8 11 -11l8 -1h34h97q43 0 91 28.5t83 74.5q5 7 15 12t17 4q12 0 0 -18q-71 -112 -108 -187q-13 -32 -31 -26
q-96 6 -157 6q-138 0 -236 -4q-6 -1 -6 6q-1 13 16 26l99 82q3 2 33.5 26t56 44t64 54.5t67 64.5t53.5 66t35 67q20 57 -1 95t-67 38q-50 0 -84.5 -15.5t-89.5 -62.5z" />
    <glyph glyph-name="threequarters" unicode="&#xbe;" horiz-adv-x="1216" 
d="M1178 221q-42 0 -45 -10l-54 -172q-6 -20 -46 -39.5t-52 -19.5q-17 0 -12 16l63 209q1 4 -2.5 6.5t-6.5 3t-5 0.5q-50 0 -137.5 -3.5t-143.5 -4.5q-6 0 -7.5 6.5t1.5 9.5q153 150 352 336q21 20 152 133q28 23 35 25h2q4 0 6 -6t0 -11q-70 -231 -115 -391q-4 -8 2 -8h35
q49 0 80 2q14 0 8 -12q-9 -22 -25 -47t-22 -25q-10 0 -31.5 1t-31.5 1zM1047 303q15 0 18 10l70 228q2 3 -4 4q-4 1 -7 -2q-110 -97 -247 -230q-10 -10 -5 -10h175zM221 -23l1192 1330q32 34 84 34q11 0 16.5 -11.5t-2.5 -22.5l-1192 -1330q-26 -30 -77 -30q-13 0 -21.5 9.5
t0.5 20.5zM399 561q-129 0 -108 68q3 13 21.5 35t29.5 22q18 0 23 -10q51 -45 114 -45q17 0 44 11t62 47.5t52 90.5q19 61 -4 108.5t-76 47.5q-22 0 -76 -14q-6 -2 -13.5 1.5t-9.5 9.5t3 11q22 18 61 31.5t49 19.5q8 5 38 21.5t38.5 22.5t26.5 20.5t26.5 29t14.5 33.5
q10 30 -14.5 53t-53.5 23q-67 0 -155 -61q-19 -14 -23 -13q-14 9 -4 23q45 58 109.5 102.5t132.5 44.5q77 -2 111 -36.5t11 -108.5q-24 -76 -155 -137q-10 -5 -6 -10l4 -1q59 -3 79 -58t-3 -122q-24 -77 -90.5 -139.5t-135.5 -91.5t-123 -29z" />
    <glyph glyph-name="questiondown" unicode="&#xbf;" horiz-adv-x="669" 
d="M403 -371q-49 0 -96 26.5t-78 76.5q-53 84 -70 204.5t9 196.5q22 70 63.5 123t79.5 72q137 69 205 108q32 18 50 37.5t24.5 34.5t21.5 57q5 17 17.5 32t25.5 15q11 0 17.5 -17.5t5.5 -41.5q-4 -89 -21 -170q-11 -52 -70 -94t-181 -99q-53 -25 -100.5 -64.5t-59.5 -80.5
q-34 -101 -3.5 -167.5t124.5 -67.5q19 0 45.5 4t44.5 4q30 0 43.5 -36.5t1.5 -78.5q-9 -28 -41 -51t-58 -23zM676 766q-47 0 -70 36t-8 87t60 87t92 36t69.5 -36t7.5 -87t-59.5 -87t-91.5 -36z" />
    <glyph glyph-name="Agrave" unicode="&#xc0;" horiz-adv-x="1581" 
d="M1698 1427q-13 0 -37 19q-165 122 -266 209q-27 24 -27 39q0 19 44.5 33t74.5 14q36 0 55 -27q93 -136 158 -244q10 -17 10 -30t-12 -13zM1311 1036l-406 -401q-8 -8 -13 -14.5t-7.5 -13.5t2.5 -10.5t16.5 -6.5t34.5 0l274 16q23 2 37.5 14.5t24.5 43.5l119 348
q9 27 13 48t2.5 32.5t-7.5 11.5q-22 0 -90 -68zM1376 -10q-22 0 -118.5 6t-143.5 6q-41 0 -105 -1t-83 -1q-49 0 -49 25q0 22 75 38q54 11 83 21t50.5 30.5t32.5 43.5t27 71l84 252q6 17 -11 27t-47 10l-370 -18q-10 0 -33.5 -10t-38.5 -27l-237 -254q-26 -28 -37.5 -52.5
t-9.5 -41t10.5 -29t19 -18.5t19.5 -7q31 -4 41 -12t10 -24q0 -13 -18.5 -20t-45.5 -7q-13 0 -73 2t-99 2q-45 0 -123.5 -6t-107.5 -6q-47 0 -47 26q0 25 75 47q61 17 130.5 57t132.5 101l966 934q24 23 50 54.5t40 48t21 16.5q29 0 94 29q15 7 38 27.5t40.5 37t21.5 16.5
q5 0 8 -8.5t2.5 -23.5t-5.5 -33l-318 -1057q-54 -182 62 -205q53 -10 53 -43q0 -24 -66 -24z" />
    <glyph glyph-name="Aacute" unicode="&#xc1;" horiz-adv-x="1581" 
d="M1567 1427q-13 0 -13 13q0 12 11 30q71 120 157 244q19 27 56 27q30 0 74 -14t44 -33q0 -16 -26 -39q-101 -87 -266 -209q-24 -19 -37 -19zM1311 1036l-406 -401q-8 -8 -13 -14.5t-7.5 -13.5t2.5 -10.5t16.5 -6.5t34.5 0l274 16q23 2 37.5 14.5t24.5 43.5l119 348
q9 27 13 48t2.5 32.5t-7.5 11.5q-22 0 -90 -68zM1376 -10q-22 0 -118.5 6t-143.5 6q-41 0 -105 -1t-83 -1q-49 0 -49 25q0 22 75 38q54 11 83 21t50.5 30.5t32.5 43.5t27 71l84 252q6 17 -11 27t-47 10l-370 -18q-10 0 -33.5 -10t-38.5 -27l-237 -254q-26 -28 -37.5 -52.5
t-9.5 -41t10.5 -29t19 -18.5t19.5 -7q31 -4 41 -12t10 -24q0 -13 -18.5 -20t-45.5 -7q-13 0 -73 2t-99 2q-45 0 -123.5 -6t-107.5 -6q-47 0 -47 26q0 25 75 47q61 17 130.5 57t132.5 101l966 934q24 23 50 54.5t40 48t21 16.5q29 0 94 29q15 7 38 27.5t40.5 37t21.5 16.5
q5 0 8 -8.5t2.5 -23.5t-5.5 -33l-318 -1057q-54 -182 62 -205q53 -10 53 -43q0 -24 -66 -24z" />
    <glyph glyph-name="Acircumflex" unicode="&#xc2;" horiz-adv-x="1581" 
d="M1333 1411q-30 0 -30 21q0 13 14 24l254 168q70 45 92 45q15 0 38 -14t38 -31l147 -168q12 -15 12 -24q0 -10 -7.5 -16.5t-20.5 -6.5q-18 0 -82.5 41t-104.5 74q-18 16 -57 0q-270 -113 -293 -113zM1311 1036l-406 -401q-8 -8 -13 -14.5t-7.5 -13.5t2.5 -10.5t16.5 -6.5
t34.5 0l274 16q23 2 37.5 14.5t24.5 43.5l119 348q9 27 13 48t2.5 32.5t-7.5 11.5q-22 0 -90 -68zM1376 -10q-22 0 -118.5 6t-143.5 6q-41 0 -105 -1t-83 -1q-49 0 -49 25q0 22 75 38q54 11 83 21t50.5 30.5t32.5 43.5t27 71l84 252q6 17 -11 27t-47 10l-370 -18
q-10 0 -33.5 -10t-38.5 -27l-237 -254q-26 -28 -37.5 -52.5t-9.5 -41t10.5 -29t19 -18.5t19.5 -7q31 -4 41 -12t10 -24q0 -13 -18.5 -20t-45.5 -7q-13 0 -73 2t-99 2q-45 0 -123.5 -6t-107.5 -6q-47 0 -47 26q0 25 75 47q61 17 130.5 57t132.5 101l966 934q24 23 50 54.5
t40 48t21 16.5q29 0 94 29q15 7 38 27.5t40.5 37t21.5 16.5q5 0 8 -8.5t2.5 -23.5t-5.5 -33l-318 -1057q-54 -182 62 -205q53 -10 53 -43q0 -24 -66 -24z" />
    <glyph glyph-name="Atilde" unicode="&#xc3;" horiz-adv-x="1581" 
d="M1786 1505q-26 0 -126.5 4t-125.5 4q-24 0 -47 -12.5t-36.5 -27t-26.5 -27t-19 -12.5q-12 0 -20.5 9.5t-8.5 24.5q0 51 64 106.5t121 55.5q25 0 121 -4t122 -4q24 0 46.5 12t35 27t25 27t20.5 12q25 0 25 -35q0 -47 -57.5 -103.5t-112.5 -56.5zM1311 1036l-406 -401
q-8 -8 -13 -14.5t-7.5 -13.5t2.5 -10.5t16.5 -6.5t34.5 0l274 16q23 2 37.5 14.5t24.5 43.5l119 348q9 27 13 48t2.5 32.5t-7.5 11.5q-22 0 -90 -68zM1376 -10q-22 0 -118.5 6t-143.5 6q-41 0 -105 -1t-83 -1q-49 0 -49 25q0 22 75 38q54 11 83 21t50.5 30.5t32.5 43.5
t27 71l84 252q6 17 -11 27t-47 10l-370 -18q-10 0 -33.5 -10t-38.5 -27l-237 -254q-26 -28 -37.5 -52.5t-9.5 -41t10.5 -29t19 -18.5t19.5 -7q31 -4 41 -12t10 -24q0 -13 -18.5 -20t-45.5 -7q-13 0 -73 2t-99 2q-45 0 -123.5 -6t-107.5 -6q-47 0 -47 26q0 25 75 47
q61 17 130.5 57t132.5 101l966 934q24 23 50 54.5t40 48t21 16.5q29 0 94 29q15 7 38 27.5t40.5 37t21.5 16.5q5 0 8 -8.5t2.5 -23.5t-5.5 -33l-318 -1057q-54 -182 62 -205q53 -10 53 -43q0 -24 -66 -24z" />
    <glyph glyph-name="Adieresis" unicode="&#xc4;" horiz-adv-x="1581" 
d="M1452 1638q31 0 52.5 -26.5t21.5 -61.5q0 -46 -35.5 -81t-81.5 -35q-32 0 -54 24t-22 55q0 52 34.5 88.5t84.5 36.5zM1864 1638q31 0 52 -26.5t21 -61.5q0 -46 -35 -81t-81 -35q-32 0 -54 24t-22 55q0 52 34.5 88.5t84.5 36.5zM1311 1036l-406 -401q-8 -8 -13 -14.5
t-7.5 -13.5t2.5 -10.5t16.5 -6.5t34.5 0l274 16q23 2 37.5 14.5t24.5 43.5l119 348q9 27 13 48t2.5 32.5t-7.5 11.5q-22 0 -90 -68zM1376 -10q-22 0 -118.5 6t-143.5 6q-41 0 -105 -1t-83 -1q-49 0 -49 25q0 22 75 38q54 11 83 21t50.5 30.5t32.5 43.5t27 71l84 252
q6 17 -11 27t-47 10l-370 -18q-10 0 -33.5 -10t-38.5 -27l-237 -254q-26 -28 -37.5 -52.5t-9.5 -41t10.5 -29t19 -18.5t19.5 -7q31 -4 41 -12t10 -24q0 -13 -18.5 -20t-45.5 -7q-13 0 -73 2t-99 2q-45 0 -123.5 -6t-107.5 -6q-47 0 -47 26q0 25 75 47q61 17 130.5 57
t132.5 101l966 934q24 23 50 54.5t40 48t21 16.5q29 0 94 29q15 7 38 27.5t40.5 37t21.5 16.5q5 0 8 -8.5t2.5 -23.5t-5.5 -33l-318 -1057q-54 -182 62 -205q53 -10 53 -43q0 -24 -66 -24z" />
    <glyph glyph-name="Aring" unicode="&#xc5;" horiz-adv-x="1581" 
d="M1550 1550q0 -30 22.5 -50.5t53.5 -20.5q44 0 70 40.5t26 92.5q0 29 -21 49t-50 20q-45 0 -73 -40t-28 -91zM1665 1729q57 0 100 -28.5t43 -78.5q0 -78 -59.5 -133t-140.5 -55q-56 0 -100 30t-44 80q0 78 60 131.5t141 53.5zM1311 1036l-406 -401q-8 -8 -13 -14.5
t-7.5 -13.5t2.5 -10.5t16.5 -6.5t34.5 0l274 16q23 2 37.5 14.5t24.5 43.5l119 348q9 27 13 48t2.5 32.5t-7.5 11.5q-22 0 -90 -68zM1376 -10q-22 0 -118.5 6t-143.5 6q-41 0 -105 -1t-83 -1q-49 0 -49 25q0 22 75 38q54 11 83 21t50.5 30.5t32.5 43.5t27 71l84 252
q6 17 -11 27t-47 10l-370 -18q-10 0 -33.5 -10t-38.5 -27l-237 -254q-26 -28 -37.5 -52.5t-9.5 -41t10.5 -29t19 -18.5t19.5 -7q31 -4 41 -12t10 -24q0 -13 -18.5 -20t-45.5 -7q-13 0 -73 2t-99 2q-45 0 -123.5 -6t-107.5 -6q-47 0 -47 26q0 25 75 47q61 17 130.5 57
t132.5 101l966 934q24 23 50 54.5t40 48t21 16.5q29 0 94 29q15 7 38 27.5t40.5 37t21.5 16.5q5 0 8 -8.5t2.5 -23.5t-5.5 -33l-318 -1057q-54 -182 62 -205q53 -10 53 -43q0 -24 -66 -24z" />
    <glyph glyph-name="AE" unicode="&#xc6;" horiz-adv-x="1648" 
d="M1198 1190l-407 -488q-17 -20 -15 -25t27 -5h237q22 0 27 3.5t12 26.5l150 486q6 19 7 27.5t-3 9.5q-8 0 -35 -35zM287 2q-46 0 -130.5 -6t-113.5 -6q-26 0 -39 5t-10 17q8 24 78 45q53 15 123 70.5t135 130.5l813 959q10 12 4 22t-25 12l-159 31q-20 9 -10 30t26 21
q34 0 147.5 -3t184.5 -3q123 0 337.5 5t237.5 5h17q13 0 21 -4t7 -14q-15 -118 -41 -211q-6 -18 -32 -18q-10 0 -12.5 4t-2.5 16q0 72 -14 100q-30 56 -111 56h-250q-15 0 -34.5 -17.5t-28.5 -36.5q-13 -25 -26 -55t-27 -69.5t-24.5 -69.5t-26 -79t-23 -72.5t-23.5 -76.5
t-20 -65q-3 -12 -4 -17.5t-1.5 -13t2.5 -11t9 -3.5q105 0 199 4q60 3 92 27q28 20 47 49q5 8 21.5 21.5t23.5 13.5q8 0 14 -10t0 -23q-12 -31 -21.5 -57t-18.5 -56t-13.5 -45.5t-14.5 -56t-14 -55.5q-12 -35 -28 -35q-29 0 -29 47q0 76 -65 80q-78 4 -195 4q-49 0 -61 -51
q-18 -57 -88 -306q-11 -43 -11.5 -78.5t20.5 -58t62 -22.5h199q15 0 75.5 12t80.5 25q39 26 118 129q15 20 33 20q10 -2 16.5 -8.5t2.5 -16.5q-47 -113 -97 -208q-17 -35 -39 -35q-117 0 -303.5 6t-269.5 6h-39q-41 0 -105.5 -6t-117.5 -6q-26 0 -38 5t-9 17q9 26 73 37
q78 14 123 48.5t66 105.5q70 240 102 344q7 15 1 26t-32 11h-268q-36 0 -71 -47q-82 -94 -250 -308q-100 -126 55 -168q31 -9 42 -18.5t7 -22.5q-6 -22 -61 -22q-13 0 -71 2t-97 2z" />
    <glyph glyph-name="Ccedilla" unicode="&#xc7;" horiz-adv-x="1273" 
d="M588 -221q0 50 78.5 129.5t169.5 126.5h61q-88 -69 -131 -126t-43 -89q0 -17 30.5 -54t60.5 -78.5t30 -70.5q0 -67 -88.5 -129.5t-155.5 -62.5q-35 0 -64 17.5t-44.5 41t-24 42.5t-8.5 28q0 14 9.5 27t25.5 13q7 0 17.5 -14.5t22.5 -31.5t43 -31.5t74 -14.5q22 0 40 20.5
t18 37.5q0 28 -19 56t-41.5 47.5t-41.5 50.5t-19 65zM786 -29q-114 0 -221 39t-188.5 106t-130.5 165.5t-49 210.5q0 190 70.5 353.5t191 275t282.5 174.5t342 63q73 0 141 -17.5t108 -35t44 -17.5q12 0 42 16.5t46 16.5q17 0 20 -12.5t-5 -20.5q-39 -52 -82.5 -139.5
t-55.5 -151.5q-3 -15 -14.5 -28t-21.5 -13q-18 0 -26 17t-5 37q28 142 -19 204q-26 34 -78 53t-114 19q-144 0 -274.5 -69.5t-221.5 -183t-144.5 -262.5t-53.5 -304q0 -117 67.5 -215t171.5 -151.5t215 -53.5q89 0 164 64t143 174q22 37 35 37q15 0 15 -39q0 -36 -57 -167
t-74 -134q-8 -2 -33.5 19.5t-48.5 21.5q-15 0 -39 -13t-60.5 -26t-81.5 -13z" />
    <glyph glyph-name="Egrave" unicode="&#xc8;" horiz-adv-x="1271" 
d="M1102 1427q-13 0 -37 19q-165 122 -266 209q-27 24 -27 39q0 19 44.5 33t74.5 14q36 0 55 -27q93 -136 158 -244q10 -17 10 -30t-12 -13zM506 1337q9 0 91 -3t132 -3h522q22 0 47.5 2t43 4t20.5 2q10 0 13 -4.5t3 -15.5q0 -9 -10 -39t-24 -78.5t-21 -95.5q-2 -9 -14 -22
t-21 -13t-15.5 17t-6.5 30v10q0 29 -0.5 43t-5.5 36t-15 32t-29.5 18.5t-48.5 8.5h-295q-82 0 -100 -62l-141 -438q-6 -15 -2 -33t16 -18l297 6q79 3 145 76q13 15 31.5 27t26.5 12q9 0 14.5 -10t-0.5 -23q-38 -72 -55 -120t-39 -132q-12 -35 -27 -35t-22.5 16t-7.5 31
q0 43 -24.5 66.5t-51.5 25.5q-47 4 -256 4q-28 0 -43.5 -3t-31 -17.5t-23.5 -42.5l-105 -365q-51 -170 70 -170h338q27 0 51 3.5t46.5 14t37.5 16.5t36 25.5t29 25.5t28.5 31.5t23.5 29t24 31.5q15 20 33 20q16 0 16 -25q0 -27 -29 -96.5t-57 -113.5q-21 -33 -47 -33
q-161 0 -418.5 6t-339.5 6q-50 0 -127.5 -6t-128.5 -6q-49 0 -49 22q0 24 74 37q183 33 221 154l281 921q22 71 0 103.5t-92 46.5q-52 10 -52 41q0 22 64 22z" />
    <glyph glyph-name="Eacute" unicode="&#xc9;" horiz-adv-x="1271" 
d="M971 1427q-13 0 -13 13q0 12 11 30q71 120 157 244q19 27 56 27q30 0 74 -14t44 -33q0 -16 -26 -39q-101 -87 -266 -209q-24 -19 -37 -19zM506 1337q9 0 91 -3t132 -3h522q22 0 47.5 2t43 4t20.5 2q10 0 13 -4.5t3 -15.5q0 -9 -10 -39t-24 -78.5t-21 -95.5q-2 -9 -14 -22
t-21 -13t-15.5 17t-6.5 30v10q0 29 -0.5 43t-5.5 36t-15 32t-29.5 18.5t-48.5 8.5h-295q-82 0 -100 -62l-141 -438q-6 -15 -2 -33t16 -18l297 6q79 3 145 76q13 15 31.5 27t26.5 12q9 0 14.5 -10t-0.5 -23q-38 -72 -55 -120t-39 -132q-12 -35 -27 -35t-22.5 16t-7.5 31
q0 43 -24.5 66.5t-51.5 25.5q-47 4 -256 4q-28 0 -43.5 -3t-31 -17.5t-23.5 -42.5l-105 -365q-51 -170 70 -170h338q27 0 51 3.5t46.5 14t37.5 16.5t36 25.5t29 25.5t28.5 31.5t23.5 29t24 31.5q15 20 33 20q16 0 16 -25q0 -27 -29 -96.5t-57 -113.5q-21 -33 -47 -33
q-161 0 -418.5 6t-339.5 6q-50 0 -127.5 -6t-128.5 -6q-49 0 -49 22q0 24 74 37q183 33 221 154l281 921q22 71 0 103.5t-92 46.5q-52 10 -52 41q0 22 64 22z" />
    <glyph glyph-name="Ecircumflex" unicode="&#xca;" horiz-adv-x="1271" 
d="M737 1411q-30 0 -30 21q0 13 14 24l254 168q70 45 92 45q15 0 38 -14t38 -31l147 -168q13 -16 13 -24q0 -9 -8 -16t-21 -7q-18 0 -82.5 41t-104.5 74q-18 16 -57 0q-270 -113 -293 -113zM506 1337q9 0 91 -3t132 -3h522q22 0 47.5 2t43 4t20.5 2q10 0 13 -4.5t3 -15.5
q0 -9 -10 -39t-24 -78.5t-21 -95.5q-2 -9 -14 -22t-21 -13t-15.5 17t-6.5 30v10q0 29 -0.5 43t-5.5 36t-15 32t-29.5 18.5t-48.5 8.5h-295q-82 0 -100 -62l-141 -438q-6 -15 -2 -33t16 -18l297 6q79 3 145 76q13 15 31.5 27t26.5 12q9 0 14.5 -10t-0.5 -23q-38 -72 -55 -120
t-39 -132q-12 -35 -27 -35t-22.5 16t-7.5 31q0 43 -24.5 66.5t-51.5 25.5q-47 4 -256 4q-28 0 -43.5 -3t-31 -17.5t-23.5 -42.5l-105 -365q-51 -170 70 -170h338q27 0 51 3.5t46.5 14t37.5 16.5t36 25.5t29 25.5t28.5 31.5t23.5 29t24 31.5q15 20 33 20q16 0 16 -25
q0 -27 -29 -96.5t-57 -113.5q-21 -33 -47 -33q-161 0 -418.5 6t-339.5 6q-50 0 -127.5 -6t-128.5 -6q-49 0 -49 22q0 24 74 37q183 33 221 154l281 921q22 71 0 103.5t-92 46.5q-52 10 -52 41q0 22 64 22z" />
    <glyph glyph-name="Edieresis" unicode="&#xcb;" horiz-adv-x="1271" 
d="M856 1638q31 0 52.5 -26.5t21.5 -61.5q0 -46 -35.5 -81t-81.5 -35q-32 0 -54 24t-22 55q0 52 34.5 88.5t84.5 36.5zM1268 1638q31 0 52 -26.5t21 -61.5q0 -46 -35 -81t-81 -35q-32 0 -54 24t-22 55q0 52 34.5 88.5t84.5 36.5zM506 1337q9 0 91 -3t132 -3h522q22 0 47.5 2
t43 4t20.5 2q10 0 13 -4.5t3 -15.5q0 -9 -10 -39t-24 -78.5t-21 -95.5q-2 -9 -14 -22t-21 -13t-15.5 17t-6.5 30v10q0 29 -0.5 43t-5.5 36t-15 32t-29.5 18.5t-48.5 8.5h-295q-82 0 -100 -62l-141 -438q-6 -15 -2 -33t16 -18l297 6q79 3 145 76q13 15 31.5 27t26.5 12
q9 0 14.5 -10t-0.5 -23q-38 -72 -55 -120t-39 -132q-12 -35 -27 -35t-22.5 16t-7.5 31q0 43 -24.5 66.5t-51.5 25.5q-47 4 -256 4q-28 0 -43.5 -3t-31 -17.5t-23.5 -42.5l-105 -365q-51 -170 70 -170h338q27 0 51 3.5t46.5 14t37.5 16.5t36 25.5t29 25.5t28.5 31.5t23.5 29
t24 31.5q15 20 33 20q16 0 16 -25q0 -27 -29 -96.5t-57 -113.5q-21 -33 -47 -33q-161 0 -418.5 6t-339.5 6q-50 0 -127.5 -6t-128.5 -6q-49 0 -49 22q0 24 74 37q183 33 221 154l281 921q22 71 0 103.5t-92 46.5q-52 10 -52 41q0 22 64 22z" />
    <glyph glyph-name="Igrave" unicode="&#xcc;" horiz-adv-x="759" 
d="M811 1427q-13 0 -37 19q-165 122 -266 209q-27 24 -27 39q0 19 44.5 33t74.5 14q36 0 55 -27q93 -136 158 -244q10 -17 10 -30t-12 -13zM563 1126q21 72 2.5 103t-86.5 45q-28 6 -38.5 16t-10.5 25q0 22 62 22q53 0 116 -3t105 -3q39 0 97.5 3t111.5 3q49 0 49 -22
q0 -28 -76 -41q-78 -14 -118.5 -46t-61.5 -102l-283 -925q-21 -69 6 -103.5t99 -48.5q29 -6 40 -14.5t11 -22.5q0 -22 -62 -22q-53 0 -116 5t-105 5q-46 0 -120 -5t-126 -5q-49 0 -49 22q0 24 74 37q80 14 128 48.5t69 103.5z" />
    <glyph glyph-name="Iacute" unicode="&#xcd;" horiz-adv-x="759" 
d="M680 1427q-12 0 -12 13t10 30q65 108 158 244q19 27 55 27q30 0 74.5 -14t44.5 -33q0 -15 -27 -39q-101 -87 -266 -209q-24 -19 -37 -19zM563 1126q21 72 2.5 103t-86.5 45q-28 6 -38.5 16t-10.5 25q0 22 62 22q53 0 116 -3t105 -3q39 0 97.5 3t111.5 3q49 0 49 -22
q0 -28 -76 -41q-78 -14 -118.5 -46t-61.5 -102l-283 -925q-21 -69 6 -103.5t99 -48.5q29 -6 40 -14.5t11 -22.5q0 -22 -62 -22q-53 0 -116 5t-105 5q-46 0 -120 -5t-126 -5q-49 0 -49 22q0 24 74 37q80 14 128 48.5t69 103.5z" />
    <glyph glyph-name="Icircumflex" unicode="&#xce;" horiz-adv-x="759" 
d="M446 1411q-30 0 -30 21q0 13 14 24l254 168q70 45 92 45q15 0 38 -14t38 -31l147 -168q13 -16 13 -24q0 -9 -8 -16t-21 -7q-18 0 -82 41t-104 74q-18 16 -58 0q-270 -113 -293 -113zM563 1126q21 72 2.5 103t-86.5 45q-28 6 -38.5 16t-10.5 25q0 22 62 22q53 0 116 -3
t105 -3q39 0 97.5 3t111.5 3q49 0 49 -22q0 -28 -76 -41q-78 -14 -118.5 -46t-61.5 -102l-283 -925q-21 -69 6 -103.5t99 -48.5q29 -6 40 -14.5t11 -22.5q0 -22 -62 -22q-53 0 -116 5t-105 5q-46 0 -120 -5t-126 -5q-49 0 -49 22q0 24 74 37q80 14 128 48.5t69 103.5z" />
    <glyph glyph-name="Idieresis" unicode="&#xcf;" horiz-adv-x="759" 
d="M565 1638q31 0 52.5 -26.5t21.5 -61.5q0 -46 -35.5 -81t-81.5 -35q-32 0 -54 24t-22 55q0 52 34.5 88.5t84.5 36.5zM977 1638q31 0 52.5 -26.5t21.5 -61.5q0 -46 -35.5 -81t-81.5 -35q-32 0 -54 24t-22 55q0 52 34.5 88.5t84.5 36.5zM563 1126q21 72 2.5 103t-86.5 45
q-28 6 -38.5 16t-10.5 25q0 22 62 22q53 0 116 -3t105 -3q39 0 97.5 3t111.5 3q49 0 49 -22q0 -28 -76 -41q-78 -14 -118.5 -46t-61.5 -102l-283 -925q-21 -69 6 -103.5t99 -48.5q29 -6 40 -14.5t11 -22.5q0 -22 -62 -22q-53 0 -116 5t-105 5q-46 0 -120 -5t-126 -5
q-49 0 -49 22q0 24 74 37q80 14 128 48.5t69 103.5z" />
    <glyph glyph-name="Eth" unicode="&#xd0;" horiz-adv-x="1544" 
d="M354 723h586q11 0 16 -9.5t-2 -19.5q-33 -45 -71 -45h-570q-11 0 -15.5 13t-0.5 24q5 14 22.5 25.5t34.5 11.5zM1427 809q0 230 -134.5 343.5t-381.5 113.5q-26 0 -51.5 -6.5t-56 -32t-43.5 -66.5l-291 -913q-16 -52 -16 -86.5t13 -55.5t48.5 -32t76.5 -14t111 -3
q100 0 195 29t174.5 80t146 122.5t112.5 154.5t71.5 177t25.5 189zM686 -14q-6 0 -150 7t-233 7q-35 0 -97.5 -5t-115.5 -5q-49 0 -49 22q0 14 20 25t54 12q47 1 78 10.5t51.5 32t31 45.5t25.5 66l307 944q5 14 5 26.5t-2.5 22.5t-10.5 18.5t-15 14.5t-20.5 11.5t-23.5 9
t-27 7.5t-27.5 6t-29 5.5t-27.5 5.5q-28 6 -38.5 16t-10.5 25q0 22 61 22q57 0 149 -2t132 -2q36 0 84.5 5t112.5 5q112 0 212 -19t187 -60t150 -100.5t99 -144.5t36 -188q0 -193 -70.5 -353t-194 -267t-291.5 -166t-362 -59z" />
    <glyph glyph-name="Ntilde" unicode="&#xd1;" horiz-adv-x="1677" 
d="M1305 1485q-25 0 -126 4t-126 4q-31 0 -58.5 -20t-45.5 -40t-25 -20q-12 0 -20.5 10t-8.5 25q0 51 63.5 106.5t120.5 55.5q25 0 122 -4t122 -4q24 0 46.5 12t35 26.5t25 26.5t20.5 12q25 0 25 -34q0 -47 -57.5 -103.5t-112.5 -56.5zM1638 1331q43 0 122 3t141 3
q47 0 47 -22q0 -14 -21 -26t-55 -15q-81 -8 -122 -41.5t-75 -95.5q-18 -33 -138.5 -426.5t-139.5 -481.5q-2 -2 -0.5 -23t8.5 -38q9 -20 29.5 -56.5t34.5 -63.5t14 -36q0 -12 -17 -12h-149q-19 0 -36.5 16.5t-49.5 71.5l-500 846q-10 19 -26 39t-23 20q-9 0 -21.5 -21.5
t-19.5 -39.5l-238 -692q-13 -39 -18 -67.5t1 -48t14 -31.5t31 -21t41 -13t54 -10q30 -6 41 -14.5t11 -22.5q0 -22 -62 -22q-53 0 -115 5t-102 5t-100 -5t-113 -5q-49 0 -49 22q0 11 2.5 19t14.5 16.5t34 13.5q21 5 47.5 9.5t36.5 6t25.5 8.5t21.5 14t17.5 24.5t20 39
t22.5 58.5l305 803q11 30 15.5 66.5t-3.5 50.5l-68 80q-23 29 -182 49q-11 2 -27 16.5t-16 32.5q0 29 51 29q53 -1 151.5 -6t176.5 -5q8 0 14 -3.5t8 -6t6.5 -12t6.5 -12.5l569 -918q26 -39 41 -39q7 0 12 8t15 33q28 81 117.5 389t103.5 379q5 25 -13.5 46.5t-52 35
t-56.5 20t-46 11.5q-51 10 -51 41q0 22 63 22h219z" />
    <glyph glyph-name="Ograve" unicode="&#xd2;" horiz-adv-x="1458" 
d="M1090 1427q-13 0 -37 19q-172 128 -267 209q-26 23 -26 39q0 19 44.5 33t74.5 14q36 0 55 -27q93 -136 158 -244q10 -17 10 -30t-12 -13zM991 1360q97 0 186.5 -34.5t157 -93.5t108 -143.5t40.5 -179.5q0 -144 -37 -282.5t-109 -256.5t-169 -207.5t-225 -140.5t-269 -51
q-99 0 -190.5 39t-157.5 105t-105 157.5t-39 190.5q0 140 38.5 274t111 246t170.5 197t224.5 132.5t264.5 47.5zM981 1286q-119 0 -222.5 -54.5t-177 -146t-127 -209t-79 -244t-25.5 -251.5q0 -139 99 -238.5t239 -99.5q99 0 188.5 41.5t156.5 113t121.5 165.5t89 200
t53 215t18.5 213q0 127 -99.5 211t-234.5 84z" />
    <glyph glyph-name="Oacute" unicode="&#xd3;" horiz-adv-x="1458" 
d="M971 1427q-13 0 -13 13q0 12 11 30q71 120 157 244q19 27 56 27q30 0 74 -14t44 -33q0 -16 -26 -39q-101 -87 -266 -209q-24 -19 -37 -19zM991 1360q97 0 186.5 -34.5t157 -93.5t108 -143.5t40.5 -179.5q0 -144 -37 -282.5t-109 -256.5t-169 -207.5t-225 -140.5t-269 -51
q-99 0 -190.5 39t-157.5 105t-105 157.5t-39 190.5q0 140 38.5 274t111 246t170.5 197t224.5 132.5t264.5 47.5zM981 1286q-119 0 -222.5 -54.5t-177 -146t-127 -209t-79 -244t-25.5 -251.5q0 -139 99 -238.5t239 -99.5q99 0 188.5 41.5t156.5 113t121.5 165.5t89 200
t53 215t18.5 213q0 127 -99.5 211t-234.5 84z" />
    <glyph glyph-name="Ocircumflex" unicode="&#xd4;" horiz-adv-x="1458" 
d="M733 1411q-13 0 -22 6t-9 15q0 12 15 24l254 168q70 45 92 45q15 0 38 -14t38 -31l147 -168q12 -15 12 -24q0 -10 -7.5 -16.5t-20.5 -6.5q-18 0 -82.5 41t-104.5 74q-18 16 -57 0q-270 -113 -293 -113zM991 1360q97 0 186.5 -34.5t157 -93.5t108 -143.5t40.5 -179.5
q0 -144 -37 -282.5t-109 -256.5t-169 -207.5t-225 -140.5t-269 -51q-99 0 -190.5 39t-157.5 105t-105 157.5t-39 190.5q0 140 38.5 274t111 246t170.5 197t224.5 132.5t264.5 47.5zM981 1286q-119 0 -222.5 -54.5t-177 -146t-127 -209t-79 -244t-25.5 -251.5
q0 -139 99 -238.5t239 -99.5q99 0 188.5 41.5t156.5 113t121.5 165.5t89 200t53 215t18.5 213q0 127 -99.5 211t-234.5 84z" />
    <glyph glyph-name="Otilde" unicode="&#xd5;" horiz-adv-x="1458" 
d="M1188 1485q-26 0 -126 4t-126 4q-31 0 -58.5 -20t-45.5 -40t-25 -20q-12 0 -20.5 10t-8.5 25q0 51 64 106.5t121 55.5q25 0 121 -4t122 -4q24 0 46.5 12t35 26.5t25 26.5t20.5 12q25 0 25 -34q0 -47 -57.5 -103.5t-112.5 -56.5zM991 1360q97 0 186.5 -34.5t157 -93.5
t108 -143.5t40.5 -179.5q0 -144 -37 -282.5t-109 -256.5t-169 -207.5t-225 -140.5t-269 -51q-99 0 -190.5 39t-157.5 105t-105 157.5t-39 190.5q0 140 38.5 274t111 246t170.5 197t224.5 132.5t264.5 47.5zM981 1286q-119 0 -222.5 -54.5t-177 -146t-127 -209t-79 -244
t-25.5 -251.5q0 -139 99 -238.5t239 -99.5q99 0 188.5 41.5t156.5 113t121.5 165.5t89 200t53 215t18.5 213q0 127 -99.5 211t-234.5 84z" />
    <glyph glyph-name="Odieresis" unicode="&#xd6;" horiz-adv-x="1458" 
d="M856 1638q31 0 52.5 -26.5t21.5 -61.5q0 -46 -35.5 -81t-81.5 -35q-32 0 -54 24t-22 55q0 52 34.5 88.5t84.5 36.5zM1268 1638q31 0 52 -26.5t21 -61.5q0 -46 -35 -81t-81 -35q-32 0 -54 24t-22 55q0 52 34.5 88.5t84.5 36.5zM991 1360q97 0 186.5 -34.5t157 -93.5
t108 -143.5t40.5 -179.5q0 -144 -37 -282.5t-109 -256.5t-169 -207.5t-225 -140.5t-269 -51q-99 0 -190.5 39t-157.5 105t-105 157.5t-39 190.5q0 140 38.5 274t111 246t170.5 197t224.5 132.5t264.5 47.5zM981 1286q-119 0 -222.5 -54.5t-177 -146t-127 -209t-79 -244
t-25.5 -251.5q0 -139 99 -238.5t239 -99.5q99 0 188.5 41.5t156.5 113t121.5 165.5t89 200t53 215t18.5 213q0 127 -99.5 211t-234.5 84z" />
    <glyph glyph-name="multiply" unicode="&#xd7;" horiz-adv-x="1228" 
d="M594 612q8 -8 12 -4l2 2l295 293q7 10 21 10q11 0 18 -10q3 -6 12.5 -23t13 -25t7.5 -21.5t0.5 -23.5t-12.5 -19l-269 -269q-5 -5 0 -10l293 -293q20 -20 2.5 -53.5t-37.5 -50.5q-6 -6 -16 -6q-13 0 -21 8l-305 307q-7 7 -14 0l-293 -293q-7 -7 -19 -7.5t-18 5.5
q-5 5 -11.5 12.5t-15 20.5t-13.5 24.5t-4.5 24.5t9.5 22l275 275q9 9 -2 20l-248 248q-10 14 -10.5 29.5t7.5 35t14.5 31t11.5 17.5q7 7 19 7t19 -7z" />
    <glyph glyph-name="Oslash" unicode="&#xd8;" horiz-adv-x="1458" 
d="M293 14q-43 -43 -55 -43q-17 0 -36.5 11.5t-19.5 25.5q0 23 33 60l79 84q-112 136 -112 311q0 140 38.5 274t111 246t170.5 197t224.5 132.5t264.5 47.5q183 0 324 -112l78 83q28 33 53 33q16 0 28.5 -10t12.5 -25q0 -34 -39 -76l-66 -70q101 -121 101 -274
q0 -144 -37 -282.5t-109 -256.5t-169 -207.5t-225 -140.5t-269 -51q-177 0 -315 115zM981 1286q-119 0 -222.5 -54.5t-177 -146t-127 -209t-79 -244t-25.5 -251.5q0 -73 29 -137l866 929q-47 53 -117 83t-147 30zM1296 1091l-865 -929q47 -56 114 -87.5t143 -31.5
q99 0 188.5 41.5t156.5 113t121.5 165.5t89 200t53 215t18.5 213q0 53 -19 100z" />
    <glyph glyph-name="Ugrave" unicode="&#xd9;" horiz-adv-x="1509" 
d="M1178 1427q-13 0 -37 19q-172 128 -267 209q-26 23 -26 39q0 19 44.5 33t74.5 14q36 0 55 -27q93 -136 158 -244q10 -17 10 -30t-12 -13zM1540 1120q-39 -106 -72.5 -205.5t-73.5 -221t-57 -173.5q-34 -101 -71.5 -179.5t-91.5 -150t-119 -118t-153.5 -74t-196.5 -27.5
q-76 0 -144.5 17.5t-128 54.5t-95.5 94t-46 136.5t20 181.5l193 665q37 125 -43 150q-66 19 -66 45q0 22 78 22q27 0 85.5 -3t96.5 -3q32 0 84 2t70 2q47 0 47 -22q0 -12 -16.5 -20.5t-57.5 -20.5q-30 -9 -69 -50.5t-56 -97.5l-178 -637q-29 -114 -20 -196t52.5 -135
t106 -78t140.5 -25q87 0 160 28.5t126 76t98.5 122t77.5 152.5t64 182q33 110 125 433q25 77 25 144.5t-35 78.5q-51 16 -51 41q0 22 63 22q29 0 71.5 -1t69.5 -1q33 0 85 3t71 3q49 0 49 -22q0 -25 -76 -41q-93 -18 -141 -154z" />
    <glyph glyph-name="Uacute" unicode="&#xda;" horiz-adv-x="1509" 
d="M1059 1427q-12 0 -12 13t10 30q71 120 157 244q19 27 56 27q30 0 74.5 -14t44.5 -33q0 -15 -27 -39q-101 -87 -266 -209q-24 -19 -37 -19zM1540 1120q-39 -106 -72.5 -205.5t-73.5 -221t-57 -173.5q-34 -101 -71.5 -179.5t-91.5 -150t-119 -118t-153.5 -74t-196.5 -27.5
q-76 0 -144.5 17.5t-128 54.5t-95.5 94t-46 136.5t20 181.5l193 665q37 125 -43 150q-66 19 -66 45q0 22 78 22q27 0 85.5 -3t96.5 -3q32 0 84 2t70 2q47 0 47 -22q0 -12 -16.5 -20.5t-57.5 -20.5q-30 -9 -69 -50.5t-56 -97.5l-178 -637q-29 -114 -20 -196t52.5 -135
t106 -78t140.5 -25q87 0 160 28.5t126 76t98.5 122t77.5 152.5t64 182q33 110 125 433q25 77 25 144.5t-35 78.5q-51 16 -51 41q0 22 63 22q29 0 71.5 -1t69.5 -1q33 0 85 3t71 3q49 0 49 -22q0 -25 -76 -41q-93 -18 -141 -154z" />
    <glyph glyph-name="Ucircumflex" unicode="&#xdb;" horiz-adv-x="1509" 
d="M825 1411q-30 0 -30 21q0 13 14 24l254 168q70 45 92 45q15 0 38 -14t38 -31l147 -168q13 -16 13 -24q0 -9 -8 -16t-21 -7q-18 0 -82 41t-104 74q-18 16 -58 0q-270 -113 -293 -113zM1540 1120q-39 -106 -72.5 -205.5t-73.5 -221t-57 -173.5q-34 -101 -71.5 -179.5
t-91.5 -150t-119 -118t-153.5 -74t-196.5 -27.5q-76 0 -144.5 17.5t-128 54.5t-95.5 94t-46 136.5t20 181.5l193 665q37 125 -43 150q-66 19 -66 45q0 22 78 22q27 0 85.5 -3t96.5 -3q32 0 84 2t70 2q47 0 47 -22q0 -12 -16.5 -20.5t-57.5 -20.5q-30 -9 -69 -50.5t-56 -97.5
l-178 -637q-29 -114 -20 -196t52.5 -135t106 -78t140.5 -25q87 0 160 28.5t126 76t98.5 122t77.5 152.5t64 182q33 110 125 433q25 77 25 144.5t-35 78.5q-51 16 -51 41q0 22 63 22q29 0 71.5 -1t69.5 -1q33 0 85 3t71 3q49 0 49 -22q0 -25 -76 -41q-93 -18 -141 -154z" />
    <glyph glyph-name="Udieresis" unicode="&#xdc;" horiz-adv-x="1509" 
d="M944 1638q31 0 52.5 -26.5t21.5 -61.5q0 -46 -35.5 -81t-81.5 -35q-32 0 -54 24t-22 55q0 52 34.5 88.5t84.5 36.5zM1356 1638q31 0 52.5 -26.5t21.5 -61.5q0 -46 -35.5 -81t-81.5 -35q-32 0 -54 24t-22 55q0 52 34.5 88.5t84.5 36.5zM1540 1120q-39 -106 -72.5 -205.5
t-73.5 -221t-57 -173.5q-34 -101 -71.5 -179.5t-91.5 -150t-119 -118t-153.5 -74t-196.5 -27.5q-76 0 -144.5 17.5t-128 54.5t-95.5 94t-46 136.5t20 181.5l193 665q37 125 -43 150q-66 19 -66 45q0 22 78 22q27 0 85.5 -3t96.5 -3q32 0 84 2t70 2q47 0 47 -22
q0 -12 -16.5 -20.5t-57.5 -20.5q-30 -9 -69 -50.5t-56 -97.5l-178 -637q-29 -114 -20 -196t52.5 -135t106 -78t140.5 -25q87 0 160 28.5t126 76t98.5 122t77.5 152.5t64 182q33 110 125 433q25 77 25 144.5t-35 78.5q-51 16 -51 41q0 22 63 22q29 0 71.5 -1t69.5 -1
q33 0 85 3t71 3q49 0 49 -22q0 -25 -76 -41q-93 -18 -141 -154z" />
    <glyph glyph-name="Yacute" unicode="&#xdd;" horiz-adv-x="1218" 
d="M856 1427q-12 0 -12 13t10 30q65 108 158 244q19 27 55 27q30 0 74.5 -14t44.5 -33q0 -15 -27 -39q-101 -87 -266 -209q-24 -19 -37 -19zM455 221l92 303q11 48 9.5 75.5t-11.5 76.5l-86 393q-18 81 -40.5 124.5t-46.5 58t-65 18.5q-27 3 -42 16.5t-15 28.5q0 22 72 22
q24 0 103 -3t128 -3q32 0 84 2t70 2q47 0 47 -22q0 -14 -20.5 -26t-55.5 -15q-23 -2 -35 -4.5t-24 -10t-15 -20.5t-2 -35t8 -55l74 -338q18 -78 39 -78q10 0 27.5 16.5t58.5 61.5q138 150 246 285q45 57 59 93.5t-2 56.5t-63 26q-20 3 -35 15t-15 26q0 22 62 22
q28 0 78.5 -1t81.5 -1q43 0 113 3t87 3q47 0 47 -22q0 -25 -73 -41q-49 -10 -124 -66.5t-128 -113.5q-59 -62 -190 -207t-150 -166q-42 -45 -62.5 -86.5t-42.5 -110.5l-92 -303q-22 -69 4.5 -113.5t94.5 -58.5q29 -6 40 -14.5t11 -22.5q0 -22 -62 -22q-53 0 -116.5 5
t-104.5 5q-47 0 -120.5 -5t-125.5 -5q-49 0 -49 22q0 24 74 37q158 28 203 172z" />
    <glyph glyph-name="Thorn" unicode="&#xde;" horiz-adv-x="1257" 
d="M434 203q-21 -69 5.5 -104.5t97.5 -49.5q29 -6 40 -14.5t11 -22.5q0 -22 -62 -22q-53 0 -116.5 5t-104.5 5q-47 0 -120.5 -5t-125.5 -5q-49 0 -49 22q0 24 74 37q80 14 128 48.5t69 103.5l282 925q21 72 2.5 103t-86.5 45q-28 6 -38.5 16t-10.5 25q0 22 62 22
q53 0 116.5 -3t104.5 -3q39 0 97.5 3t111.5 3q49 0 49 -22q0 -28 -76 -41q-78 -14 -118.5 -46t-61.5 -102l-13 -41q-6 -21 3 -18q32 16 69 16q112 0 209.5 -40t161 -122.5t63.5 -191.5q0 -105 -48.5 -195t-128.5 -149.5t-182.5 -93t-211.5 -33.5q-86 0 -86 27q0 21 37 26
q206 23 328 122.5t122 268.5q0 131 -79 228.5t-201 97.5q-50 0 -67 -17.5t-32 -68.5z" />
    <glyph glyph-name="germandbls" unicode="&#xdf;" horiz-adv-x="991" 
d="M864 907q12 11 68 55t93.5 77t72.5 82t35 89q0 69 -40.5 115.5t-134.5 46.5q-68 0 -133.5 -34.5t-116.5 -88.5t-98 -128.5t-79 -144t-60 -145.5q-128 -349 -213 -831q-18 -99 -51 -195.5t-83 -188.5t-123.5 -149t-158.5 -57q-186 0 -186 103q0 36 24.5 63t55.5 27
q13 0 30 -15t33 -33.5t45 -33.5t64 -15q63 0 93 52.5t58 187.5q61 303 105 496q88 404 174 606q130 310 304 454t417 144q96 0 162.5 -57t66.5 -142q0 -47 -43 -101t-91.5 -90t-107 -75.5t-67.5 -46.5l-78 -68q-23 -20 -37 -35.5t-30 -41.5t-23.5 -60.5t-7.5 -79.5
q0 -25 21 -86t40 -98q5 -10 17 -34.5t17 -35t13.5 -30.5t12.5 -32.5t7 -29t3 -31.5q0 -36 -13 -69t-38 -60.5t-41 -42.5t-41 -34q-120 -93 -230 -95q-137 -5 -137 80q0 34 28 62t60 28q19 0 30.5 -8t29.5 -33q23 -30 71 -30q53 0 96.5 39t43.5 88q0 52 -68 188
q-74 146 -74 213q0 36 12.5 71.5t27 60t49 61t55 55t69.5 61.5z" />
    <glyph glyph-name="agrave" unicode="&#xe0;" horiz-adv-x="923" 
d="M688 997q-94 263 -94 275q0 34 32.5 64t59.5 30q30 0 37 -82q2 -31 8 -105t10 -127.5t4 -62.5q0 -26 -16 -26q-29 0 -41 34zM614 -29q-28 0 -45.5 27t-17.5 63q0 77 86 252q18 36 6 37q-4 1 -10 -6q-190 -212 -301 -292.5t-215 -80.5q-28 0 -58 23.5t-30 48.5
q0 105 80 243t190.5 255t224.5 200q44 31 103 60.5t80 29.5q16 0 36.5 -11t30.5 -27q13 -21 25 2q19 44 30 60.5t25 16.5q26 0 48 -13t22 -28q0 -8 -15 -51l-211 -581q-13 -40 -0.5 -69.5t39.5 -29.5q15 0 64 29.5t67 50.5q12 15 30 22q20 8 20 -18q0 -13 -21 -41
q-39 -59 -121 -115.5t-162 -56.5zM674 723q-47 0 -130.5 -66t-161 -155.5t-135 -187.5t-57.5 -156q0 -41 9 -52.5t39 -11.5q67 0 194.5 124t225.5 260.5t98 178.5q0 26 -27 46t-55 20z" />
    <glyph glyph-name="aacute" unicode="&#xe1;" horiz-adv-x="923" 
d="M760 979q-31 -31 -47 -31q-7 0 -12 5.5t-5 11.5q0 16 4 24q75 153 154 295q26 51 51 51q17 0 48.5 -26.5t31.5 -48.5q0 -7 -91 -120t-134 -161zM614 -29q-28 0 -45.5 27t-17.5 63q0 77 86 252q18 36 6 37q-4 1 -10 -6q-190 -212 -301 -292.5t-215 -80.5q-28 0 -58 23.5
t-30 48.5q0 105 80 243t190.5 255t224.5 200q44 31 103 60.5t80 29.5q16 0 36.5 -11t30.5 -27q13 -21 25 2q19 44 30 60.5t25 16.5q26 0 48 -13t22 -28q0 -8 -15 -51l-211 -581q-13 -40 -0.5 -69.5t39.5 -29.5q15 0 64 29.5t67 50.5q12 15 30 22q20 8 20 -18q0 -13 -21 -41
q-39 -59 -121 -115.5t-162 -56.5zM674 723q-47 0 -130.5 -66t-161 -155.5t-135 -187.5t-57.5 -156q0 -41 9 -52.5t39 -11.5q67 0 194.5 124t225.5 260.5t98 178.5q0 26 -27 46t-55 20z" />
    <glyph glyph-name="acircumflex" unicode="&#xe2;" horiz-adv-x="923" 
d="M760 1167q-68 -70 -191 -188q-33 -33 -47 -33q-18 0 -18 19q0 15 14 36q32 45 99 132.5t100 126.5q74 86 102 86q13 0 20 -13t17 -49q13 -54 30 -165t17 -130q0 -14 -4.5 -28.5t-11.5 -14.5q-20 0 -35 35q-9 24 -37.5 95t-36.5 91q-6 16 -18 0zM614 -29q-28 0 -45.5 27
t-17.5 63q0 77 86 252q18 36 6 37q-4 1 -10 -6q-190 -212 -301 -292.5t-215 -80.5q-28 0 -58 23.5t-30 48.5q0 105 80 243t190.5 255t224.5 200q44 31 103 60.5t80 29.5q16 0 36.5 -11t30.5 -27q13 -21 25 2q19 44 30 60.5t25 16.5q26 0 48 -13t22 -28q0 -8 -15 -51
l-211 -581q-13 -40 -0.5 -69.5t39.5 -29.5q15 0 64 29.5t67 50.5q12 15 30 22q20 8 20 -18q0 -13 -21 -41q-39 -59 -121 -115.5t-162 -56.5zM674 723q-47 0 -130.5 -66t-161 -155.5t-135 -187.5t-57.5 -156q0 -41 9 -52.5t39 -11.5q67 0 194.5 124t225.5 260.5t98 178.5
q0 26 -27 46t-55 20z" />
    <glyph glyph-name="atilde" unicode="&#xe3;" horiz-adv-x="923" 
d="M502 999q-14 0 -21.5 12t-7.5 29q0 19 73 89.5t107 70.5q25 0 109.5 -8t109.5 -8t46.5 11t33.5 23.5t22 23.5t15 11q15 0 24 -9.5t9 -24.5q0 -19 -70 -88.5t-104 -69.5q-25 0 -114.5 7t-115.5 7q-22 0 -47.5 -19t-44 -38t-24.5 -19zM614 -29q-28 0 -45.5 27t-17.5 63
q0 77 86 252q18 36 6 37q-4 1 -10 -6q-190 -212 -301 -292.5t-215 -80.5q-28 0 -58 23.5t-30 48.5q0 105 80 243t190.5 255t224.5 200q44 31 103 60.5t80 29.5q16 0 36.5 -11t30.5 -27q13 -21 25 2q19 44 30 60.5t25 16.5q26 0 48 -13t22 -28q0 -8 -15 -51l-211 -581
q-13 -40 -0.5 -69.5t39.5 -29.5q15 0 64 29.5t67 50.5q12 15 30 22q20 8 20 -18q0 -13 -21 -41q-39 -59 -121 -115.5t-162 -56.5zM674 723q-47 0 -130.5 -66t-161 -155.5t-135 -187.5t-57.5 -156q0 -41 9 -52.5t39 -11.5q67 0 194.5 124t225.5 260.5t98 178.5q0 26 -27 46
t-55 20z" />
    <glyph glyph-name="adieresis" unicode="&#xe4;" horiz-adv-x="923" 
d="M623 1217q31 0 50 -27t19 -62q0 -46 -33.5 -81t-78.5 -35q-30 0 -51 24t-21 56q0 51 33 88t82 37zM932 1217q31 0 50 -27t19 -62q0 -46 -33.5 -81t-78.5 -35q-30 0 -51 24t-21 56q0 51 33 88t82 37zM614 -29q-28 0 -45.5 27t-17.5 63q0 77 86 252q18 36 6 37q-4 1 -10 -6
q-190 -212 -301 -292.5t-215 -80.5q-28 0 -58 23.5t-30 48.5q0 105 80 243t190.5 255t224.5 200q44 31 103 60.5t80 29.5q16 0 36.5 -11t30.5 -27q13 -21 25 2q19 44 30 60.5t25 16.5q26 0 48 -13t22 -28q0 -8 -15 -51l-211 -581q-13 -40 -0.5 -69.5t39.5 -29.5
q15 0 64 29.5t67 50.5q12 15 30 22q20 8 20 -18q0 -13 -21 -41q-39 -59 -121 -115.5t-162 -56.5zM674 723q-47 0 -130.5 -66t-161 -155.5t-135 -187.5t-57.5 -156q0 -41 9 -52.5t39 -11.5q67 0 194.5 124t225.5 260.5t98 178.5q0 26 -27 46t-55 20z" />
    <glyph glyph-name="aring" unicode="&#xe5;" horiz-adv-x="923" 
d="M694 1147q0 -35 18 -57.5t48 -22.5q43 0 83 45.5t40 99.5q0 34 -21 58t-53 24q-45 0 -80 -44.5t-35 -102.5zM844 1352q51 0 82.5 -31.5t31.5 -81.5q0 -99 -75.5 -164t-153.5 -65q-50 0 -80.5 33t-30.5 85q0 86 75.5 155t150.5 69zM614 -29q-28 0 -45.5 27t-17.5 63
q0 77 86 252q18 36 6 37q-4 1 -10 -6q-190 -212 -301 -292.5t-215 -80.5q-28 0 -58 23.5t-30 48.5q0 105 80 243t190.5 255t224.5 200q44 31 103 60.5t80 29.5q16 0 36.5 -11t30.5 -27q13 -21 25 2q19 44 30 60.5t25 16.5q26 0 48 -13t22 -28q0 -8 -15 -51l-211 -581
q-13 -40 -0.5 -69.5t39.5 -29.5q15 0 64 29.5t67 50.5q12 15 30 22q20 8 20 -18q0 -13 -21 -41q-39 -59 -121 -115.5t-162 -56.5zM674 723q-47 0 -130.5 -66t-161 -155.5t-135 -187.5t-57.5 -156q0 -41 9 -52.5t39 -11.5q67 0 194.5 124t225.5 260.5t98 178.5q0 26 -27 46
t-55 20z" />
    <glyph glyph-name="ae" unicode="&#xe6;" horiz-adv-x="966" 
d="M422 653q21 0 24 -14q2 -9 7 1q1 2 2 5q24 79 91 141t154 62q53 0 84 -42t31 -101t-20.5 -108.5t-61 -88.5t-83 -67t-103.5 -60q-23 -11 -23 -45q0 -49 1.5 -78.5t8.5 -64.5t19.5 -54t36.5 -32t59 -13q82 0 129 70q5 8 10.5 16.5t8.5 14.5t6.5 11.5t6 8t5.5 2.5
q12 0 12 -29q0 -73 -75 -139.5t-160 -66.5q-63 0 -112 40t-66 136q-1 5 -3.5 8t-6 1t-7.5 -11q-69 -181 -250 -181q-49 0 -73.5 44.5t-24.5 103.5q0 58 46 151.5t107.5 175.5t124.5 142.5t95 60.5zM389 518q-40 0 -89 -51t-83.5 -130.5t-34.5 -152.5q0 -90 45 -90
q60 0 108.5 60t72.5 145t24 172q0 11 -1 18t-5 14.5t-13 11t-24 3.5zM653 748q-36 0 -66.5 -46t-46.5 -115t-16 -141q0 -20 21 -20q13 0 40.5 18.5t56.5 48t51 73.5t22 87q0 95 -62 95z" />
    <glyph glyph-name="ccedilla" unicode="&#xe7;" horiz-adv-x="651" 
d="M145 -205q0 51 72.5 130.5t161.5 125.5h61q-88 -69 -131 -126t-43 -89q0 -17 27 -54t53.5 -78.5t26.5 -70.5q0 -68 -74.5 -130t-138.5 -62q-28 0 -51.5 12t-38 28.5t-24 35.5t-13.5 32.5t-4 20.5q0 41 24 41q18 0 33 -19q27 -32 59 -52.5t58 -20.5q23 0 36 16.5t13 40.5
q0 22 -16.5 48t-37 48t-37 55.5t-16.5 67.5zM711 768q0 -22 -21 -54t-41 -32q-15 0 -27 15t-20.5 33t-30.5 33t-55 15q-63 0 -130.5 -97t-110 -233t-42.5 -247q0 -60 19.5 -104t64.5 -44q66 0 110.5 32t98.5 97q14 19 35 19q3 0 5 -1.5t3 -5t1 -6.5t-0.5 -8.5t-0.5 -7.5
q0 -11 -23 -42.5t-61.5 -68t-102.5 -64.5t-132 -28q-70 0 -117.5 48t-46.5 155q0 63 14 135.5t41 149t71 146t98.5 124.5t129 88t158.5 33q51 0 82 -29t31 -51z" />
    <glyph glyph-name="egrave" unicode="&#xe8;" horiz-adv-x="747" 
d="M578 997q-95 266 -95 275q0 34 32.5 64t59.5 30q30 0 37 -82q2 -33 8 -105.5t10.5 -126.5t4.5 -63q0 -26 -17 -26q-15 0 -24 7t-16 27zM260 -31q-67 0 -120.5 61.5t-53.5 170.5q0 75 23.5 161.5t70.5 172.5t109.5 156t148 113.5t178.5 43.5q81 0 116.5 -32t35.5 -97
q0 -58 -53 -111.5t-128.5 -88t-153.5 -55t-134 -20.5q-21 0 -31 -20q-21 -44 -28 -85.5t-7 -109.5q0 -157 103 -157q66 0 124 39t97 90q17 22 37 22t20 -20q0 -11 -4 -17q-63 -102 -154 -159.5t-196 -57.5zM586 788q-52 0 -121 -55.5t-114.5 -120.5t-45.5 -96q0 -8 2.5 -10
t11.5 -2q28 0 77 12t107 35.5t99 69t41 102.5q0 65 -57 65z" />
    <glyph glyph-name="eacute" unicode="&#xe9;" horiz-adv-x="747" 
d="M649 979q-31 -31 -47 -31q-7 0 -11.5 5.5t-4.5 11.5q0 16 4 24q83 168 153 295q26 51 52 51q17 0 48 -26.5t31 -48.5q0 -7 -91 -120t-134 -161zM260 -31q-67 0 -120.5 61.5t-53.5 170.5q0 75 23.5 161.5t70.5 172.5t109.5 156t148 113.5t178.5 43.5q81 0 116.5 -32
t35.5 -97q0 -58 -53 -111.5t-128.5 -88t-153.5 -55t-134 -20.5q-21 0 -31 -20q-21 -44 -28 -85.5t-7 -109.5q0 -157 103 -157q66 0 124 39t97 90q17 22 37 22t20 -20q0 -11 -4 -17q-63 -102 -154 -159.5t-196 -57.5zM586 788q-52 0 -121 -55.5t-114.5 -120.5t-45.5 -96
q0 -8 2.5 -10t11.5 -2q28 0 77 12t107 35.5t99 69t41 102.5q0 65 -57 65z" />
    <glyph glyph-name="ecircumflex" unicode="&#xea;" horiz-adv-x="747" 
d="M649 1167q-81 -83 -190 -188q-33 -33 -47 -33q-19 0 -19 19q0 13 15 36q121 170 198 259q74 86 103 86q13 0 19.5 -12.5t16.5 -49.5q14 -54 31 -165t17 -130q0 -14 -5 -28.5t-12 -14.5q-20 0 -35 35q-48 123 -73 186q-3 7 -8.5 6.5t-10.5 -6.5zM260 -31
q-67 0 -120.5 61.5t-53.5 170.5q0 75 23.5 161.5t70.5 172.5t109.5 156t148 113.5t178.5 43.5q81 0 116.5 -32t35.5 -97q0 -58 -53 -111.5t-128.5 -88t-153.5 -55t-134 -20.5q-21 0 -31 -20q-21 -44 -28 -85.5t-7 -109.5q0 -157 103 -157q66 0 124 39t97 90q17 22 37 22
t20 -20q0 -11 -4 -17q-63 -102 -154 -159.5t-196 -57.5zM586 788q-52 0 -121 -55.5t-114.5 -120.5t-45.5 -96q0 -8 2.5 -10t11.5 -2q28 0 77 12t107 35.5t99 69t41 102.5q0 65 -57 65z" />
    <glyph glyph-name="edieresis" unicode="&#xeb;" horiz-adv-x="747" 
d="M512 1217q31 0 50.5 -27.5t19.5 -61.5q0 -46 -34 -81t-79 -35q-30 0 -51 24t-21 56q0 51 33 88t82 37zM821 1217q31 0 50.5 -27.5t19.5 -61.5q0 -46 -34 -81t-79 -35q-30 0 -50.5 24t-20.5 56q0 51 32.5 88t81.5 37zM260 -31q-67 0 -120.5 61.5t-53.5 170.5
q0 75 23.5 161.5t70.5 172.5t109.5 156t148 113.5t178.5 43.5q81 0 116.5 -32t35.5 -97q0 -58 -53 -111.5t-128.5 -88t-153.5 -55t-134 -20.5q-21 0 -31 -20q-21 -44 -28 -85.5t-7 -109.5q0 -157 103 -157q66 0 124 39t97 90q17 22 37 22t20 -20q0 -11 -4 -17
q-63 -102 -154 -159.5t-196 -57.5zM586 788q-52 0 -121 -55.5t-114.5 -120.5t-45.5 -96q0 -8 2.5 -10t11.5 -2q28 0 77 12t107 35.5t99 69t41 102.5q0 65 -57 65z" />
    <glyph glyph-name="igrave" unicode="&#xec;" horiz-adv-x="561" 
d="M432 997q-94 263 -94 275q0 34 32.5 64t59.5 30q30 0 37 -82q2 -31 8 -105t10 -127.5t4 -62.5q0 -26 -16 -26q-29 0 -41 34zM125 156l147 397q33 98 0 98q-38 0 -137 -47q-6 -3 -18.5 0.5t-12.5 9.5q0 17 19 31q159 113 334 211q8 4 16 6t15.5 -0.5t7.5 -13.5
q0 -29 -21 -90l-211 -582q-14 -40 -14 -59q0 -15 6.5 -24t17.5 -9q30 0 86 38.5t89 68t55 51.5q4 4 8 4q12 0 12 -10q0 -55 -42 -107.5t-99.5 -85t-111.5 -52.5t-83 -20q-88 0 -88 72q0 48 25 113z" />
    <glyph glyph-name="iacute" unicode="&#xed;" horiz-adv-x="561" 
d="M504 979q-31 -31 -47 -31q-7 0 -12 5.5t-5 11.5q0 16 4 24q75 153 154 295q26 51 51 51q17 0 48.5 -26.5t31.5 -48.5q0 -7 -91 -120t-134 -161zM125 156l147 397q33 98 0 98q-38 0 -137 -47q-6 -3 -18.5 0.5t-12.5 9.5q0 17 19 31q159 113 334 211q8 4 16 6t15.5 -0.5
t7.5 -13.5q0 -29 -21 -90l-211 -582q-14 -40 -14 -59q0 -15 6.5 -24t17.5 -9q30 0 86 38.5t89 68t55 51.5q4 4 8 4q12 0 12 -10q0 -55 -42 -107.5t-99.5 -85t-111.5 -52.5t-83 -20q-88 0 -88 72q0 48 25 113z" />
    <glyph glyph-name="icircumflex" unicode="&#xee;" horiz-adv-x="561" 
d="M504 1167q-68 -70 -191 -188q-33 -33 -47 -33q-18 0 -18 19q0 15 14 36q32 45 99 132.5t100 126.5q74 86 102 86q13 0 20 -13t17 -49q13 -54 30 -165t17 -130q0 -14 -4.5 -28.5t-11.5 -14.5q-20 0 -35 35q-9 24 -37.5 95t-36.5 91q-6 16 -18 0zM125 156l147 397
q33 98 0 98q-38 0 -137 -47q-6 -3 -18.5 0.5t-12.5 9.5q0 17 19 31q159 113 334 211q8 4 16 6t15.5 -0.5t7.5 -13.5q0 -29 -21 -90l-211 -582q-14 -40 -14 -59q0 -15 6.5 -24t17.5 -9q30 0 86 38.5t89 68t55 51.5q4 4 8 4q12 0 12 -10q0 -55 -42 -107.5t-99.5 -85
t-111.5 -52.5t-83 -20q-88 0 -88 72q0 48 25 113z" />
    <glyph glyph-name="idieresis" unicode="&#xef;" horiz-adv-x="561" 
d="M367 1217q31 0 50 -27t19 -62q0 -46 -33.5 -81t-78.5 -35q-30 0 -51 24t-21 56q0 51 33 88t82 37zM676 1217q31 0 50 -27t19 -62q0 -46 -33.5 -81t-78.5 -35q-30 0 -51 24t-21 56q0 51 33 88t82 37zM125 156l147 397q33 98 0 98q-38 0 -137 -47q-6 -3 -18.5 0.5
t-12.5 9.5q0 17 19 31q159 113 334 211q8 4 16 6t15.5 -0.5t7.5 -13.5q0 -29 -21 -90l-211 -582q-14 -40 -14 -59q0 -15 6.5 -24t17.5 -9q30 0 86 38.5t89 68t55 51.5q4 4 8 4q12 0 12 -10q0 -55 -42 -107.5t-99.5 -85t-111.5 -52.5t-83 -20q-88 0 -88 72q0 48 25 113z" />
    <glyph glyph-name="eth" unicode="&#xf0;" horiz-adv-x="819" 
d="M668 623q0 82 -19 122.5t-69 40.5q-77 0 -163 -108t-140 -246.5t-54 -234.5q0 -82 19 -123t69 -41q77 0 163 108t140 247t54 235zM850 905q0 -67 -27 -220t-43 -218q-17 -71 -48 -140.5t-77 -134t-101 -113.5t-124 -78.5t-143 -29.5q-70 0 -132.5 67t-62.5 175
q0 62 17 132.5t47.5 141.5t77 136t101.5 115t125 80t144 30q39 0 74 -21q28 -17 31 -8q12 29 12 111q0 118 -37 211l-295 -144q-20 -10 -31 -10q-18 0 -18 21t13 47.5t32 36.5l260 127q-91 142 -258 170q-9 2 -18 9.5t-9 18.5q0 13 9 19t18 7t27 1q105 0 191.5 -46.5
t144.5 -129.5l184 90q22 10 39 10q4 0 10 -10.5t6 -16.5q0 -26 -18 -48t-43 -33l-137 -66q59 -124 59 -289z" />
    <glyph glyph-name="ntilde" unicode="&#xf1;" horiz-adv-x="1040" 
d="M514 999q-14 0 -21.5 12t-7.5 29q0 10 34 49t79 75t68 36q25 0 109 -8t110 -8q25 0 46.5 11t33 23.5t21.5 23.5t15 11q15 0 24 -9.5t9 -24.5q0 -19 -70 -88.5t-104 -69.5q-26 0 -115 7t-114 7q-22 0 -48 -19t-44.5 -38t-24.5 -19zM596 74l215 559q13 34 17.5 58.5t3 37.5
t-9.5 20.5t-16 9.5t-20 3q-36 2 -91.5 -36.5t-119.5 -117.5q-50 -63 -141.5 -202t-150.5 -246q-79 -143 -96 -166q-22 -29 -40 -29q-14 0 -24 24t-10 46q0 16 45 137l178 467q9 24 14 39t6.5 27.5t-2.5 18t-14 5.5q-37 0 -69.5 -17.5t-77.5 -76.5q-7 -10 -17.5 -8t-13.5 16
q-1 19 10 52t25 50q79 101 190 103q49 0 75 -26t3 -85l-111 -303q-6 -14 3.5 -16.5t15.5 8.5q120 208 244.5 315t228.5 107q43 0 69.5 -26t31.5 -86t-34 -158l-153 -402q-32 -74 10 -74t111 51.5t106 88.5q2 2 6 2q6 0 11.5 -6t5.5 -13q0 -15 -9 -28q-186 -226 -352 -226
q-31 0 -48.5 33.5t-4.5 69.5z" />
    <glyph glyph-name="ograve" unicode="&#xf2;" horiz-adv-x="819" 
d="M590 997q-94 263 -94 275q0 34 32.5 64t59.5 30q30 0 37 -82q2 -31 8 -105t10 -127.5t4 -62.5q0 -26 -16 -26q-29 0 -41 34zM799 606q0 -62 -17 -132.5t-47.5 -141.5t-77 -136t-101.5 -115t-125 -80t-144 -30q-70 0 -132.5 67t-62.5 175q0 62 17 132.5t47.5 141.5t77 136
t101.5 115t125 80t144 30q70 0 132.5 -67t62.5 -175zM668 623q0 82 -19 122.5t-69 40.5q-77 0 -163 -108t-140 -246.5t-54 -234.5q0 -82 19 -123t69 -41q77 0 163 108t140 247t54 235z" />
    <glyph glyph-name="oacute" unicode="&#xf3;" horiz-adv-x="819" 
d="M662 979q-31 -31 -48 -31q-7 0 -11.5 5.5t-4.5 11.5q0 16 4 24q75 153 154 295q26 51 51 51q17 0 48.5 -26.5t31.5 -48.5q0 -7 -91 -120t-134 -161zM799 606q0 -62 -17 -132.5t-47.5 -141.5t-77 -136t-101.5 -115t-125 -80t-144 -30q-70 0 -132.5 67t-62.5 175
q0 62 17 132.5t47.5 141.5t77 136t101.5 115t125 80t144 30q70 0 132.5 -67t62.5 -175zM668 623q0 82 -19 122.5t-69 40.5q-77 0 -163 -108t-140 -246.5t-54 -234.5q0 -82 19 -123t69 -41q77 0 163 108t140 247t54 235z" />
    <glyph glyph-name="ocircumflex" unicode="&#xf4;" horiz-adv-x="819" 
d="M662 1167q-68 -70 -191 -188q-33 -33 -47 -33q-18 0 -18 19q0 15 14 36q121 170 198 259q74 86 103 86q13 0 20 -13t17 -49q13 -54 30 -165t17 -130q0 -14 -5 -28.5t-12 -14.5q-19 0 -34 35q-9 24 -37.5 95t-36.5 91q-6 16 -18 0zM799 606q0 -62 -17 -132.5t-47.5 -141.5
t-77 -136t-101.5 -115t-125 -80t-144 -30q-70 0 -132.5 67t-62.5 175q0 62 17 132.5t47.5 141.5t77 136t101.5 115t125 80t144 30q70 0 132.5 -67t62.5 -175zM668 623q0 82 -19 122.5t-69 40.5q-77 0 -163 -108t-140 -246.5t-54 -234.5q0 -82 19 -123t69 -41q77 0 163 108
t140 247t54 235z" />
    <glyph glyph-name="otilde" unicode="&#xf5;" horiz-adv-x="819" 
d="M403 999q-28 0 -28 41q0 19 73 89.5t107 70.5q25 0 109 -8t110 -8q25 0 46.5 11t33.5 23.5t22 23.5t15 11q15 0 24 -9.5t9 -24.5q0 -19 -70 -88.5t-104 -69.5q-26 0 -115 7t-115 7q-22 0 -48 -19t-44.5 -38t-24.5 -19zM799 606q0 -62 -17 -132.5t-47.5 -141.5t-77 -136
t-101.5 -115t-125 -80t-144 -30q-70 0 -132.5 67t-62.5 175q0 62 17 132.5t47.5 141.5t77 136t101.5 115t125 80t144 30q70 0 132.5 -67t62.5 -175zM668 623q0 82 -19 122.5t-69 40.5q-77 0 -163 -108t-140 -246.5t-54 -234.5q0 -82 19 -123t69 -41q77 0 163 108t140 247
t54 235z" />
    <glyph glyph-name="odieresis" unicode="&#xf6;" horiz-adv-x="819" 
d="M524 1217q31 0 50.5 -27.5t19.5 -61.5q0 -46 -34 -81t-79 -35q-30 0 -50.5 24t-20.5 56q0 51 32.5 88t81.5 37zM834 1217q31 0 50 -27t19 -62q0 -46 -33.5 -81t-78.5 -35q-30 0 -51 24t-21 56q0 51 33 88t82 37zM799 606q0 -62 -17 -132.5t-47.5 -141.5t-77 -136
t-101.5 -115t-125 -80t-144 -30q-70 0 -132.5 67t-62.5 175q0 62 17 132.5t47.5 141.5t77 136t101.5 115t125 80t144 30q70 0 132.5 -67t62.5 -175zM668 623q0 82 -19 122.5t-69 40.5q-77 0 -163 -108t-140 -246.5t-54 -234.5q0 -82 19 -123t69 -41q77 0 163 108t140 247
t54 235z" />
    <glyph glyph-name="divide" unicode="&#xf7;" horiz-adv-x="1208" 
d="M131 475q-10 0 -19.5 8t-9.5 17q0 21 13 49.5t37 28.5h927q11 0 21 -9.5t6 -19.5q-6 -18 -10 -27t-11.5 -22t-18 -19t-24.5 -6h-911zM604 911q38 0 65 -28t27 -66t-28 -66t-66 -28t-66 28t-28 66q0 40 28 67t68 27zM604 330q38 0 66 -28t28 -66t-28 -66.5t-66 -28.5
t-66 28.5t-28 66.5t28 66t66 28z" />
    <glyph glyph-name="oslash" unicode="&#xf8;" horiz-adv-x="819" 
d="M143 -47q-11 -16 -26 -16q-11 0 -18 17.5t-7 35.5q0 19 33 61l10 13q-43 64 -43 149q0 62 17 132.5t47.5 141.5t77 136t101.5 115t125 80t144 30q55 0 107 -43l43 55q17 25 32 25q13 0 13 -66q0 -19 -39 -71q39 -64 39 -142q0 -62 -17 -132.5t-47.5 -141.5t-77 -136
t-101.5 -115t-125 -80t-144 -30q-51 0 -100 38zM223 178l431 554q-20 54 -74 54q-77 0 -163 -108t-140 -246.5t-54 -234.5v-19zM240 78q20 -45 71 -45q77 0 163 108t140 247t54 235v6z" />
    <glyph glyph-name="ugrave" unicode="&#xf9;" horiz-adv-x="1019" 
d="M723 997q-94 263 -94 275q0 34 32.5 64t59.5 30q30 0 37 -82q2 -31 8 -105t10 -127.5t4 -62.5q0 -26 -16 -26q-29 0 -41 34zM586 74q128 275 151 342q8 23 -2.5 26.5t-21.5 -10.5q-233 -255 -352.5 -358t-200.5 -103q-26 0 -36 25.5t-5.5 57.5t16.5 59l184 440
q56 141 37 141q-24 0 -159 -121q-5 -5 -16 -2t-11 9q0 27 25 61q70 94 167.5 154.5t149.5 60.5q33 0 43 -22.5t-12 -69.5l-248 -551q-20 -44 -23 -76t17 -35q21 0 67 38.5t142 138.5q119 122 254 299t166 233q19 37 45 37q21 0 32 -13.5t11 -33.5q0 -21 -27 -84l-236 -541
q-35 -80 7 -80q30 0 83 34.5t86 63.5t52 48q2 2 6 2q6 0 12 -6t6 -13q0 -13 -10 -28q-89 -108 -172.5 -167t-173.5 -59q-30 0 -48.5 36t-4.5 67z" />
    <glyph glyph-name="uacute" unicode="&#xfa;" horiz-adv-x="1019" 
d="M795 979q-31 -31 -47 -31q-7 0 -12 5.5t-5 11.5q0 16 4 24q75 153 154 295q26 51 51 51q17 0 48.5 -26.5t31.5 -48.5q0 -7 -91 -120t-134 -161zM586 74q128 275 151 342q8 23 -2.5 26.5t-21.5 -10.5q-233 -255 -352.5 -358t-200.5 -103q-26 0 -36 25.5t-5.5 57.5t16.5 59
l184 440q56 141 37 141q-24 0 -159 -121q-5 -5 -16 -2t-11 9q0 27 25 61q70 94 167.5 154.5t149.5 60.5q33 0 43 -22.5t-12 -69.5l-248 -551q-20 -44 -23 -76t17 -35q21 0 67 38.5t142 138.5q119 122 254 299t166 233q19 37 45 37q21 0 32 -13.5t11 -33.5q0 -21 -27 -84
l-236 -541q-35 -80 7 -80q30 0 83 34.5t86 63.5t52 48q2 2 6 2q6 0 12 -6t6 -13q0 -13 -10 -28q-89 -108 -172.5 -167t-173.5 -59q-30 0 -48.5 36t-4.5 67z" />
    <glyph glyph-name="ucircumflex" unicode="&#xfb;" horiz-adv-x="1019" 
d="M795 1167q-68 -70 -191 -188q-33 -33 -47 -33q-18 0 -18 19q0 15 14 36q32 45 99 132.5t100 126.5q74 86 102 86q13 0 20 -13t17 -49q13 -54 30 -165t17 -130q0 -14 -4.5 -28.5t-11.5 -14.5q-20 0 -35 35q-9 24 -37.5 95t-36.5 91q-6 16 -18 0zM586 74q128 275 151 342
q8 23 -2.5 26.5t-21.5 -10.5q-233 -255 -352.5 -358t-200.5 -103q-26 0 -36 25.5t-5.5 57.5t16.5 59l184 440q56 141 37 141q-24 0 -159 -121q-5 -5 -16 -2t-11 9q0 27 25 61q70 94 167.5 154.5t149.5 60.5q33 0 43 -22.5t-12 -69.5l-248 -551q-20 -44 -23 -76t17 -35
q21 0 67 38.5t142 138.5q119 122 254 299t166 233q19 37 45 37q21 0 32 -13.5t11 -33.5q0 -21 -27 -84l-236 -541q-35 -80 7 -80q30 0 83 34.5t86 63.5t52 48q2 2 6 2q6 0 12 -6t6 -13q0 -13 -10 -28q-89 -108 -172.5 -167t-173.5 -59q-30 0 -48.5 36t-4.5 67z" />
    <glyph glyph-name="udieresis" unicode="&#xfc;" horiz-adv-x="1019" 
d="M657 1217q31 0 50.5 -27.5t19.5 -61.5q0 -46 -34 -81t-79 -35q-30 0 -50.5 24t-20.5 56q0 51 32.5 88t81.5 37zM967 1217q31 0 50 -27t19 -62q0 -46 -33.5 -81t-78.5 -35q-30 0 -51 24t-21 56q0 51 33 88t82 37zM586 74q128 275 151 342q8 23 -2.5 26.5t-21.5 -10.5
q-233 -255 -352.5 -358t-200.5 -103q-26 0 -36 25.5t-5.5 57.5t16.5 59l184 440q56 141 37 141q-24 0 -159 -121q-5 -5 -16 -2t-11 9q0 27 25 61q70 94 167.5 154.5t149.5 60.5q33 0 43 -22.5t-12 -69.5l-248 -551q-20 -44 -23 -76t17 -35q21 0 67 38.5t142 138.5
q119 122 254 299t166 233q19 37 45 37q21 0 32 -13.5t11 -33.5q0 -21 -27 -84l-236 -541q-35 -80 7 -80q30 0 83 34.5t86 63.5t52 48q2 2 6 2q6 0 12 -6t6 -13q0 -13 -10 -28q-89 -108 -172.5 -167t-173.5 -59q-30 0 -48.5 36t-4.5 67z" />
    <glyph glyph-name="yacute" unicode="&#xfd;" horiz-adv-x="860" 
d="M600 979q-31 -31 -47 -31q-7 0 -11.5 5.5t-4.5 11.5q0 16 4 24q83 168 153 295q26 51 51 51q17 0 48.5 -26.5t31.5 -48.5q0 -7 -91 -120t-134 -161zM297 727q-29 0 -66 -46.5t-49 -86.5q-5 -16 -17 -37.5t-22 -21.5q-7 0 -12.5 17t-5.5 40q0 92 70 174t141 82
q37 0 76.5 -33.5t60.5 -101.5q69 -223 55 -551q-1 -35 8 -34.5t23 28.5q176 336 176 665q0 20 11 32.5t28 12.5q19 0 47.5 -31.5t28.5 -68.5q0 -188 -139 -467.5t-369 -564.5q-116 -145 -225 -233.5t-189 -88.5q-34 0 -63 23t-29 63q0 33 29.5 68t56.5 35q14 0 28.5 -16.5
t36.5 -33t54 -16.5q33 0 84.5 37t87.5 88q87 124 144 276t57 302q0 108 -8.5 195.5t-21 141t-28.5 89t-31 49.5t-28 14z" />
    <glyph glyph-name="thorn" unicode="&#xfe;" horiz-adv-x="911" 
d="M686 578q0 78 -36.5 135t-98.5 57q-32 0 -67 -18t-54 -37q-33 -33 -39 -64l-112 -411q-23 -87 -23 -123q0 -30 28 -53t64 -23q25 0 66 26.5t88 77.5t88 115t68.5 149t27.5 169zM434 827q-1 -4 -3.5 -11.5t-4 -11.5t-2 -9t1 -7t4.5 -2q2 0 27.5 15.5t68 31t84.5 15.5
q91 0 158.5 -72.5t67.5 -197.5q0 -85 -35 -175.5t-93 -166t-126.5 -136.5t-141 -95t-131.5 -34q-22 0 -41 8t-29.5 16.5t-13.5 8.5q-21 0 -39 -53l-118 -377q-22 -69 65 -78q62 -5 62 -31q0 -22 -60 -22q-179 0 -344 -29q-13 -2 -27 3t-14 16q0 14 20.5 26t41.5 15
q46 7 70.5 22t35.5 53l488 1596q37 123 26 151q-4 13 -59.5 30.5t-55.5 25.5q0 16 13 22q44 22 133 48t115 26q32 0 32 -21q0 -29 -6 -47z" />
    <glyph glyph-name="ydieresis" unicode="&#xff;" horiz-adv-x="860" 
d="M463 1217q31 0 50 -27t19 -62q0 -46 -33.5 -81t-78.5 -35q-30 0 -51 24t-21 56q0 51 33 88t82 37zM772 1217q31 0 50.5 -27.5t19.5 -61.5q0 -46 -34 -81t-79 -35q-30 0 -51 24t-21 56q0 51 33 88t82 37zM297 727q-29 0 -66 -46.5t-49 -86.5q-5 -16 -17 -37.5t-22 -21.5
q-7 0 -12.5 17t-5.5 40q0 92 70 174t141 82q37 0 76.5 -33.5t60.5 -101.5q69 -223 55 -551q-1 -35 8 -34.5t23 28.5q176 336 176 665q0 20 11 32.5t28 12.5q19 0 47.5 -31.5t28.5 -68.5q0 -188 -139 -467.5t-369 -564.5q-116 -145 -225 -233.5t-189 -88.5q-34 0 -63 23
t-29 63q0 33 29.5 68t56.5 35q14 0 28.5 -16.5t36.5 -33t54 -16.5q33 0 84.5 37t87.5 88q87 124 144 276t57 302q0 108 -8.5 195.5t-21 141t-28.5 89t-31 49.5t-28 14z" />
    <glyph glyph-name="Amacron" unicode="&#x100;" horiz-adv-x="1581" 
d="M1409 1602h508q9 0 18 -8t9 -17q0 -30 -19.5 -53t-44.5 -23h-491q-10 0 -19.5 8t-9.5 17q0 22 12 49t37 27zM1311 1036l-406 -401q-8 -8 -13 -14.5t-7.5 -13.5t2.5 -10.5t16.5 -6.5t34.5 0l274 16q23 2 37.5 14.5t24.5 43.5l119 348q9 27 13 48t2.5 32.5t-7.5 11.5
q-22 0 -90 -68zM1376 -10q-22 0 -118.5 6t-143.5 6q-41 0 -105 -1t-83 -1q-49 0 -49 25q0 22 75 38q54 11 83 21t50.5 30.5t32.5 43.5t27 71l84 252q6 17 -11 27t-47 10l-370 -18q-10 0 -33.5 -10t-38.5 -27l-237 -254q-26 -28 -37.5 -52.5t-9.5 -41t10.5 -29t19 -18.5
t19.5 -7q31 -4 41 -12t10 -24q0 -13 -18.5 -20t-45.5 -7q-13 0 -73 2t-99 2q-45 0 -123.5 -6t-107.5 -6q-47 0 -47 26q0 25 75 47q61 17 130.5 57t132.5 101l966 934q24 23 50 54.5t40 48t21 16.5q29 0 94 29q15 7 38 27.5t40.5 37t21.5 16.5q5 0 8 -8.5t2.5 -23.5t-5.5 -33
l-318 -1057q-54 -182 62 -205q53 -10 53 -43q0 -24 -66 -24z" />
    <glyph glyph-name="amacron" unicode="&#x101;" horiz-adv-x="923" 
d="M547 1184h424q7 0 12.5 -6.5t5.5 -14.5q0 -25 -26 -47t-48 -22h-409q-8 0 -13.5 5.5t-5.5 12.5q0 20 18.5 46t41.5 26zM614 -29q-28 0 -45.5 27t-17.5 63q0 77 86 252q18 36 6 37q-4 1 -10 -6q-190 -212 -301 -292.5t-215 -80.5q-28 0 -58 23.5t-30 48.5q0 105 80 243
t190.5 255t224.5 200q44 31 103 60.5t80 29.5q16 0 36.5 -11t30.5 -27q13 -21 25 2q19 44 30 60.5t25 16.5q26 0 48 -13t22 -28q0 -8 -15 -51l-211 -581q-13 -40 -0.5 -69.5t39.5 -29.5q15 0 64 29.5t67 50.5q12 15 30 22q20 8 20 -18q0 -13 -21 -41q-39 -59 -121 -115.5
t-162 -56.5zM674 723q-47 0 -130.5 -66t-161 -155.5t-135 -187.5t-57.5 -156q0 -41 9 -52.5t39 -11.5q67 0 194.5 124t225.5 260.5t98 178.5q0 26 -27 46t-55 20z" />
    <glyph glyph-name="Abreve" unicode="&#x102;" horiz-adv-x="1581" 
d="M1884 1636q33 43 55 43q13 0 13 -14q0 -57 -29.5 -100.5t-79 -68.5t-107 -37.5t-120.5 -12.5q-67 0 -118.5 39t-51.5 100q0 37 15.5 65.5t39.5 28.5q8 0 11.5 -6t5 -20t2.5 -17q10 -43 48.5 -63.5t90.5 -20.5q82 0 133 16t92 68zM1311 1036l-406 -401q-8 -8 -13 -14.5
t-7.5 -13.5t2.5 -10.5t16.5 -6.5t34.5 0l274 16q23 2 37.5 14.5t24.5 43.5l119 348q9 27 13 48t2.5 32.5t-7.5 11.5q-22 0 -90 -68zM1376 -10q-22 0 -118.5 6t-143.5 6q-41 0 -105 -1t-83 -1q-49 0 -49 25q0 22 75 38q54 11 83 21t50.5 30.5t32.5 43.5t27 71l84 252
q6 17 -11 27t-47 10l-370 -18q-10 0 -33.5 -10t-38.5 -27l-237 -254q-26 -28 -37.5 -52.5t-9.5 -41t10.5 -29t19 -18.5t19.5 -7q31 -4 41 -12t10 -24q0 -13 -18.5 -20t-45.5 -7q-13 0 -73 2t-99 2q-45 0 -123.5 -6t-107.5 -6q-47 0 -47 26q0 25 75 47q61 17 130.5 57
t132.5 101l966 934q24 23 50 54.5t40 48t21 16.5q29 0 94 29q15 7 38 27.5t40.5 37t21.5 16.5q5 0 8 -8.5t2.5 -23.5t-5.5 -33l-318 -1057q-54 -182 62 -205q53 -10 53 -43q0 -24 -66 -24z" />
    <glyph glyph-name="abreve" unicode="&#x103;" horiz-adv-x="923" 
d="M651 1231q2 -31 6 -51.5t14 -42.5t31 -33.5t52 -11.5q135 0 180 125q7 20 21 38.5t26 18.5q18 0 18 -25q0 -108 -82.5 -183t-197.5 -75q-53 0 -100.5 42t-47.5 102q0 56 15.5 97.5t44.5 41.5q15 0 20 -43zM614 -29q-28 0 -45.5 27t-17.5 63q0 77 86 252q18 36 6 37
q-4 1 -10 -6q-190 -212 -301 -292.5t-215 -80.5q-28 0 -58 23.5t-30 48.5q0 105 80 243t190.5 255t224.5 200q44 31 103 60.5t80 29.5q16 0 36.5 -11t30.5 -27q13 -21 25 2q19 44 30 60.5t25 16.5q26 0 48 -13t22 -28q0 -8 -15 -51l-211 -581q-13 -40 -0.5 -69.5t39.5 -29.5
q15 0 64 29.5t67 50.5q12 15 30 22q20 8 20 -18q0 -13 -21 -41q-39 -59 -121 -115.5t-162 -56.5zM674 723q-47 0 -130.5 -66t-161 -155.5t-135 -187.5t-57.5 -156q0 -41 9 -52.5t39 -11.5q67 0 194.5 124t225.5 260.5t98 178.5q0 26 -27 46t-55 20z" />
    <glyph glyph-name="Aogonek" unicode="&#x104;" horiz-adv-x="1581" 
d="M928 -586q-45 -2 -87 45t-42 99q0 250 399 479h55q-64 -44 -110.5 -84t-89 -90t-64.5 -108t-22 -122q0 -33 19.5 -60.5t55.5 -27.5q29 0 69 26.5t63 53.5q10 13 30 21q25 10 25 -17q0 -13 -21 -41q-128 -171 -280 -174zM1311 1036l-406 -401q-8 -8 -13 -14.5t-7.5 -13.5
t2.5 -10.5t16.5 -6.5t34.5 0l274 16q23 2 37.5 14.5t24.5 43.5l119 348q9 27 13 48t2.5 32.5t-7.5 11.5q-22 0 -90 -68zM1376 -10q-22 0 -118.5 6t-143.5 6q-41 0 -105 -1t-83 -1q-49 0 -49 25q0 22 75 38q54 11 83 21t50.5 30.5t32.5 43.5t27 71l84 252q6 17 -11 27t-47 10
l-370 -18q-10 0 -33.5 -10t-38.5 -27l-237 -254q-26 -28 -37.5 -52.5t-9.5 -41t10.5 -29t19 -18.5t19.5 -7q31 -4 41 -12t10 -24q0 -13 -18.5 -20t-45.5 -7q-13 0 -73 2t-99 2q-45 0 -123.5 -6t-107.5 -6q-47 0 -47 26q0 25 75 47q61 17 130.5 57t132.5 101l966 934
q24 23 50 54.5t40 48t21 16.5q29 0 94 29q15 7 38 27.5t40.5 37t21.5 16.5q5 0 8 -8.5t2.5 -23.5t-5.5 -33l-318 -1057q-54 -182 62 -205q53 -10 53 -43q0 -24 -66 -24z" />
    <glyph glyph-name="aogonek" unicode="&#x105;" horiz-adv-x="923" 
d="M459 -586q-43 -1 -75 44.5t-32 99.5q0 263 377 479h55q-67 -46 -111.5 -83.5t-88 -89t-65 -112.5t-21.5 -133q0 -74 69 -74q29 0 68.5 26.5t62.5 53.5q12 15 30 22q20 8 20 -18q0 -13 -21 -41q-61 -81 -125 -127t-143 -47zM614 -29q-28 0 -45.5 27t-17.5 63q0 77 86 252
q18 36 6 37q-4 1 -10 -6q-190 -212 -301 -292.5t-215 -80.5q-28 0 -58 23.5t-30 48.5q0 105 80 243t190.5 255t224.5 200q44 31 103 60.5t80 29.5q16 0 36.5 -11t30.5 -27q13 -21 25 2q19 44 30 60.5t25 16.5q26 0 48 -13t22 -28q0 -8 -15 -51l-211 -581q-13 -40 -0.5 -69.5
t39.5 -29.5q15 0 64 29.5t67 50.5q12 15 30 22q20 8 20 -18q0 -13 -21 -41q-39 -59 -121 -115.5t-162 -56.5zM674 723q-47 0 -130.5 -66t-161 -155.5t-135 -187.5t-57.5 -156q0 -41 9 -52.5t39 -11.5q67 0 194.5 124t225.5 260.5t98 178.5q0 26 -27 46t-55 20z" />
    <glyph glyph-name="Cacute" unicode="&#x106;" horiz-adv-x="1273" 
d="M1073 1427q-12 0 -12 13t10 30q65 108 158 244q19 27 55 27q30 0 74.5 -14t44.5 -33q0 -15 -27 -39q-101 -87 -266 -209q-24 -19 -37 -19zM786 -29q-114 0 -221 39t-188.5 106t-130.5 165.5t-49 210.5q0 190 70.5 353.5t191 275t282.5 174.5t342 63q73 0 141 -17.5
t108 -35t44 -17.5q12 0 42 16.5t46 16.5q17 0 20 -12.5t-5 -20.5q-39 -52 -82.5 -139.5t-55.5 -151.5q-3 -15 -14.5 -28t-21.5 -13q-18 0 -26 17t-5 37q28 142 -19 204q-26 34 -78 53t-114 19q-144 0 -274.5 -69.5t-221.5 -183t-144.5 -262.5t-53.5 -304q0 -117 67.5 -215
t171.5 -151.5t215 -53.5q89 0 164 64t143 174q22 37 35 37q15 0 15 -39q0 -36 -57 -167t-74 -134q-8 -2 -33.5 19.5t-48.5 21.5q-15 0 -39 -13t-60.5 -26t-81.5 -13z" />
    <glyph glyph-name="cacute" unicode="&#x107;" horiz-adv-x="651" 
d="M606 979q-31 -31 -47 -31q-7 0 -11.5 5.5t-4.5 11.5q0 16 4 24q83 168 153 295q26 51 52 51q17 0 48 -26.5t31 -48.5q0 -7 -91 -120t-134 -161zM711 768q0 -22 -21 -54t-41 -32q-15 0 -27 15t-20.5 33t-30.5 33t-55 15q-63 0 -130.5 -97t-110 -233t-42.5 -247
q0 -60 19.5 -104t64.5 -44q66 0 110.5 32t98.5 97q14 19 35 19q3 0 5 -1.5t3 -5t1 -6.5t-0.5 -8.5t-0.5 -7.5q0 -11 -23 -42.5t-61.5 -68t-102.5 -64.5t-132 -28q-70 0 -117.5 48t-46.5 155q0 63 14 135.5t41 149t71 146t98.5 124.5t129 88t158.5 33q51 0 82 -29t31 -51z
" />
    <glyph glyph-name="Ccircumflex" unicode="&#x108;" horiz-adv-x="1273" 
d="M848 1452q-13 0 -22 6t-9 15q0 13 14 24l254 168q70 45 93 45q15 0 37.5 -13.5t37.5 -31.5l148 -168q12 -15 12 -24t-8 -16t-21 -7q-18 0 -82 41t-104 74q-18 16 -57 0q-270 -113 -293 -113zM786 -29q-114 0 -221 39t-188.5 106t-130.5 165.5t-49 210.5q0 190 70.5 353.5
t191 275t282.5 174.5t342 63q73 0 141 -17.5t108 -35t44 -17.5q12 0 42 16.5t46 16.5q17 0 20 -12.5t-5 -20.5q-39 -52 -82.5 -139.5t-55.5 -151.5q-3 -15 -14.5 -28t-21.5 -13q-18 0 -26 17t-5 37q28 142 -19 204q-26 34 -78 53t-114 19q-144 0 -274.5 -69.5t-221.5 -183
t-144.5 -262.5t-53.5 -304q0 -117 67.5 -215t171.5 -151.5t215 -53.5q89 0 164 64t143 174q22 37 35 37q15 0 15 -39q0 -36 -57 -167t-74 -134q-8 -2 -33.5 19.5t-48.5 21.5q-15 0 -39 -13t-60.5 -26t-81.5 -13z" />
    <glyph glyph-name="ccircumflex" unicode="&#x109;" horiz-adv-x="651" 
d="M606 1167q-81 -83 -190 -188q-33 -33 -47 -33q-19 0 -19 19q0 13 15 36q121 170 198 259q74 86 103 86q13 0 19.5 -12.5t16.5 -49.5q14 -54 31 -165t17 -130q0 -14 -5 -28.5t-12 -14.5q-20 0 -35 35q-48 123 -73 186q-3 7 -8.5 6.5t-10.5 -6.5zM711 768q0 -22 -21 -54
t-41 -32q-15 0 -27 15t-20.5 33t-30.5 33t-55 15q-63 0 -130.5 -97t-110 -233t-42.5 -247q0 -60 19.5 -104t64.5 -44q66 0 110.5 32t98.5 97q14 19 35 19q3 0 5 -1.5t3 -5t1 -6.5t-0.5 -8.5t-0.5 -7.5q0 -11 -23 -42.5t-61.5 -68t-102.5 -64.5t-132 -28q-70 0 -117.5 48
t-46.5 155q0 63 14 135.5t41 149t71 146t98.5 124.5t129 88t158.5 33q51 0 82 -29t31 -51z" />
    <glyph glyph-name="Cdotaccent" unicode="&#x10a;" horiz-adv-x="1273" 
d="M1167 1653q33 0 55.5 -28t22.5 -66q0 -49 -37.5 -87t-87.5 -38q-33 0 -56.5 26.5t-23.5 59.5q0 55 37 94t90 39zM786 -29q-114 0 -221 39t-188.5 106t-130.5 165.5t-49 210.5q0 190 70.5 353.5t191 275t282.5 174.5t342 63q73 0 141 -17.5t108 -35t44 -17.5q12 0 42 16.5
t46 16.5q17 0 20 -12.5t-5 -20.5q-39 -52 -82.5 -139.5t-55.5 -151.5q-3 -15 -14.5 -28t-21.5 -13q-18 0 -26 17t-5 37q28 142 -19 204q-26 34 -78 53t-114 19q-144 0 -274.5 -69.5t-221.5 -183t-144.5 -262.5t-53.5 -304q0 -117 67.5 -215t171.5 -151.5t215 -53.5
q89 0 164 64t143 174q22 37 35 37q15 0 15 -39q0 -36 -57 -167t-74 -134q-8 -2 -33.5 19.5t-48.5 21.5q-15 0 -39 -13t-60.5 -26t-81.5 -13z" />
    <glyph glyph-name="cdotaccent" unicode="&#x10b;" horiz-adv-x="651" 
d="M635 1255q31 0 50.5 -27t19.5 -61q0 -46 -34 -81t-79 -35q-30 0 -51 24t-21 55q0 51 33 88t82 37zM711 768q0 -22 -21 -54t-41 -32q-15 0 -27 15t-20.5 33t-30.5 33t-55 15q-63 0 -130.5 -97t-110 -233t-42.5 -247q0 -60 19.5 -104t64.5 -44q66 0 110.5 32t98.5 97
q14 19 35 19q3 0 5 -1.5t3 -5t1 -6.5t-0.5 -8.5t-0.5 -7.5q0 -11 -23 -42.5t-61.5 -68t-102.5 -64.5t-132 -28q-70 0 -117.5 48t-46.5 155q0 63 14 135.5t41 149t71 146t98.5 124.5t129 88t158.5 33q51 0 82 -29t31 -51z" />
    <glyph glyph-name="Ccaron" unicode="&#x10c;" horiz-adv-x="1273" 
d="M1450 1683q31 0 31 -20q0 -13 -15 -25l-254 -168q-67 -45 -92 -45q-15 0 -38 14t-38 31l-147 168q-12 15 -12 25t7.5 16.5t20.5 6.5q18 0 82.5 -41t104.5 -74q18 -16 57 0q268 112 293 112zM786 -29q-114 0 -221 39t-188.5 106t-130.5 165.5t-49 210.5q0 190 70.5 353.5
t191 275t282.5 174.5t342 63q73 0 141 -17.5t108 -35t44 -17.5q12 0 42 16.5t46 16.5q17 0 20 -12.5t-5 -20.5q-39 -52 -82.5 -139.5t-55.5 -151.5q-3 -15 -14.5 -28t-21.5 -13q-18 0 -26 17t-5 37q28 142 -19 204q-26 34 -78 53t-114 19q-144 0 -274.5 -69.5t-221.5 -183
t-144.5 -262.5t-53.5 -304q0 -117 67.5 -215t171.5 -151.5t215 -53.5q89 0 164 64t143 174q22 37 35 37q15 0 15 -39q0 -36 -57 -167t-74 -134q-8 -2 -33.5 19.5t-48.5 21.5q-15 0 -39 -13t-60.5 -26t-81.5 -13z" />
    <glyph glyph-name="ccaron" unicode="&#x10d;" horiz-adv-x="651" 
d="M623 1124q94 97 190 189q33 33 47 33q19 0 19 -19q0 -15 -15 -37q-117 -164 -198 -258q-74 -86 -103 -86q-13 0 -20 13t-17 49q-13 54 -30 165t-17 130q0 14 5 28.5t12 14.5q19 0 34 -35q12 -31 74 -187q3 -7 8.5 -6.5t10.5 6.5zM711 768q0 -22 -21 -54t-41 -32
q-15 0 -27 15t-20.5 33t-30.5 33t-55 15q-63 0 -130.5 -97t-110 -233t-42.5 -247q0 -60 19.5 -104t64.5 -44q66 0 110.5 32t98.5 97q14 19 35 19q3 0 5 -1.5t3 -5t1 -6.5t-0.5 -8.5t-0.5 -7.5q0 -11 -23 -42.5t-61.5 -68t-102.5 -64.5t-132 -28q-70 0 -117.5 48t-46.5 155
q0 63 14 135.5t41 149t71 146t98.5 124.5t129 88t158.5 33q51 0 82 -29t31 -51z" />
    <glyph glyph-name="Dcaron" unicode="&#x10e;" horiz-adv-x="1583" 
d="M1362 1683q31 0 31 -20q0 -13 -15 -25l-254 -168q-67 -45 -92 -45q-15 0 -38 14t-38 31l-147 168q-12 15 -12 25t7.5 16.5t20.5 6.5q18 0 82.5 -41t104.5 -74q18 -16 57 0q268 112 293 112zM1427 809q0 230 -134.5 343.5t-381.5 113.5q-26 0 -51.5 -6.5t-56 -32
t-43.5 -66.5l-291 -913q-16 -52 -16 -86.5t13 -55.5t48.5 -32t76.5 -14t111 -3q100 0 195 29t174.5 80t146 122.5t112.5 154.5t71.5 177t25.5 189zM686 -14q-6 0 -150 7t-233 7q-35 0 -97.5 -5t-115.5 -5q-49 0 -49 22q0 14 20 25t54 12q47 1 78 10.5t51.5 32t31 45.5
t25.5 66l307 944q5 14 5 26.5t-2.5 22.5t-10.5 18.5t-15 14.5t-20.5 11.5t-23.5 9t-27 7.5t-27.5 6t-29 5.5t-27.5 5.5q-28 6 -38.5 16t-10.5 25q0 22 61 22q57 0 149 -2t132 -2q36 0 84.5 5t112.5 5q112 0 212 -19t187 -60t150 -100.5t99 -144.5t36 -188q0 -193 -70.5 -353
t-194 -267t-291.5 -166t-362 -59z" />
    <glyph glyph-name="dcaron" unicode="&#x10f;" horiz-adv-x="1050" 
d="M1169 1059q28 68 62 227q6 33 47 69t74 36q16 0 16 -31q0 -60 -32.5 -131.5t-61.5 -110.5t-53 -65q-14 -16 -31 -28.5t-23 -12.5q-10 0 -10 12q0 7 12 35zM197 125q0 -88 51 -88q76 0 196 101t211 220q117 152 117 332q0 42 -26 74.5t-64 32.5q-47 0 -129.5 -72.5
t-161.5 -174t-137 -221.5t-57 -204zM788 219q-12 -41 -5 -79t26 -38q42 0 111 51.5t106 88.5q2 2 6 2q6 0 12.5 -6t6.5 -13q0 -12 -11 -28q-92 -112 -168 -169t-165 -57q-28 0 -41 31.5t-13 71.5q0 102 29 205q6 24 -5 24q-4 -1 -7 -4q-253 -328 -494 -328q-49 0 -86 36
t-37 89q0 128 85.5 292.5t215.5 289.5q84 82 178.5 132t169.5 50q21 0 46.5 -15.5t37.5 -37.5q9 -18 16.5 -17.5t12.5 13.5l146 448q14 41 1 65t-34 33t-40.5 16.5t-19.5 16.5q0 10 5 17t16 10.5t18.5 5t22.5 3.5q5 1 8 1q154 25 182 25q10 0 10.5 -20.5t-4.5 -37.5z" />
    <glyph glyph-name="Dcroat" unicode="&#x110;" horiz-adv-x="1544" 
d="M354 723h586q11 0 16 -9.5t-2 -19.5q-33 -45 -71 -45h-570q-11 0 -15.5 13t-0.5 24q5 14 22.5 25.5t34.5 11.5zM1427 809q0 230 -134.5 343.5t-381.5 113.5q-26 0 -51.5 -6.5t-56 -32t-43.5 -66.5l-291 -913q-16 -52 -16 -86.5t13 -55.5t48.5 -32t76.5 -14t111 -3
q100 0 195 29t174.5 80t146 122.5t112.5 154.5t71.5 177t25.5 189zM686 -14q-6 0 -150 7t-233 7q-35 0 -97.5 -5t-115.5 -5q-49 0 -49 22q0 14 20 25t54 12q47 1 78 10.5t51.5 32t31 45.5t25.5 66l307 944q5 14 5 26.5t-2.5 22.5t-10.5 18.5t-15 14.5t-20.5 11.5t-23.5 9
t-27 7.5t-27.5 6t-29 5.5t-27.5 5.5q-28 6 -38.5 16t-10.5 25q0 22 61 22q57 0 149 -2t132 -2q36 0 84.5 5t112.5 5q112 0 212 -19t187 -60t150 -100.5t99 -144.5t36 -188q0 -193 -70.5 -353t-194 -267t-291.5 -166t-362 -59z" />
    <glyph glyph-name="dcroat" unicode="&#x111;" horiz-adv-x="983" 
d="M750 1169h487q10 0 15.5 -8.5t-1.5 -19.5q-33 -45 -67 -45h-475q-11 0 -14 14t1 23q4 13 21.5 24.5t32.5 11.5zM197 125q0 -88 51 -88q76 0 196 101t211 220q117 152 117 332q0 42 -26 74.5t-64 32.5q-47 0 -129.5 -72.5t-161.5 -174t-137 -221.5t-57 -204zM788 219
q-12 -41 -5 -79t26 -38q42 0 111 51.5t106 88.5q2 2 6 2q6 0 12.5 -6t6.5 -13q0 -12 -11 -28q-92 -112 -168 -169t-165 -57q-28 0 -41 31.5t-13 71.5q0 102 29 205q6 24 -5 24q-4 -1 -7 -4q-253 -328 -494 -328q-49 0 -86 36t-37 89q0 128 85.5 292.5t215.5 289.5
q84 82 178.5 132t169.5 50q21 0 46.5 -15.5t37.5 -37.5q9 -18 16.5 -17.5t12.5 13.5l146 448q14 41 1 65t-34 33t-40.5 16.5t-19.5 16.5q0 10 5 17t16 10.5t18.5 5t22.5 3.5q5 1 8 1q154 25 182 25q10 0 10.5 -20.5t-4.5 -37.5z" />
    <glyph glyph-name="Emacron" unicode="&#x112;" horiz-adv-x="1271" 
d="M803 1583h508q9 0 17.5 -7.5t8.5 -16.5q0 -31 -19 -53.5t-44 -22.5h-492q-10 0 -19 7.5t-9 16.5q0 22 12 49t37 27zM506 1337q9 0 91 -3t132 -3h522q22 0 47.5 2t43 4t20.5 2q10 0 13 -4.5t3 -15.5q0 -9 -10 -39t-24 -78.5t-21 -95.5q-2 -9 -14 -22t-21 -13t-15.5 17
t-6.5 30v10q0 29 -0.5 43t-5.5 36t-15 32t-29.5 18.5t-48.5 8.5h-295q-82 0 -100 -62l-141 -438q-6 -15 -2 -33t16 -18l297 6q79 3 145 76q13 15 31.5 27t26.5 12q9 0 14.5 -10t-0.5 -23q-38 -72 -55 -120t-39 -132q-12 -35 -27 -35t-22.5 16t-7.5 31q0 43 -24.5 66.5
t-51.5 25.5q-47 4 -256 4q-28 0 -43.5 -3t-31 -17.5t-23.5 -42.5l-105 -365q-51 -170 70 -170h338q27 0 51 3.5t46.5 14t37.5 16.5t36 25.5t29 25.5t28.5 31.5t23.5 29t24 31.5q15 20 33 20q16 0 16 -25q0 -27 -29 -96.5t-57 -113.5q-21 -33 -47 -33q-161 0 -418.5 6
t-339.5 6q-50 0 -127.5 -6t-128.5 -6q-49 0 -49 22q0 24 74 37q183 33 221 154l281 921q22 71 0 103.5t-92 46.5q-52 10 -52 41q0 22 64 22z" />
    <glyph glyph-name="emacron" unicode="&#x113;" horiz-adv-x="747" 
d="M436 1184h424q7 0 13 -6.5t6 -14.5q0 -25 -26 -47t-48 -22h-410q-7 0 -12.5 5t-5.5 13q0 20 18 46t41 26zM260 -31q-67 0 -120.5 61.5t-53.5 170.5q0 75 23.5 161.5t70.5 172.5t109.5 156t148 113.5t178.5 43.5q81 0 116.5 -32t35.5 -97q0 -58 -53 -111.5t-128.5 -88
t-153.5 -55t-134 -20.5q-21 0 -31 -20q-21 -44 -28 -85.5t-7 -109.5q0 -157 103 -157q66 0 124 39t97 90q17 22 37 22t20 -20q0 -11 -4 -17q-63 -102 -154 -159.5t-196 -57.5zM586 788q-52 0 -121 -55.5t-114.5 -120.5t-45.5 -96q0 -8 2.5 -10t11.5 -2q28 0 77 12t107 35.5
t99 69t41 102.5q0 65 -57 65z" />
    <glyph glyph-name="Ebreve" unicode="&#x114;" horiz-adv-x="1271" 
d="M1278 1618q33 43 55 43q13 0 13 -14q0 -75 -52 -126.5t-125 -72.5t-159 -21q-67 0 -118.5 39.5t-51.5 100.5q0 37 15.5 65.5t39.5 28.5q8 0 11.5 -6.5t4.5 -19.5t2 -17q10 -43 49 -63.5t91 -20.5q82 0 133 16t92 68zM506 1337q9 0 91 -3t132 -3h522q22 0 47.5 2t43 4
t20.5 2q10 0 13 -4.5t3 -15.5q0 -9 -10 -39t-24 -78.5t-21 -95.5q-2 -9 -14 -22t-21 -13t-15.5 17t-6.5 30v10q0 29 -0.5 43t-5.5 36t-15 32t-29.5 18.5t-48.5 8.5h-295q-82 0 -100 -62l-141 -438q-6 -15 -2 -33t16 -18l297 6q79 3 145 76q13 15 31.5 27t26.5 12
q9 0 14.5 -10t-0.5 -23q-38 -72 -55 -120t-39 -132q-12 -35 -27 -35t-22.5 16t-7.5 31q0 43 -24.5 66.5t-51.5 25.5q-47 4 -256 4q-28 0 -43.5 -3t-31 -17.5t-23.5 -42.5l-105 -365q-51 -170 70 -170h338q27 0 51 3.5t46.5 14t37.5 16.5t36 25.5t29 25.5t28.5 31.5t23.5 29
t24 31.5q15 20 33 20q16 0 16 -25q0 -27 -29 -96.5t-57 -113.5q-21 -33 -47 -33q-161 0 -418.5 6t-339.5 6q-50 0 -127.5 -6t-128.5 -6q-49 0 -49 22q0 24 74 37q183 33 221 154l281 921q22 71 0 103.5t-92 46.5q-52 10 -52 41q0 22 64 22z" />
    <glyph glyph-name="ebreve" unicode="&#x115;" horiz-adv-x="747" 
d="M541 1231q1 -24 3.5 -41t9 -37t16.5 -32t29 -20.5t44 -8.5q135 0 180 125q7 20 21 38.5t26 18.5q19 0 19 -25q0 -108 -83 -183t-198 -75q-53 0 -100 42t-47 102q0 56 15 97.5t44 41.5q16 0 21 -43zM260 -31q-67 0 -120.5 61.5t-53.5 170.5q0 75 23.5 161.5t70.5 172.5
t109.5 156t148 113.5t178.5 43.5q81 0 116.5 -32t35.5 -97q0 -58 -53 -111.5t-128.5 -88t-153.5 -55t-134 -20.5q-21 0 -31 -20q-21 -44 -28 -85.5t-7 -109.5q0 -157 103 -157q66 0 124 39t97 90q17 22 37 22t20 -20q0 -11 -4 -17q-63 -102 -154 -159.5t-196 -57.5zM586 788
q-52 0 -121 -55.5t-114.5 -120.5t-45.5 -96q0 -8 2.5 -10t11.5 -2q28 0 77 12t107 35.5t99 69t41 102.5q0 65 -57 65z" />
    <glyph glyph-name="Edotaccent" unicode="&#x116;" horiz-adv-x="1271" 
d="M1065 1653q33 0 55.5 -28t22.5 -66q0 -49 -37.5 -87t-87.5 -38q-33 0 -56.5 26.5t-23.5 59.5q0 55 37 94t90 39zM506 1337q9 0 91 -3t132 -3h522q22 0 47.5 2t43 4t20.5 2q10 0 13 -4.5t3 -15.5q0 -9 -10 -39t-24 -78.5t-21 -95.5q-2 -9 -14 -22t-21 -13t-15.5 17
t-6.5 30v10q0 29 -0.5 43t-5.5 36t-15 32t-29.5 18.5t-48.5 8.5h-295q-82 0 -100 -62l-141 -438q-6 -15 -2 -33t16 -18l297 6q79 3 145 76q13 15 31.5 27t26.5 12q9 0 14.5 -10t-0.5 -23q-38 -72 -55 -120t-39 -132q-12 -35 -27 -35t-22.5 16t-7.5 31q0 43 -24.5 66.5
t-51.5 25.5q-47 4 -256 4q-28 0 -43.5 -3t-31 -17.5t-23.5 -42.5l-105 -365q-51 -170 70 -170h338q27 0 51 3.5t46.5 14t37.5 16.5t36 25.5t29 25.5t28.5 31.5t23.5 29t24 31.5q15 20 33 20q16 0 16 -25q0 -27 -29 -96.5t-57 -113.5q-21 -33 -47 -33q-161 0 -418.5 6
t-339.5 6q-50 0 -127.5 -6t-128.5 -6q-49 0 -49 22q0 24 74 37q183 33 221 154l281 921q22 71 0 103.5t-92 46.5q-52 10 -52 41q0 22 64 22z" />
    <glyph glyph-name="edotaccent" unicode="&#x117;" horiz-adv-x="747" 
d="M678 1255q31 0 50.5 -27t19.5 -61q0 -46 -34 -81t-79 -35q-30 0 -51 24t-21 55q0 51 33 88t82 37zM260 -31q-67 0 -120.5 61.5t-53.5 170.5q0 75 23.5 161.5t70.5 172.5t109.5 156t148 113.5t178.5 43.5q81 0 116.5 -32t35.5 -97q0 -58 -53 -111.5t-128.5 -88t-153.5 -55
t-134 -20.5q-21 0 -31 -20q-21 -44 -28 -85.5t-7 -109.5q0 -157 103 -157q66 0 124 39t97 90q17 22 37 22t20 -20q0 -11 -4 -17q-63 -102 -154 -159.5t-196 -57.5zM586 788q-52 0 -121 -55.5t-114.5 -120.5t-45.5 -96q0 -8 2.5 -10t11.5 -2q28 0 77 12t107 35.5t99 69
t41 102.5q0 65 -57 65z" />
    <glyph glyph-name="Eogonek" unicode="&#x118;" horiz-adv-x="1271" 
d="M764 -586q-45 -2 -87 45t-42 99q0 250 399 479h56q-65 -44 -111 -84t-89 -90t-65 -108t-22 -122q0 -32 20 -60t56 -28q29 0 68.5 26.5t62.5 53.5q10 13 30 21q25 10 25 -17q0 -13 -21 -41q-128 -171 -280 -174zM506 1337q9 0 91 -3t132 -3h522q22 0 47.5 2t43 4t20.5 2
q10 0 13 -4.5t3 -15.5q0 -9 -10 -39t-24 -78.5t-21 -95.5q-2 -9 -14 -22t-21 -13t-15.5 17t-6.5 30v10q0 29 -0.5 43t-5.5 36t-15 32t-29.5 18.5t-48.5 8.5h-295q-82 0 -100 -62l-141 -438q-6 -15 -2 -33t16 -18l297 6q79 3 145 76q13 15 31.5 27t26.5 12q9 0 14.5 -10
t-0.5 -23q-38 -72 -55 -120t-39 -132q-12 -35 -27 -35t-22.5 16t-7.5 31q0 43 -24.5 66.5t-51.5 25.5q-47 4 -256 4q-28 0 -43.5 -3t-31 -17.5t-23.5 -42.5l-105 -365q-51 -170 70 -170h338q27 0 51 3.5t46.5 14t37.5 16.5t36 25.5t29 25.5t28.5 31.5t23.5 29t24 31.5
q15 20 33 20q16 0 16 -25q0 -27 -29 -96.5t-57 -113.5q-21 -33 -47 -33q-161 0 -418.5 6t-339.5 6q-50 0 -127.5 -6t-128.5 -6q-49 0 -49 22q0 24 74 37q183 33 221 154l281 921q22 71 0 103.5t-92 46.5q-52 10 -52 41q0 22 64 22z" />
    <glyph glyph-name="eogonek" unicode="&#x119;" horiz-adv-x="747" 
d="M137 -586q-43 -1 -74.5 44t-31.5 100q0 263 377 479h55q-53 -36 -90 -65.5t-77 -70t-64 -80.5t-40 -92t-16 -110q0 -32 16.5 -53t53.5 -21q29 0 68.5 26.5t62.5 53.5q12 16 30 23q19 6 19 -19q0 -4 -7.5 -19.5t-12.5 -21.5q-129 -172 -269 -174zM260 -31
q-67 0 -120.5 61.5t-53.5 170.5q0 75 23.5 161.5t70.5 172.5t109.5 156t148 113.5t178.5 43.5q81 0 116.5 -32t35.5 -97q0 -58 -53 -111.5t-128.5 -88t-153.5 -55t-134 -20.5q-21 0 -31 -20q-21 -44 -28 -85.5t-7 -109.5q0 -157 103 -157q66 0 124 39t97 90q17 22 37 22
t20 -20q0 -11 -4 -17q-63 -102 -154 -159.5t-196 -57.5zM586 788q-52 0 -121 -55.5t-114.5 -120.5t-45.5 -96q0 -8 2.5 -10t11.5 -2q28 0 77 12t107 35.5t99 69t41 102.5q0 65 -57 65z" />
    <glyph glyph-name="Ecaron" unicode="&#x11a;" horiz-adv-x="1271" 
d="M1348 1683q30 0 30 -20q0 -14 -14 -25l-254 -168q-67 -45 -92 -45q-15 0 -38 14t-38 31l-147 168q-13 16 -13 25t8 16t21 7q18 0 82 -41t104 -74q18 -16 58 0q268 112 293 112zM506 1337q9 0 91 -3t132 -3h522q22 0 47.5 2t43 4t20.5 2q10 0 13 -4.5t3 -15.5
q0 -9 -10 -39t-24 -78.5t-21 -95.5q-2 -9 -14 -22t-21 -13t-15.5 17t-6.5 30v10q0 29 -0.5 43t-5.5 36t-15 32t-29.5 18.5t-48.5 8.5h-295q-82 0 -100 -62l-141 -438q-6 -15 -2 -33t16 -18l297 6q79 3 145 76q13 15 31.5 27t26.5 12q9 0 14.5 -10t-0.5 -23q-38 -72 -55 -120
t-39 -132q-12 -35 -27 -35t-22.5 16t-7.5 31q0 43 -24.5 66.5t-51.5 25.5q-47 4 -256 4q-28 0 -43.5 -3t-31 -17.5t-23.5 -42.5l-105 -365q-51 -170 70 -170h338q27 0 51 3.5t46.5 14t37.5 16.5t36 25.5t29 25.5t28.5 31.5t23.5 29t24 31.5q15 20 33 20q16 0 16 -25
q0 -27 -29 -96.5t-57 -113.5q-21 -33 -47 -33q-161 0 -418.5 6t-339.5 6q-50 0 -127.5 -6t-128.5 -6q-49 0 -49 22q0 24 74 37q183 33 221 154l281 921q22 71 0 103.5t-92 46.5q-52 10 -52 41q0 22 64 22z" />
    <glyph glyph-name="ecaron" unicode="&#x11b;" horiz-adv-x="747" 
d="M666 1124q94 97 190 189q33 33 47 33q19 0 19 -19q0 -15 -15 -37q-117 -164 -198 -258q-74 -86 -103 -86q-13 0 -20 13t-17 49q-13 54 -30 165t-17 130q0 14 5 28.5t12 14.5q19 0 34 -35q12 -31 74 -187q3 -7 8.5 -6.5t10.5 6.5zM260 -31q-67 0 -120.5 61.5t-53.5 170.5
q0 75 23.5 161.5t70.5 172.5t109.5 156t148 113.5t178.5 43.5q81 0 116.5 -32t35.5 -97q0 -58 -53 -111.5t-128.5 -88t-153.5 -55t-134 -20.5q-21 0 -31 -20q-21 -44 -28 -85.5t-7 -109.5q0 -157 103 -157q66 0 124 39t97 90q17 22 37 22t20 -20q0 -11 -4 -17
q-63 -102 -154 -159.5t-196 -57.5zM586 788q-52 0 -121 -55.5t-114.5 -120.5t-45.5 -96q0 -8 2.5 -10t11.5 -2q28 0 77 12t107 35.5t99 69t41 102.5q0 65 -57 65z" />
    <glyph glyph-name="Gcircumflex" unicode="&#x11c;" horiz-adv-x="1406" 
d="M809 1411q-13 0 -22 6t-9 15q0 12 15 24l254 168q70 45 92 45q15 0 37.5 -13.5t37.5 -31.5l148 -168q12 -15 12 -24q0 -10 -7.5 -16.5t-20.5 -6.5q-18 0 -82.5 41t-104.5 74q-18 16 -57 0q-270 -113 -293 -113zM1466 1288q-38 -52 -81.5 -139.5t-55.5 -151.5
q-3 -15 -14.5 -28t-22.5 -13q-18 0 -25.5 16.5t-4.5 37.5q28 142 -19 204q-26 34 -78 53t-114 19q-147 0 -276 -67.5t-216 -178.5t-136.5 -253t-49.5 -291q0 -97 44.5 -183.5t115 -143t155.5 -89.5t168 -33q43 0 80 16.5t60 42.5t37 51t20 48l57 221q9 31 -3 52.5
t-38.5 30.5t-46.5 12t-41 3t-34 11.5t-13 25.5t14 23.5t35 9.5q47 0 121 -3t121 -3q34 0 86 3t86 3q9 0 18.5 -8.5t9.5 -20.5q0 -13 -16 -25.5t-35 -15.5q-46 -8 -72 -27.5t-45 -60.5q-26 -56 -49.5 -143t-23.5 -113q0 -11 8 -23.5t15 -21.5t5 -12q-6 -14 -36 -37
q-40 -34 -144.5 -74.5t-202.5 -40.5q-182 0 -322.5 63t-223 188.5t-82.5 297.5q0 176 65.5 331t180 266.5t276.5 176t348 64.5q73 0 141 -17.5t108 -35t44 -17.5q12 0 42 16.5t46 16.5q17 0 19.5 -12.5t-5.5 -20.5z" />
    <glyph glyph-name="gcircumflex" unicode="&#x11d;" horiz-adv-x="747" 
d="M590 1167q-68 -70 -191 -188q-33 -33 -47 -33q-18 0 -18 19q0 15 14 36q32 45 99 132.5t100 126.5q74 86 102 86q13 0 20 -13t17 -49q13 -54 30 -165t17 -130q0 -14 -4.5 -28.5t-11.5 -14.5q-20 0 -35 35q-9 24 -37.5 95t-36.5 91q-6 16 -18 0zM186 -135q7 3 8.5 13
t-4.5 16q-73 64 -73 135q0 15 2.5 25.5t12 21.5t15.5 16t25 19t29 22q13 9 22.5 22t1.5 17q-39 22 -84 78.5t-45 118.5q-1 68 34 151.5t90 156t133 122t155 49.5q75 0 106 -31q16 -16 48 -16q33 2 88.5 14t93.5 12q13 0 23 -6.5t10 -17.5q0 -28 -3 -50t-8 -33t-10 -11
q-30 0 -76 7t-75 7h-7h-7.5h-7.5t-7 -1t-5 -3t-2.5 -5.5t1.5 -8.5q11 -35 8 -91q-3 -91 -72.5 -221.5t-165.5 -189.5q-33 -21 -77.5 -33t-67.5 -12q-6 0 -11.5 -4t-9 -8t-9 -11.5t-7.5 -9.5q-3 -3 -10.5 -10t-9 -14t-0.5 -23q1 -40 30 -72.5t90 -73.5q7 -5 102.5 -67
t145.5 -98q56 -40 56 -107q0 -62 -31 -109t-78.5 -74t-115 -43.5t-129.5 -22t-134 -5.5q-90 0 -177 26t-147.5 79t-60.5 120q0 30 34 63t81.5 58.5t83 41.5t53.5 22q45 14 145 49zM494 780q-25 0 -56.5 -19.5t-54.5 -49.5q-59 -73 -107 -190t-47 -197q1 -45 12.5 -71.5
t23 -33t24.5 -6.5q51 0 102.5 53.5t87 128t58 152.5t20.5 129q-2 40 -17 72t-46 32zM279 -176q-30 15 -82 0q-277 -86 -277 -197q0 -43 55 -80.5t137.5 -58t166.5 -20.5q132 0 183.5 41t49.5 106q-1 25 -18.5 51t-37.5 45t-57 43t-55 34.5t-54 29.5q-8 4 -11 6z" />
    <glyph glyph-name="Gbreve" unicode="&#x11e;" horiz-adv-x="1406" 
d="M1352 1616q33 43 55 43q12 0 12 -14q0 -75 -52 -126.5t-125 -72.5t-159 -21q-67 0 -118.5 39.5t-51.5 100.5q0 37 16 65.5t40 28.5q8 0 11.5 -6.5t4.5 -19.5t2 -17q10 -43 48.5 -63.5t90.5 -20.5q82 0 133.5 16t92.5 68zM1466 1288q-38 -52 -81.5 -139.5t-55.5 -151.5
q-3 -15 -14.5 -28t-22.5 -13q-18 0 -25.5 16.5t-4.5 37.5q28 142 -19 204q-26 34 -78 53t-114 19q-147 0 -276 -67.5t-216 -178.5t-136.5 -253t-49.5 -291q0 -97 44.5 -183.5t115 -143t155.5 -89.5t168 -33q43 0 80 16.5t60 42.5t37 51t20 48l57 221q9 31 -3 52.5
t-38.5 30.5t-46.5 12t-41 3t-34 11.5t-13 25.5t14 23.5t35 9.5q47 0 121 -3t121 -3q34 0 86 3t86 3q9 0 18.5 -8.5t9.5 -20.5q0 -13 -16 -25.5t-35 -15.5q-46 -8 -72 -27.5t-45 -60.5q-26 -56 -49.5 -143t-23.5 -113q0 -11 8 -23.5t15 -21.5t5 -12q-6 -14 -36 -37
q-40 -34 -144.5 -74.5t-202.5 -40.5q-182 0 -322.5 63t-223 188.5t-82.5 297.5q0 176 65.5 331t180 266.5t276.5 176t348 64.5q73 0 141 -17.5t108 -35t44 -17.5q12 0 42 16.5t46 16.5q17 0 19.5 -12.5t-5.5 -20.5z" />
    <glyph glyph-name="gbreve" unicode="&#x11f;" horiz-adv-x="747" 
d="M481 1231q2 -31 6 -51.5t14 -42.5t31 -33.5t52 -11.5q135 0 180 125q7 20 21 38.5t26 18.5q18 0 18 -25q0 -108 -82.5 -183t-197.5 -75q-53 0 -100.5 42t-47.5 102q0 56 15.5 97.5t44.5 41.5q15 0 20 -43zM186 -135q7 3 8.5 13t-4.5 16q-73 64 -73 135q0 15 2.5 25.5
t12 21.5t15.5 16t25 19t29 22q13 9 22.5 22t1.5 17q-39 22 -84 78.5t-45 118.5q-1 68 34 151.5t90 156t133 122t155 49.5q75 0 106 -31q16 -16 48 -16q33 2 88.5 14t93.5 12q13 0 23 -6.5t10 -17.5q0 -28 -3 -50t-8 -33t-10 -11q-30 0 -76 7t-75 7h-7h-7.5h-7.5t-7 -1t-5 -3
t-2.5 -5.5t1.5 -8.5q11 -35 8 -91q-3 -91 -72.5 -221.5t-165.5 -189.5q-33 -21 -77.5 -33t-67.5 -12q-6 0 -11.5 -4t-9 -8t-9 -11.5t-7.5 -9.5q-3 -3 -10.5 -10t-9 -14t-0.5 -23q1 -40 30 -72.5t90 -73.5q7 -5 102.5 -67t145.5 -98q56 -40 56 -107q0 -62 -31 -109t-78.5 -74
t-115 -43.5t-129.5 -22t-134 -5.5q-90 0 -177 26t-147.5 79t-60.5 120q0 30 34 63t81.5 58.5t83 41.5t53.5 22q45 14 145 49zM494 780q-25 0 -56.5 -19.5t-54.5 -49.5q-59 -73 -107 -190t-47 -197q1 -45 12.5 -71.5t23 -33t24.5 -6.5q51 0 102.5 53.5t87 128t58 152.5
t20.5 129q-2 40 -17 72t-46 32zM279 -176q-30 15 -82 0q-277 -86 -277 -197q0 -43 55 -80.5t137.5 -58t166.5 -20.5q132 0 183.5 41t49.5 106q-1 25 -18.5 51t-37.5 45t-57 43t-55 34.5t-54 29.5q-8 4 -11 6z" />
    <glyph glyph-name="Gdotaccent" unicode="&#x120;" horiz-adv-x="1406" 
d="M1137 1653q33 0 55 -28t22 -66q0 -50 -37.5 -87.5t-86.5 -37.5q-33 0 -56.5 26.5t-23.5 59.5q0 55 37 94t90 39zM1466 1288q-38 -52 -81.5 -139.5t-55.5 -151.5q-3 -15 -14.5 -28t-22.5 -13q-18 0 -25.5 16.5t-4.5 37.5q28 142 -19 204q-26 34 -78 53t-114 19
q-147 0 -276 -67.5t-216 -178.5t-136.5 -253t-49.5 -291q0 -97 44.5 -183.5t115 -143t155.5 -89.5t168 -33q43 0 80 16.5t60 42.5t37 51t20 48l57 221q9 31 -3 52.5t-38.5 30.5t-46.5 12t-41 3t-34 11.5t-13 25.5t14 23.5t35 9.5q47 0 121 -3t121 -3q34 0 86 3t86 3
q9 0 18.5 -8.5t9.5 -20.5q0 -13 -16 -25.5t-35 -15.5q-46 -8 -72 -27.5t-45 -60.5q-26 -56 -49.5 -143t-23.5 -113q0 -11 8 -23.5t15 -21.5t5 -12q-6 -14 -36 -37q-40 -34 -144.5 -74.5t-202.5 -40.5q-182 0 -322.5 63t-223 188.5t-82.5 297.5q0 176 65.5 331t180 266.5
t276.5 176t348 64.5q73 0 141 -17.5t108 -35t44 -17.5q12 0 42 16.5t46 16.5q17 0 19.5 -12.5t-5.5 -20.5z" />
    <glyph glyph-name="gdotaccent" unicode="&#x121;" horiz-adv-x="747" 
d="M618 1255q31 0 50.5 -27t19.5 -61q0 -46 -34 -81t-79 -35q-30 0 -50.5 23.5t-20.5 55.5q0 51 32.5 88t81.5 37zM186 -135q7 3 8.5 13t-4.5 16q-73 64 -73 135q0 15 2.5 25.5t12 21.5t15.5 16t25 19t29 22q13 9 22.5 22t1.5 17q-39 22 -84 78.5t-45 118.5q-1 68 34 151.5
t90 156t133 122t155 49.5q75 0 106 -31q16 -16 48 -16q33 2 88.5 14t93.5 12q13 0 23 -6.5t10 -17.5q0 -28 -3 -50t-8 -33t-10 -11q-30 0 -76 7t-75 7h-7h-7.5h-7.5t-7 -1t-5 -3t-2.5 -5.5t1.5 -8.5q11 -35 8 -91q-3 -91 -72.5 -221.5t-165.5 -189.5q-33 -21 -77.5 -33
t-67.5 -12q-6 0 -11.5 -4t-9 -8t-9 -11.5t-7.5 -9.5q-3 -3 -10.5 -10t-9 -14t-0.5 -23q1 -40 30 -72.5t90 -73.5q7 -5 102.5 -67t145.5 -98q56 -40 56 -107q0 -62 -31 -109t-78.5 -74t-115 -43.5t-129.5 -22t-134 -5.5q-90 0 -177 26t-147.5 79t-60.5 120q0 30 34 63
t81.5 58.5t83 41.5t53.5 22q45 14 145 49zM494 780q-25 0 -56.5 -19.5t-54.5 -49.5q-59 -73 -107 -190t-47 -197q1 -45 12.5 -71.5t23 -33t24.5 -6.5q51 0 102.5 53.5t87 128t58 152.5t20.5 129q-2 40 -17 72t-46 32zM279 -176q-30 15 -82 0q-277 -86 -277 -197
q0 -43 55 -80.5t137.5 -58t166.5 -20.5q132 0 183.5 41t49.5 106q-1 25 -18.5 51t-37.5 45t-57 43t-55 34.5t-54 29.5q-8 4 -11 6z" />
    <glyph glyph-name="uni0122" unicode="&#x122;" horiz-adv-x="1406" 
d="M891 -264q0 -63 -35 -121t-86.5 -95t-107.5 -59t-101 -22q-29 0 -29 16q0 8 9.5 16t25.5 11q79 16 141 70.5t62 123.5q0 23 -37 23q-32 0 -49.5 16.5t-17.5 42.5q0 40 33.5 70.5t80.5 30.5q52 0 81.5 -33.5t29.5 -89.5zM1466 1288q-38 -52 -81.5 -139.5t-55.5 -151.5
q-3 -15 -14.5 -28t-22.5 -13q-18 0 -25.5 16.5t-4.5 37.5q28 142 -19 204q-26 34 -78 53t-114 19q-147 0 -276 -67.5t-216 -178.5t-136.5 -253t-49.5 -291q0 -97 44.5 -183.5t115 -143t155.5 -89.5t168 -33q43 0 80 16.5t60 42.5t37 51t20 48l57 221q9 31 -3 52.5
t-38.5 30.5t-46.5 12t-41 3t-34 11.5t-13 25.5t14 23.5t35 9.5q47 0 121 -3t121 -3q34 0 86 3t86 3q9 0 18.5 -8.5t9.5 -20.5q0 -13 -16 -25.5t-35 -15.5q-46 -8 -72 -27.5t-45 -60.5q-26 -56 -49.5 -143t-23.5 -113q0 -11 8 -23.5t15 -21.5t5 -12q-6 -14 -36 -37
q-40 -34 -144.5 -74.5t-202.5 -40.5q-182 0 -322.5 63t-223 188.5t-82.5 297.5q0 176 65.5 331t180 266.5t276.5 176t348 64.5q73 0 141 -17.5t108 -35t44 -17.5q12 0 42 16.5t46 16.5q17 0 19.5 -12.5t-5.5 -20.5z" />
    <glyph glyph-name="uni0123" unicode="&#x123;" horiz-adv-x="747" 
d="M498 1108q0 63 35 121t86 95t107 59t101 22q29 0 29 -16q0 -8 -9.5 -16t-25.5 -11q-79 -16 -141 -70.5t-62 -124.5q0 -22 37 -22q32 0 50 -17t18 -43q0 -40 -34 -70t-81 -30q-52 0 -81 33.5t-29 89.5zM186 -135q7 3 8.5 13t-4.5 16q-73 64 -73 135q0 15 2.5 25.5t12 21.5
t15.5 16t25 19t29 22q13 9 22.5 22t1.5 17q-39 22 -84 78.5t-45 118.5q-1 68 34 151.5t90 156t133 122t155 49.5q75 0 106 -31q16 -16 48 -16q33 2 88.5 14t93.5 12q13 0 23 -6.5t10 -17.5q0 -28 -3 -50t-8 -33t-10 -11q-30 0 -76 7t-75 7h-7h-7.5h-7.5t-7 -1t-5 -3
t-2.5 -5.5t1.5 -8.5q11 -35 8 -91q-3 -91 -72.5 -221.5t-165.5 -189.5q-33 -21 -77.5 -33t-67.5 -12q-6 0 -11.5 -4t-9 -8t-9 -11.5t-7.5 -9.5q-3 -3 -10.5 -10t-9 -14t-0.5 -23q1 -40 30 -72.5t90 -73.5q7 -5 102.5 -67t145.5 -98q56 -40 56 -107q0 -62 -31 -109t-78.5 -74
t-115 -43.5t-129.5 -22t-134 -5.5q-90 0 -177 26t-147.5 79t-60.5 120q0 30 34 63t81.5 58.5t83 41.5t53.5 22q45 14 145 49zM494 780q-25 0 -56.5 -19.5t-54.5 -49.5q-59 -73 -107 -190t-47 -197q1 -45 12.5 -71.5t23 -33t24.5 -6.5q51 0 102.5 53.5t87 128t58 152.5
t20.5 129q-2 40 -17 72t-46 32zM279 -176q-30 15 -82 0q-277 -86 -277 -197q0 -43 55 -80.5t137.5 -58t166.5 -20.5q132 0 183.5 41t49.5 106q-1 25 -18.5 51t-37.5 45t-57 43t-55 34.5t-54 29.5q-8 4 -11 6z" />
    <glyph glyph-name="Hcircumflex" unicode="&#x124;" horiz-adv-x="1613" 
d="M895 1411q-13 0 -22 6t-9 15q0 12 15 24l254 168q70 45 92 45q15 0 37.5 -13.5t37.5 -31.5l148 -168q12 -15 12 -24q0 -10 -7.5 -16.5t-20.5 -6.5q-18 0 -82.5 41t-104.5 74q-18 16 -57 0q-270 -113 -293 -113zM1327 205q-27 -74 -17 -108.5t74 -47.5q30 -6 41 -14.5
t11 -22.5q0 -22 -62 -22q-54 0 -106 5t-88 5q-37 0 -95 -5t-112 -5q-49 0 -49 22q0 25 73 37q139 26 177 150l118 389q1 3 3 8.5t2.5 8.5t1 6.5t-1.5 5t-5 1.5h-727q-11 0 -16 -22l-117 -379q-20 -63 8.5 -109.5t91.5 -58.5q30 -6 41 -14.5t11 -22.5q0 -22 -62 -22
q-53 0 -116.5 5t-104.5 5q-39 0 -99 -5t-114 -5q-47 0 -47 22q0 24 74 37q73 13 105 45.5t56 108.5l283 925q25 70 16 101.5t-73 44.5q-28 6 -38.5 16t-10.5 25q0 22 61 22q54 0 107 -3t88 -3q36 0 92 3t110 3q50 0 50 -22q0 -28 -76 -41q-73 -13 -114 -48.5t-60 -97.5
l-119 -393q-3 -11 3 -14.5t17 -3.5h707q12 0 20 24l119 389q20 55 1.5 93t-83.5 51q-28 6 -38.5 16t-10.5 25q0 22 62 22q53 0 115.5 -3t103.5 -3q30 0 74.5 3t99.5 3q49 0 49 -22q0 -28 -76 -41q-68 -12 -94.5 -43.5t-48.5 -100.5z" />
    <glyph glyph-name="hcircumflex" unicode="&#x125;" horiz-adv-x="1032" 
d="M844 1645l-228 -105q-54 -24 -65 -24q-12 0 -12 18q0 23 24 37l228 145q94 66 112 66q26 0 41 -41q86 -162 86 -182q0 -43 -10 -43q-19 0 -53 34l-101 95q-5 7 -22 0zM455 47q0 20 18 39.5t37 19.5q25 0 59 -25.5t56 -25.5q49 0 100.5 75t88 178.5t60 207t23.5 164.5
q0 38 -13.5 67t-33.5 29q-92 0 -270 -178q-59 -58 -162.5 -195.5t-161.5 -242.5q-17 -31 -37 -69.5t-30 -57.5t-21.5 -37.5t-20 -25.5t-18.5 -7q-14 0 -24.5 24.5t-10.5 45.5q0 27 27 121l289 989q37 123 26 151q-4 13 -56 30.5t-52 25.5q0 16 12 22q46 23 126 49.5
t105 26.5q35 0 35 -21q0 -11 -8 -47l-270 -946q-4 -14 3 -16t15 8q346 436 572 436q60 0 87 -43t27 -137q0 -62 -17 -138.5t-47 -155.5t-75.5 -154t-98 -133.5t-118 -94t-133.5 -35.5q-36 0 -62 21.5t-26 54.5z" />
    <glyph glyph-name="Hbar" unicode="&#x126;" horiz-adv-x="1636" 
d="M1399 934h-748l-59 -199q-3 -11 3 -14.5t17 -3.5h707q12 0 20 24zM356 934q-18 0 -18 20t19 37t40 17h125l37 120q25 70 16 101.5t-73 44.5q-28 6 -38.5 16t-10.5 25q0 22 61 22q54 0 107 -3t88 -3q36 0 92 3t110 3q50 0 50 -22q0 -28 -76 -41q-73 -13 -114 -48.5
t-60 -97.5l-37 -120h747l37 122q20 55 1.5 93t-83.5 51q-28 6 -38.5 16t-10.5 25q0 22 62 22q53 0 115.5 -3t103.5 -3q30 0 74.5 3t99.5 3q49 0 49 -22q0 -28 -76 -41q-68 -12 -94.5 -43.5t-48.5 -100.5l-37 -122h149q8 0 15.5 -5t7.5 -12q0 -22 -31 -39.5t-49 -17.5h-117
l-223 -729q-27 -74 -17 -108.5t74 -47.5q30 -6 41 -14.5t11 -22.5q0 -22 -62 -22q-54 0 -106 5t-88 5q-37 0 -95 -5t-112 -5q-49 0 -49 22q0 25 73 37q139 26 177 150l118 389q1 3 3 8.5t2.5 8.5t1 6.5t-1.5 5t-5 1.5h-727q-11 0 -16 -22l-117 -379q-20 -63 8.5 -109.5
t91.5 -58.5q30 -6 41 -14.5t11 -22.5q0 -22 -62 -22q-53 0 -116.5 5t-104.5 5q-39 0 -99 -5t-114 -5q-47 0 -47 22q0 24 74 37q73 13 105 45.5t56 108.5l224 731h-144z" />
    <glyph glyph-name="hbar" unicode="&#x127;" horiz-adv-x="1032" 
d="M250 1090q-11 0 -14.5 17t0.5 26q4 13 21 24.5t32 11.5h129q27 100 18 125q-4 13 -56 30.5t-52 25.5q0 16 12 22q46 23 126 49.5t105 26.5q35 0 35 -21q0 -11 -8 -47l-59 -211h243q10 0 16 -8.5t-1 -19.5q-38 -51 -68 -51h-215l-186 -656q-4 -14 3 -16t15 8
q346 436 572 436q60 0 87 -43t27 -137q0 -62 -17 -138.5t-47 -155.5t-75.5 -154t-98 -133.5t-118 -94t-133.5 -35.5q-36 0 -62 21.5t-26 54.5q0 20 18 39.5t37 19.5q25 0 59 -25.5t56 -25.5q49 0 100.5 75t88 178.5t60 207t23.5 164.5q0 38 -13.5 67t-33.5 29
q-92 0 -270 -178q-59 -58 -162.5 -195.5t-161.5 -242.5q-17 -31 -37 -69.5t-30 -57.5t-21.5 -37.5t-20 -25.5t-18.5 -7q-14 0 -24.5 24.5t-10.5 45.5q0 27 27 121l272 936h-143z" />
    <glyph glyph-name="Itilde" unicode="&#x128;" horiz-adv-x="759" 
d="M909 1485q-25 0 -126 4t-126 4q-31 0 -58.5 -20t-45.5 -40t-25 -20q-12 0 -20 10t-8 25q0 51 63.5 106.5t120.5 55.5q25 0 121.5 -4t122.5 -4q24 0 46.5 12t35 26.5t25 26.5t20.5 12q24 0 24 -34q0 -47 -57.5 -103.5t-112.5 -56.5zM563 1126q21 72 2.5 103t-86.5 45
q-28 6 -38.5 16t-10.5 25q0 22 62 22q53 0 116 -3t105 -3q39 0 97.5 3t111.5 3q49 0 49 -22q0 -28 -76 -41q-78 -14 -118.5 -46t-61.5 -102l-283 -925q-21 -69 6 -103.5t99 -48.5q29 -6 40 -14.5t11 -22.5q0 -22 -62 -22q-53 0 -116 5t-105 5q-46 0 -120 -5t-126 -5
q-49 0 -49 22q0 24 74 37q80 14 128 48.5t69 103.5z" />
    <glyph glyph-name="itilde" unicode="&#x129;" horiz-adv-x="561" 
d="M246 999q-14 0 -21.5 12t-7.5 29q0 19 73 89.5t107 70.5q25 0 109 -8t110 -8q25 0 46.5 11t33.5 23.5t22 23.5t15 11q15 0 24 -9.5t9 -24.5q0 -19 -70 -88.5t-104 -69.5q-26 0 -115 7t-115 7q-22 0 -47.5 -19t-44 -38t-24.5 -19zM125 156l147 397q33 98 0 98
q-38 0 -137 -47q-6 -3 -18.5 0.5t-12.5 9.5q0 17 19 31q159 113 334 211q8 4 16 6t15.5 -0.5t7.5 -13.5q0 -29 -21 -90l-211 -582q-14 -40 -14 -59q0 -15 6.5 -24t17.5 -9q30 0 86 38.5t89 68t55 51.5q4 4 8 4q12 0 12 -10q0 -55 -42 -107.5t-99.5 -85t-111.5 -52.5t-83 -20
q-88 0 -88 72q0 48 25 113z" />
    <glyph glyph-name="Imacron" unicode="&#x12a;" horiz-adv-x="759" 
d="M522 1581h508q9 0 18 -8t9 -17q0 -30 -19.5 -52.5t-44.5 -22.5h-491q-11 0 -20 7.5t-9 16.5q0 22 12 49t37 27zM563 1126q21 72 2.5 103t-86.5 45q-28 6 -38.5 16t-10.5 25q0 22 62 22q53 0 116 -3t105 -3q39 0 97.5 3t111.5 3q49 0 49 -22q0 -28 -76 -41
q-78 -14 -118.5 -46t-61.5 -102l-283 -925q-21 -69 6 -103.5t99 -48.5q29 -6 40 -14.5t11 -22.5q0 -22 -62 -22q-53 0 -116 5t-105 5q-46 0 -120 -5t-126 -5q-49 0 -49 22q0 24 74 37q80 14 128 48.5t69 103.5z" />
    <glyph glyph-name="imacron" unicode="&#x12b;" horiz-adv-x="561" 
d="M291 1184h424q7 0 12.5 -6.5t5.5 -14.5q0 -25 -26 -47t-48 -22h-409q-8 0 -13.5 5.5t-5.5 12.5q0 20 18.5 46t41.5 26zM125 156l147 397q33 98 0 98q-38 0 -137 -47q-6 -3 -18.5 0.5t-12.5 9.5q0 17 19 31q159 113 334 211q8 4 16 6t15.5 -0.5t7.5 -13.5q0 -29 -21 -90
l-211 -582q-14 -40 -14 -59q0 -15 6.5 -24t17.5 -9q30 0 86 38.5t89 68t55 51.5q4 4 8 4q12 0 12 -10q0 -55 -42 -107.5t-99.5 -85t-111.5 -52.5t-83 -20q-88 0 -88 72q0 48 25 113z" />
    <glyph glyph-name="Ibreve" unicode="&#x12c;" horiz-adv-x="759" 
d="M997 1636q33 43 56 43q12 0 12 -14q0 -57 -29.5 -100.5t-79 -68.5t-107 -37.5t-120.5 -12.5q-67 0 -118.5 39t-51.5 100q0 37 15.5 65.5t39.5 28.5q8 0 11.5 -6t5 -20t2.5 -17q10 -43 48.5 -63.5t90.5 -20.5q82 0 133 16t92 68zM563 1126q21 72 2.5 103t-86.5 45
q-28 6 -38.5 16t-10.5 25q0 22 62 22q53 0 116 -3t105 -3q39 0 97.5 3t111.5 3q49 0 49 -22q0 -28 -76 -41q-78 -14 -118.5 -46t-61.5 -102l-283 -925q-21 -69 6 -103.5t99 -48.5q29 -6 40 -14.5t11 -22.5q0 -22 -62 -22q-53 0 -116 5t-105 5q-46 0 -120 -5t-126 -5
q-49 0 -49 22q0 24 74 37q80 14 128 48.5t69 103.5z" />
    <glyph glyph-name="ibreve" unicode="&#x12d;" horiz-adv-x="561" 
d="M395 1231q2 -31 6 -51.5t14 -42.5t31 -33.5t52 -11.5q135 0 180 125q7 20 21 38.5t26 18.5q18 0 18 -25q0 -108 -82.5 -183t-197.5 -75q-53 0 -100.5 42t-47.5 102q0 56 15.5 97.5t44.5 41.5q15 0 20 -43zM125 156l147 397q33 98 0 98q-38 0 -137 -47q-6 -3 -18.5 0.5
t-12.5 9.5q0 17 19 31q159 113 334 211q8 4 16 6t15.5 -0.5t7.5 -13.5q0 -29 -21 -90l-211 -582q-14 -40 -14 -59q0 -15 6.5 -24t17.5 -9q30 0 86 38.5t89 68t55 51.5q4 4 8 4q12 0 12 -10q0 -55 -42 -107.5t-99.5 -85t-111.5 -52.5t-83 -20q-88 0 -88 72q0 48 25 113z" />
    </font>
</defs>
</svg>
