<svg width="116" height="3" viewBox="0 0 116 3" fill="none" xmlns="http://www.w3.org/2000/svg">
<path d="M115.961 2.0957C114.737 2.38236 113.731 1.58413 112.63 1.99824L112.771 2.20834C111.97 2.35628 112.606 1.67614 111.774 1.96262C111.447 2.14162 111.859 2.22871 111.705 2.24441C109.989 2.18248 108.22 2.39289 106.612 1.90134C106.217 2.36669 104.779 1.92373 104.149 2.39196C103.707 2.21775 103.266 2.26919 103.095 1.9443C97.1258 2.26128 91.0231 1.89369 84.9058 2.00525C82.0384 1.15605 78.6177 2.25706 75.2192 1.99923C75.1948 2.03176 75.1999 2.06852 75.2197 2.09131C73.8744 1.86793 72.523 1.81368 71.1745 1.92888L70.0524 1.56956C62.1034 2.44034 65.3357 1.86202 57.2568 2.28767C48.0769 2.62084 40.039 3.36377 31.0918 2.30791C31.0923 2.3954 31.0312 2.4422 31.2618 2.47623C28.6825 2.32812 26.3338 2.67917 23.9089 2.52457L23.9093 2.61207C18.6389 2.0363 6.7942 2.7382 0.00559894 2.44348L0.000188026 1.43959C0.98075 1.46446 1.9297 1.53575 2.87184 1.70846L2.85124 1.52452C7.7418 2.10492 21.049 1.2562 26.1132 1.31869C28.2157 1.21933 29.6384 1.41841 31.7511 1.40181L31.8014 1.17555C35.3623 1.99325 39.2724 0.30139 42.9882 1.2047L42.7415 0.899166C43.3199 1.35263 44.9856 0.701354 44.7694 1.52834L45.425 1.27166C47.9503 2.32306 50.0079 0.713706 53.1023 1.37592L52.8978 1.18497C53.6905 1.36823 54.491 1.38934 55.2855 1.24792C55.1922 1.21683 55.236 1.16103 55.0396 1.11277C55.2329 1.05054 55.3626 1.0029 55.4408 0.9605C55.9726 0.954005 56.4922 0.947657 56.9607 0.997199L56.8568 0.828074L57.7306 1.05689L57.7508 0.711242C59.9958 0.683822 62.11 0.929711 64.2989 0.944425L64.1845 0.632665C66.2241 1.16039 68.5201 0.579712 70.6781 0.78362L70.5305 0.674901C76.0003 0.488358 81.047 0.942512 86.4648 1.11121C86.3813 1.08 86.3514 0.988239 86.263 0.952476C86.5382 1.10963 86.8228 1.20057 87.11 1.22308C87.1881 1.15304 87.0284 1.0767 86.9326 1.05024C88.0769 0.520469 90.3019 1.33144 91.0154 0.926673C91.3368 0.978011 91.4801 1.18811 91.3021 1.35607C95.5502 1.43314 100.095 1.47434 104.423 1.82214C104.631 1.74591 104.667 1.60733 104.609 1.42842C108.312 2.21676 112.185 1.83786 115.969 1.65349C116.117 1.86353 115.588 1.87 115.961 2.0957Z" fill="#6B1105"/>
</svg>
